<svg id="Ebene_1" data-name="Ebene 1" xmlns="http://www.w3.org/2000/svg" viewBox="0 0 603.38 242.29"><defs><style>.cls-1{isolation:isolate;}.cls-2{fill:#001e34;}.cls-3,.cls-5,.cls-6,.cls-7,.cls-8{fill:none;}.cls-3,.cls-5,.cls-8{stroke:#fff;}.cls-3{stroke-linecap:square;stroke-linejoin:round;}.cls-3,.cls-6,.cls-7{stroke-width:8px;}.cls-4{opacity:0.3;}.cls-5,.cls-6,.cls-7,.cls-8{stroke-miterlimit:10;}.cls-5{stroke-width:3.32px;}.cls-6,.cls-7{stroke:#55d045;}.cls-7,.cls-8{stroke-linecap:round;}.cls-8{stroke-width:2px;}</style></defs><g class="cls-1"><path class="cls-2" d="M26,234.16H9.54L6.3,241.78H0l14.8-32.9h6l14.85,32.9H29.28Zm-2-4.79L17.77,215l-6.16,14.38Z"/><path class="cls-2" d="M54.14,240.41a6.76,6.76,0,0,1-2.51,1.27,11.43,11.43,0,0,1-3.13.43,8.89,8.89,0,0,1-6.39-2.17q-2.25-2.16-2.25-6.29V221.57H35.72v-4.7h4.14v-5.74h5.87v5.74h6.72v4.7H45.73V233.5a4,4,0,0,0,.89,2.8,3.37,3.37,0,0,0,2.59,1,5.17,5.17,0,0,0,3.29-1Z"/><path class="cls-2" d="M81.64,231.11H62a6.78,6.78,0,0,0,2.7,4.39,8.88,8.88,0,0,0,5.43,1.62,9.16,9.16,0,0,0,6.81-2.72L80,238a10.65,10.65,0,0,1-4.28,3,16.87,16.87,0,0,1-13.11-.61,11.81,11.81,0,0,1-4.86-4.58,12.9,12.9,0,0,1-1.72-6.65,13.17,13.17,0,0,1,1.67-6.61A11.92,11.92,0,0,1,62.37,218,13.56,13.56,0,0,1,69,216.4,13.18,13.18,0,0,1,75.6,218a11.44,11.44,0,0,1,4.51,4.56,13.83,13.83,0,0,1,1.62,6.79Q81.73,230,81.64,231.11Zm-17.37-8.35a7,7,0,0,0-2.37,4.45H76.14a6.94,6.94,0,0,0-2.3-4.42A7,7,0,0,0,69,221.1,7.09,7.09,0,0,0,64.27,222.76Z"/><path class="cls-2" d="M87.37,206.9h5.88v34.88H87.37Z"/><path class="cls-2" d="M101.24,211.53a3.47,3.47,0,0,1,0-5,3.78,3.78,0,0,1,2.68-1,3.88,3.88,0,0,1,2.68,1,3.1,3.1,0,0,1,1.08,2.42,3.58,3.58,0,0,1-1.06,2.61,3.69,3.69,0,0,1-2.7,1A3.74,3.74,0,0,1,101.24,211.53Zm-.28,5.15h5.87v25.1H101Z"/><path class="cls-2" d="M138,231.11h-19.7a6.83,6.83,0,0,0,2.71,4.39,8.84,8.84,0,0,0,5.43,1.62,9.18,9.18,0,0,0,6.81-2.72l3.15,3.62a10.65,10.65,0,0,1-4.28,3,16.87,16.87,0,0,1-13.11-.61,11.81,11.81,0,0,1-4.86-4.58,12.9,12.9,0,0,1-1.72-6.65,13.17,13.17,0,0,1,1.67-6.61,11.85,11.85,0,0,1,4.63-4.58,13.56,13.56,0,0,1,6.67-1.64A13.18,13.18,0,0,1,132,218a11.44,11.44,0,0,1,4.51,4.56,13.83,13.83,0,0,1,1.62,6.79Q138.13,230,138,231.11Zm-17.37-8.35a7,7,0,0,0-2.37,4.45h14.24a6.94,6.94,0,0,0-2.3-4.42,7,7,0,0,0-4.8-1.69A7.09,7.09,0,0,0,120.67,222.76Z"/><path class="cls-2" d="M158.29,216.4V222a7.75,7.75,0,0,0-1.36-.14,7.07,7.07,0,0,0-5.36,2,8,8,0,0,0-1.92,5.75v12.18h-5.88v-25.1h5.59v3.66Q151.91,216.4,158.29,216.4Z"/><path class="cls-2" d="M188.37,228l-5.21,5.36v8.42h-6.11v-32.9h6.11v16.87l16.26-16.87h6.86l-13.82,14.71,14.67,18.19H200Z"/><path class="cls-2" d="M234.2,216.68v25.1h-5.59v-3.2a9.34,9.34,0,0,1-3.53,2.61,11.36,11.36,0,0,1-4.56.92,10.94,10.94,0,0,1-7.92-2.8q-2.9-2.79-2.89-8.3V216.68h5.88v13.53a7.32,7.32,0,0,0,1.52,5.06,5.61,5.61,0,0,0,4.35,1.67,6.6,6.6,0,0,0,5-1.95,7.9,7.9,0,0,0,1.85-5.62V216.68Z"/><path class="cls-2" d="M263.76,219.17q2.87,2.78,2.87,8.22v14.39h-5.88V228.15a7,7,0,0,0-1.55-5,5.73,5.73,0,0,0-4.42-1.67,6.77,6.77,0,0,0-5.12,1.95,7.79,7.79,0,0,0-1.88,5.62v12.69h-5.87v-25.1h5.59v3.24a9.08,9.08,0,0,1,3.67-2.63,13.08,13.08,0,0,1,5-.89A10.48,10.48,0,0,1,263.76,219.17Z"/><path class="cls-2" d="M275.89,241.31a15.28,15.28,0,0,1-4.66-2l2.26-4.47a14.4,14.4,0,0,0,4.07,1.81,17,17,0,0,0,4.67.68q5.26,0,5.27-2.77a1.85,1.85,0,0,0-1.34-1.83,22.6,22.6,0,0,0-4.3-1,34.18,34.18,0,0,1-5.06-1.08,7.78,7.78,0,0,1-3.38-2.14,6,6,0,0,1-1.43-4.25,6.66,6.66,0,0,1,3-5.71A13.56,13.56,0,0,1,283,216.4a23.35,23.35,0,0,1,5.17.58,14.75,14.75,0,0,1,4.23,1.58L290.18,223a14,14,0,0,0-7.2-1.88,7.91,7.91,0,0,0-3.92.78,2.32,2.32,0,0,0-1.34,2,2,2,0,0,0,1.43,2,23.34,23.34,0,0,0,4.45,1.11,33.43,33.43,0,0,1,4.93,1.08,7.64,7.64,0,0,1,3.31,2.06,5.76,5.76,0,0,1,1.39,4.14,6.55,6.55,0,0,1-3.05,5.64q-3.06,2.12-8.32,2.12A22.56,22.56,0,0,1,275.89,241.31Z"/><path class="cls-2" d="M313.39,240.41a6.76,6.76,0,0,1-2.51,1.27,11.43,11.43,0,0,1-3.13.43,8.89,8.89,0,0,1-6.39-2.17q-2.25-2.16-2.25-6.29V221.57H295v-4.7h4.14v-5.74H305v5.74h6.72v4.7H305V233.5a4,4,0,0,0,.89,2.8,3.37,3.37,0,0,0,2.59,1,5.17,5.17,0,0,0,3.29-1Z"/><path class="cls-2" d="M356.44,242.29l-4.13-4a16.42,16.42,0,0,1-11.05,3.95,16,16,0,0,1-6.15-1.13,10.1,10.1,0,0,1-4.28-3.13,7.21,7.21,0,0,1-1.55-4.53,8.58,8.58,0,0,1,1.78-5.38,18.91,18.91,0,0,1,5.83-4.59,14.62,14.62,0,0,1-2.82-3.69,8,8,0,0,1-.84-3.55,6.93,6.93,0,0,1,2.6-5.61,10.58,10.58,0,0,1,6.94-2.14,9.83,9.83,0,0,1,6.39,1.95,6.45,6.45,0,0,1,2.4,5.29,7,7,0,0,1-1.58,4.51,17.71,17.71,0,0,1-5.14,4l7.09,6.76a21.42,21.42,0,0,0,1.84-5.54l4.74,1.55a22.45,22.45,0,0,1-3,7.52l4.14,4ZM348.83,235l-8.69-8.32a13.55,13.55,0,0,0-4,3,5,5,0,0,0-1.15,3.22,3.86,3.86,0,0,0,1.84,3.33,8.3,8.3,0,0,0,4.84,1.27A11,11,0,0,0,348.83,235Zm-9.12-21.31a3.15,3.15,0,0,0-1.13,2.51,4.05,4.05,0,0,0,.62,2.14,16.32,16.32,0,0,0,2.35,2.75,17,17,0,0,0,3.92-2.7,3.56,3.56,0,0,0,1.1-2.52,2.82,2.82,0,0,0-1-2.3,4.23,4.23,0,0,0-2.79-.85A4.51,4.51,0,0,0,339.71,213.65Z"/><path class="cls-2" d="M400.39,225h5.78v13.11a18.36,18.36,0,0,1-5.92,3.11,22.79,22.79,0,0,1-7,1.08,18.72,18.72,0,0,1-9.07-2.19,16.17,16.17,0,0,1-6.34-6,17.52,17.52,0,0,1,0-17.39,16.16,16.16,0,0,1,6.36-6,19,19,0,0,1,9.15-2.18,19.89,19.89,0,0,1,7.51,1.36,14.75,14.75,0,0,1,5.69,4l-3.85,3.76a12.39,12.39,0,0,0-9.07-3.76,12.82,12.82,0,0,0-6.18,1.46,10.54,10.54,0,0,0-4.23,4.09,11.77,11.77,0,0,0-1.53,6,11.58,11.58,0,0,0,1.53,5.92,10.84,10.84,0,0,0,4.23,4.13,12.3,12.3,0,0,0,6.13,1.51,13.34,13.34,0,0,0,6.77-1.69Z"/><path class="cls-2" d="M437.14,231.11H417.45a6.78,6.78,0,0,0,2.7,4.39,8.88,8.88,0,0,0,5.43,1.62,9.18,9.18,0,0,0,6.82-2.72l3.14,3.62a10.62,10.62,0,0,1-4.27,3,16.9,16.9,0,0,1-13.12-.61,11.81,11.81,0,0,1-4.86-4.58,13,13,0,0,1-1.72-6.65,13.17,13.17,0,0,1,1.67-6.61,11.92,11.92,0,0,1,4.63-4.58,13.6,13.6,0,0,1,6.68-1.64A13.15,13.15,0,0,1,431.1,218a11.44,11.44,0,0,1,4.51,4.56,13.73,13.73,0,0,1,1.63,6.79C437.24,229.78,437.2,230.36,437.14,231.11Zm-17.37-8.35a7.09,7.09,0,0,0-2.37,4.45h14.24a6.85,6.85,0,0,0-7.09-6.11A7.12,7.12,0,0,0,419.77,222.76Z"/><path class="cls-2" d="M444.66,241.31a15.32,15.32,0,0,1-4.65-2l2.26-4.47a14.33,14.33,0,0,0,4.06,1.81,17,17,0,0,0,4.68.68q5.26,0,5.26-2.77a1.85,1.85,0,0,0-1.34-1.83,22.4,22.4,0,0,0-4.3-1,34,34,0,0,1-5.05-1.08,7.81,7.81,0,0,1-3.39-2.14,6,6,0,0,1-1.43-4.25,6.67,6.67,0,0,1,3-5.71,13.52,13.52,0,0,1,8.06-2.14A23.42,23.42,0,0,1,457,217a14.75,14.75,0,0,1,4.23,1.58L459,223a14,14,0,0,0-7.19-1.88,8,8,0,0,0-3.93.78,2.32,2.32,0,0,0-1.34,2,2,2,0,0,0,1.44,2,23,23,0,0,0,4.44,1.11,33.89,33.89,0,0,1,4.94,1.08,7.7,7.7,0,0,1,3.31,2.06,5.8,5.8,0,0,1,1.38,4.14A6.53,6.53,0,0,1,459,240q-3.06,2.12-8.32,2.12A22.56,22.56,0,0,1,444.66,241.31Z"/><path class="cls-2" d="M482.17,240.41a6.8,6.8,0,0,1-2.52,1.27,11.36,11.36,0,0,1-3.12.43,8.86,8.86,0,0,1-6.39-2.17q-2.26-2.16-2.26-6.29V221.57h-4.14v-4.7h4.14v-5.74h5.87v5.74h6.73v4.7h-6.73V233.5a3.94,3.94,0,0,0,.9,2.8,3.34,3.34,0,0,0,2.58,1,5.13,5.13,0,0,0,3.29-1Z"/><path class="cls-2" d="M505.08,219.05q2.94,2.65,2.94,8v14.71h-5.55v-3.06a6.84,6.84,0,0,1-3.08,2.52,12,12,0,0,1-4.82.87,11.81,11.81,0,0,1-4.93-1,7.59,7.59,0,0,1-3.27-2.68,6.75,6.75,0,0,1-1.15-3.87,6.63,6.63,0,0,1,2.52-5.43q2.5-2.06,7.92-2h6.48v-.37a5.15,5.15,0,0,0-1.57-4.05,6.82,6.82,0,0,0-4.68-1.41,13.45,13.45,0,0,0-4.16.66,10.14,10.14,0,0,0-3.45,1.84L486,219.5a14.3,14.3,0,0,1,4.75-2.3,20.88,20.88,0,0,1,5.88-.8Q502.14,216.4,505.08,219.05Zm-5.36,17.77a5.5,5.5,0,0,0,2.42-2.89V231h-6.06c-3.39,0-5.08,1.12-5.08,3.34a3,3,0,0,0,1.27,2.54,5.81,5.81,0,0,0,3.53.94A7.6,7.6,0,0,0,499.72,236.82Z"/><path class="cls-2" d="M515.54,206.9h5.87v34.88h-5.87Z"/><path class="cls-2" d="M545.43,240.41a6.8,6.8,0,0,1-2.52,1.27,11.36,11.36,0,0,1-3.12.43,8.86,8.86,0,0,1-6.39-2.17q-2.26-2.16-2.26-6.29V221.57H527v-4.7h4.14v-5.74H537v5.74h6.72v4.7H537V233.5a3.94,3.94,0,0,0,.89,2.8,3.34,3.34,0,0,0,2.58,1,5.15,5.15,0,0,0,3.29-1Z"/><path class="cls-2" d="M572.92,231.11H553.23a6.82,6.82,0,0,0,2.7,4.39,8.88,8.88,0,0,0,5.43,1.62,9.18,9.18,0,0,0,6.82-2.72l3.14,3.62a10.62,10.62,0,0,1-4.27,3,15.61,15.61,0,0,1-5.83,1,15.42,15.42,0,0,1-7.28-1.65,11.84,11.84,0,0,1-4.87-4.58,13,13,0,0,1-1.72-6.65,13.17,13.17,0,0,1,1.67-6.61,12,12,0,0,1,4.63-4.58,13.6,13.6,0,0,1,6.68-1.64,13.15,13.15,0,0,1,6.55,1.62,11.53,11.53,0,0,1,4.52,4.56,13.83,13.83,0,0,1,1.62,6.79C573,229.78,573,230.36,572.92,231.11Zm-17.36-8.35a7.1,7.1,0,0,0-2.38,4.45h14.24a6.85,6.85,0,0,0-7.09-6.11A7.09,7.09,0,0,0,555.56,222.76Z"/><path class="cls-2" d="M600.51,219.17q2.87,2.78,2.87,8.22v14.39H597.5V228.15a7,7,0,0,0-1.55-5,5.72,5.72,0,0,0-4.41-1.67,6.8,6.8,0,0,0-5.13,1.95,7.79,7.79,0,0,0-1.88,5.62v12.69h-5.87v-25.1h5.59v3.24a9.08,9.08,0,0,1,3.67-2.63,13.08,13.08,0,0,1,5-.89A10.48,10.48,0,0,1,600.51,219.17Z"/></g><circle class="cls-2" cx="303.5" cy="89.56" r="89.55"/><polyline class="cls-3" points="338.99 171.79 338.99 99.19 303.38 34.41 268 98.96 268 171.79"/><g class="cls-4"><path d="M312.75,169a80.3,80.3,0,1,1,78.66-96.49A89.61,89.61,0,1,0,393,89.55c0-.2,0-.39,0-.59A80.28,80.28,0,0,1,312.75,169Z"/><path d="M393,86.71l0,1.08Z"/><path d="M391.42,72.5c.16.8.29,1.62.43,2.43C391.72,74.11,391.57,73.3,391.42,72.5Z"/></g><path class="cls-5" d="M268,99.19s12.86,7.19,35.5,7.19c22.85,0,35.5-7.19,35.5-7.19"/><path class="cls-6" d="M282.05,72.5s7.74,4.33,21.37,4.33,21.37-4.33,21.37-4.33"/><path class="cls-7" d="M268,99l35.38-64.55L339,99.19"/><line class="cls-8" x1="291.01" y1="105.88" x2="291.01" y2="178.24"/><line class="cls-8" x1="315.94" y1="105.88" x2="315.94" y2="178.24"/></svg>