<?xml version="1.0" encoding="utf-8"?>
<!-- Generator: Adobe Illustrator 26.2.0, SVG Export Plug-In . SVG Version: 6.00 Build 0)  -->
<svg version="1.1" id="Ebene_1" xmlns="http://www.w3.org/2000/svg" xmlns:xlink="http://www.w3.org/1999/xlink" x="0px" y="0px"
	 viewBox="0 0 500 500" style="enable-background:new 0 0 500 500;" xml:space="preserve">
<style type="text/css">
	.st0{fill:none;}
	.st1{fill:#55D045;}
	.st2{fill:#FFFFFF;}
	.st3{opacity:0.1;}
	.st4{fill:none;stroke:#001E34;stroke-width:6.3334;stroke-miterlimit:10;}
	
		.st5{clip-path:url(#SVGID_00000008139918272886403030000008184462566399942276_);fill:none;stroke:#001E34;stroke-width:15.2478;stroke-linecap:square;stroke-linejoin:round;stroke-miterlimit:10;}
	
		.st6{clip-path:url(#SVGID_00000008139918272886403030000008184462566399942276_);fill:none;stroke:#001E34;stroke-width:3.812;stroke-linecap:round;stroke-miterlimit:10;}
	.st7{fill:none;stroke:#55D045;stroke-width:15.2478;stroke-miterlimit:10;}
	.st8{fill:none;stroke:#55D045;stroke-width:15.2478;stroke-linecap:round;stroke-miterlimit:10;}
</style>
<g>
	<path id="SVGID_x5F_2_x5F__6_" class="st0" d="M250,0C111.93,0,0,111.93,0,249.99S111.93,500,250,500s250-111.93,250-249.99
		C500,111.93,388.07,0,250,0z"/>
	<circle class="st1" cx="116.36" cy="66.33" r="7.73"/>
	<circle class="st1" cx="383.66" cy="66.33" r="7.73"/>
	<circle class="st1" cx="26.54" cy="285.78" r="7.73"/>
	
		<ellipse transform="matrix(0.0216 -0.9998 0.9998 0.0216 183.28 758.8386)" class="st1" cx="479.34" cy="285.78" rx="7.73" ry="7.73"/>
	<g>
		<g>
			<g>
				<path class="st2" d="M179.21,51.15l-20.36,8.51l-0.07,11.1l-7.79,3.26l1.29-48.38l7.45-3.11l35.41,33.03l-7.91,3.31
					L179.21,51.15z M174.22,46.27L159.1,31.68l-0.18,20.99L174.22,46.27z"/>
				<path class="st2" d="M217.49,49.84c-0.74,0.94-1.71,1.74-2.92,2.4c-1.21,0.66-2.53,1.15-3.97,1.47c-3.61,0.81-6.61,0.49-9-0.95
					c-2.39-1.44-3.99-3.97-4.8-7.58l-3.55-15.81l-5.41,1.21l-1.38-6.15l5.41-1.21l-1.68-7.51l7.69-1.72l1.68,7.51l8.8-1.97
					l1.38,6.15l-8.8,1.97l3.5,15.63c0.36,1.6,1.02,2.73,1.99,3.4c0.97,0.67,2.19,0.83,3.67,0.5c1.72-0.39,3.06-1.16,4-2.32
					L217.49,49.84z"/>
				<path class="st2" d="M252.05,34.45l-26.35,1.83c0.63,2.44,1.97,4.32,4.02,5.63c2.05,1.31,4.52,1.87,7.42,1.67
					c3.69-0.26,6.65-1.68,8.87-4.28l4.55,4.55c-1.38,1.91-3.2,3.4-5.44,4.49c-2.24,1.08-4.81,1.72-7.7,1.92
					c-3.69,0.26-6.99-0.25-9.9-1.53c-2.91-1.27-5.22-3.17-6.94-5.68c-1.71-2.51-2.68-5.43-2.91-8.74c-0.23-3.27,0.31-6.27,1.62-8.99
					c1.31-2.72,3.23-4.91,5.77-6.56c2.54-1.65,5.47-2.59,8.78-2.82c3.27-0.23,6.25,0.29,8.92,1.56c2.68,1.27,4.83,3.16,6.46,5.68
					c1.63,2.52,2.56,5.5,2.8,8.94C252.05,32.66,252.06,33.44,252.05,34.45z M228.03,24.89c-1.64,1.61-2.56,3.66-2.76,6.16
					l19.06-1.32c-0.5-2.41-1.67-4.31-3.49-5.7c-1.82-1.39-4.02-2-6.57-1.82C231.75,22.39,229.67,23.29,228.03,24.89z"/>
				<path class="st2" d="M262.38,2.92l7.86,0.52l-3.06,46.68l-7.86-0.52L262.38,2.92z"/>
				<path class="st2" d="M281.63,17.85l7.79,1.19l-5.09,33.28l-7.79-1.19L281.63,17.85z M283.04,11.08
					c-0.82-1.04-1.13-2.22-0.92-3.55c0.2-1.33,0.85-2.37,1.94-3.11c1.09-0.75,2.34-1.01,3.76-0.8c1.41,0.22,2.53,0.82,3.36,1.82
					c0.83,1,1.14,2.14,0.94,3.43c-0.21,1.37-0.85,2.45-1.93,3.24c-1.08,0.79-2.34,1.08-3.8,0.85
					C284.98,12.75,283.86,12.12,283.04,11.08z"/>
				<path class="st2" d="M327.45,48.83l-25.32-7.53c-0.26,2.51,0.33,4.74,1.79,6.68s3.58,3.33,6.36,4.16
					c3.54,1.05,6.81,0.76,9.81-0.9l2.67,5.86c-1.97,1.3-4.19,2.07-6.67,2.29c-2.48,0.23-5.11-0.07-7.89-0.9
					c-3.54-1.05-6.46-2.69-8.74-4.9c-2.28-2.21-3.78-4.8-4.5-7.75c-0.72-2.96-0.61-6.02,0.34-9.21c0.94-3.14,2.49-5.76,4.67-7.85
					c2.18-2.09,4.75-3.47,7.71-4.12c2.96-0.65,6.03-0.51,9.21,0.44c3.14,0.93,5.75,2.47,7.81,4.59s3.42,4.66,4.06,7.59
					c0.64,2.93,0.47,6.05-0.51,9.35C328.08,47.16,327.82,47.89,327.45,48.83z M308.31,31.47c-2.1,0.93-3.68,2.53-4.75,4.8
					l18.31,5.45c0.37-2.43-0.05-4.62-1.27-6.56s-3.06-3.28-5.52-4.01C312.67,30.43,310.41,30.53,308.31,31.47z"/>
				<path class="st2" d="M361.01,43.08l-3.24,6.77c-0.55-0.4-1.08-0.72-1.57-0.96c-2.77-1.32-5.32-1.55-7.64-0.69
					c-2.33,0.87-4.21,2.82-5.67,5.85l-7.05,14.73l-7.11-3.4l14.53-30.37l6.77,3.24l-2.12,4.44
					C351.49,40.48,355.86,40.61,361.01,43.08z"/>
			</g>
		</g>
		<g>
			<g>
				<path class="st2" d="M33.33,327.9l-9.18-4.04l-10.57,3.95l-2.87-7.68l41.34-15.45l2.87,7.68l-21.2,7.92l28.84,12.51l3.22,8.62
					l-24.97-10.46l-15.97,26.97l-3.35-8.98L33.33,327.9z"/>
				<path class="st2" d="M75.31,375.93l-28.63,17.71l-3.95-6.38l3.65-2.26c-1.95-0.28-3.77-1-5.46-2.18
					c-1.69-1.18-3.11-2.7-4.26-4.55c-2.37-3.83-3.17-7.49-2.4-11.01c0.77-3.51,3.24-6.57,7.42-9.15L58.02,348l4.15,6.7l-15.44,9.55
					c-2.57,1.59-4.14,3.36-4.69,5.31c-0.55,1.95-0.16,3.99,1.16,6.14c1.48,2.39,3.4,3.84,5.76,4.33c2.36,0.49,4.93-0.12,7.72-1.85
					l14.48-8.96L75.31,375.93z"/>
				<path class="st2" d="M98.39,407.06c-0.08,3.57-1.9,7.01-5.48,10.32L78.76,430.5l-5.36-5.78l13.41-12.43
					c2.16-2,3.31-4.02,3.46-6.05c0.15-2.03-0.65-3.99-2.39-5.87c-1.97-2.13-4.17-3.21-6.59-3.26c-2.42-0.05-4.84,1.04-7.24,3.27
					l-12.48,11.58l-5.36-5.78l24.69-22.89l5.1,5.5l-3.19,2.96c2.03-0.1,4,0.3,5.93,1.21c1.93,0.91,3.74,2.27,5.42,4.09
					C97.06,400.15,98.46,403.49,98.39,407.06z"/>
				<path class="st2" d="M92.29,441.03c-1.64-2.15-2.74-4.13-3.31-5.95l6.04-2.92c0.59,1.72,1.54,3.47,2.85,5.24
					c1.31,1.77,2.79,3.29,4.43,4.54c3.74,2.86,6.36,3.31,7.87,1.34c0.72-0.93,0.74-1.95,0.07-3.04c-0.67-1.09-1.93-2.61-3.78-4.56
					c-1.95-2.02-3.45-3.78-4.5-5.27c-1.05-1.49-1.67-3.17-1.86-5.04c-0.19-1.86,0.46-3.76,1.94-5.7c1.94-2.54,4.55-3.75,7.84-3.65
					c3.28,0.1,6.73,1.54,10.33,4.29c1.84,1.4,3.51,3.02,5.03,4.84c1.52,1.82,2.59,3.53,3.22,5.13l-6.04,2.92
					c-1.25-3.07-3.29-5.7-6.13-7.87c-1.84-1.41-3.44-2.2-4.81-2.37c-1.37-0.18-2.4,0.18-3.09,1.08c-0.77,1-0.8,2.1-0.1,3.3
					c0.7,1.2,1.98,2.8,3.83,4.8c1.88,1.97,3.34,3.69,4.38,5.18c1.04,1.48,1.65,3.12,1.84,4.91c0.19,1.79-0.44,3.63-1.9,5.54
					c-1.92,2.5-4.53,3.67-7.85,3.52c-3.32-0.16-6.85-1.67-10.59-4.53C95.82,445.09,93.92,443.18,92.29,441.03z"/>
				<path class="st2" d="M137.83,469.6c-1.18,0.2-2.44,0.13-3.77-0.2c-1.34-0.33-2.64-0.86-3.92-1.59c-3.21-1.84-5.21-4.1-6-6.78
					c-0.79-2.68-0.27-5.62,1.57-8.84l8.05-14.06l-4.81-2.76l3.13-5.47l4.82,2.76l3.82-6.68l6.84,3.92l-3.82,6.68l7.82,4.48
					l-3.13,5.47l-7.82-4.48l-7.96,13.9c-0.81,1.42-1.09,2.71-0.82,3.85c0.26,1.14,1.05,2.09,2.37,2.84
					c1.53,0.88,3.04,1.21,4.52,0.99L137.83,469.6z"/>
				<path class="st2" d="M197.21,493.64l-3.86-6.68c-4.93,2.26-10.17,2.6-15.7,1.01c-2.95-0.84-5.46-2.09-7.52-3.73
					c-2.07-1.64-3.52-3.51-4.36-5.61c-0.84-2.1-0.95-4.24-0.32-6.42c0.75-2.63,2.18-4.72,4.29-6.28c2.11-1.56,5.18-2.81,9.21-3.76
					c-1.21-2.18-1.97-4.12-2.27-5.8c-0.31-1.68-0.23-3.31,0.22-4.89c0.86-2.99,2.67-5.08,5.44-6.28c2.77-1.2,6.01-1.26,9.73-0.2
					c3.43,0.98,5.94,2.61,7.52,4.88c1.58,2.27,1.96,4.84,1.14,7.71c-0.62,2.18-1.86,3.93-3.7,5.24c-1.84,1.31-4.54,2.39-8.11,3.25
					l6.65,11.35c1.58-1.69,3.05-3.85,4.41-6.47l5.55,3.75c-1.89,3.53-4.08,6.39-6.6,8.6l3.88,6.62L197.21,493.64z M190.1,481.37
					l-8.14-13.94c-2.81,0.64-4.88,1.43-6.22,2.38c-1.34,0.95-2.23,2.19-2.67,3.73c-0.51,1.78-0.13,3.44,1.13,4.98
					c1.26,1.54,3.19,2.68,5.77,3.43C183.49,482.95,186.86,482.76,190.1,481.37z M186.22,450.52c-1.21,0.55-2,1.49-2.38,2.83
					c-0.28,0.97-0.28,1.96,0,2.98c0.28,1.02,0.95,2.49,2.01,4.41c2.81-0.64,4.83-1.32,6.06-2.04c1.23-0.72,2.02-1.66,2.35-2.83
					c0.36-1.25,0.21-2.37-0.45-3.34c-0.66-0.98-1.76-1.68-3.29-2.12C188.86,449.93,187.43,449.97,186.22,450.52z"/>
				<path class="st2" d="M263.82,475.19l7.75-0.13l0.29,17.59c-2.24,1.84-4.87,3.27-7.88,4.29c-3.01,1.02-6.11,1.55-9.31,1.6
					c-4.5,0.07-8.57-0.84-12.21-2.73c-3.65-1.9-6.53-4.55-8.64-7.96c-2.12-3.41-3.21-7.28-3.28-11.61c-0.07-4.33,0.9-8.23,2.9-11.71
					c2-3.48,4.81-6.23,8.41-8.24c3.6-2.01,7.67-3.06,12.21-3.13c3.7-0.06,7.07,0.5,10.12,1.66c3.05,1.17,5.62,2.92,7.71,5.24
					l-5.09,5.13c-3.42-3.31-7.5-4.92-12.25-4.85c-3.11,0.05-5.86,0.75-8.26,2.09c-2.4,1.34-4.26,3.2-5.58,5.58
					c-1.33,2.38-1.97,5.08-1.92,8.1c0.05,2.94,0.77,5.58,2.18,7.91c1.4,2.33,3.32,4.15,5.76,5.46c2.44,1.31,5.19,1.93,8.26,1.88
					c3.45-0.06,6.46-0.86,9.04-2.42L263.82,475.19z"/>
				<path class="st2" d="M315.13,475.15l-25.86,5.42c0.96,2.33,2.55,4.01,4.76,5.03c2.21,1.02,4.74,1.23,7.57,0.64
					c3.62-0.76,6.35-2.58,8.2-5.46l5.13,3.88c-1.11,2.08-2.7,3.81-4.77,5.19c-2.07,1.38-4.53,2.37-7.37,2.96
					c-3.62,0.76-6.96,0.71-10.02-0.15c-3.06-0.86-5.61-2.42-7.65-4.68c-2.04-2.26-3.4-5.01-4.08-8.26
					c-0.67-3.21-0.55-6.25,0.37-9.13c0.92-2.88,2.53-5.31,4.82-7.29s5.06-3.32,8.31-4c3.21-0.67,6.23-0.56,9.05,0.33
					c2.83,0.89,5.22,2.47,7.18,4.74c1.96,2.27,3.29,5.1,4,8.47C314.89,473.37,315,474.14,315.13,475.15z M290.03,468.97
					c-1.4,1.82-2.03,3.98-1.89,6.48l18.7-3.92c-0.83-2.32-2.24-4.04-4.24-5.17c-2-1.13-4.25-1.43-6.76-0.9
					C293.37,465.99,291.43,467.16,290.03,468.97z"/>
				<path class="st2" d="M331.66,483.75c-2.69,0.28-4.96,0.19-6.8-0.27l0.66-6.68c1.78,0.39,3.76,0.49,5.96,0.29
					s4.26-0.67,6.18-1.42c4.39-1.7,6.14-3.71,5.24-6.02c-0.42-1.1-1.28-1.64-2.56-1.64c-1.28,0-3.24,0.29-5.86,0.85
					c-2.74,0.61-5.02,0.98-6.84,1.1c-1.82,0.12-3.58-0.22-5.27-1.03c-1.69-0.81-2.97-2.35-3.86-4.62c-1.15-2.98-0.83-5.84,0.96-8.59
					c1.8-2.75,4.81-4.94,9.04-6.58c2.16-0.84,4.41-1.43,6.75-1.77c2.34-0.34,4.36-0.37,6.05-0.08l-0.66,6.68
					c-3.27-0.53-6.58-0.16-9.91,1.14c-2.16,0.84-3.67,1.79-4.53,2.87c-0.87,1.08-1.09,2.15-0.68,3.21c0.46,1.18,1.38,1.78,2.76,1.8
					c1.38,0.03,3.42-0.23,6.09-0.77c2.66-0.58,4.89-0.93,6.7-1.04c1.8-0.11,3.52,0.21,5.15,0.98c1.63,0.77,2.87,2.27,3.74,4.5
					c1.14,2.94,0.78,5.79-1.09,8.54c-1.86,2.75-4.99,4.98-9.38,6.68C336.96,482.85,334.35,483.48,331.66,483.75z"/>
				<path class="st2" d="M379.79,459.7c-0.44,1.11-1.15,2.15-2.13,3.12s-2.11,1.81-3.4,2.52c-3.24,1.79-6.21,2.32-8.91,1.6
					c-2.7-0.72-4.94-2.7-6.73-5.93l-7.83-14.19l-4.86,2.68l-3.05-5.52l4.86-2.68l-3.72-6.73l6.9-3.81l3.72,6.73l7.89-4.36l3.05,5.52
					l-7.89,4.36l7.74,14.02c0.79,1.44,1.75,2.34,2.86,2.71c1.12,0.37,2.34,0.19,3.66-0.54c1.54-0.85,2.61-1.97,3.19-3.35
					L379.79,459.7z"/>
				<path class="st2" d="M390.4,416.72c3.53,0.3,6.74,2.35,9.65,6.17l11.96,15.7l-5.92,4.51l-2.48-3.26
					c0.12,1.76-0.29,3.49-1.24,5.19c-0.95,1.7-2.43,3.32-4.44,4.84c-2.01,1.53-4.02,2.52-6.05,2.98c-2.03,0.46-3.92,0.39-5.66-0.21
					c-1.75-0.6-3.21-1.66-4.38-3.2c-1.83-2.41-2.41-5.02-1.73-7.84c0.68-2.82,2.95-5.69,6.79-8.62l6.92-5.27l-0.31-0.4
					c-1.42-1.87-3.08-2.88-4.96-3.03c-1.88-0.15-3.93,0.61-6.14,2.29c-1.51,1.15-2.81,2.51-3.91,4.08c-1.1,1.58-1.83,3.17-2.2,4.76
					l-5.93-2.69c0.59-2.14,1.66-4.24,3.2-6.32c1.54-2.07,3.41-3.95,5.62-5.63C383.13,417.77,386.87,416.42,390.4,416.72z
					 M399.12,440.03c0.67-1.65,0.75-3.33,0.23-5.05l-2.37-3.11l-6.47,4.93c-3.61,2.75-4.51,5.31-2.71,7.69
					c0.87,1.14,2,1.7,3.42,1.68c1.41-0.02,2.92-0.64,4.53-1.86C397.32,443.11,398.45,441.68,399.12,440.03z"/>
				<path class="st2" d="M389.04,395.84l5.62-5.53l32.82,33.34l-5.62,5.53L389.04,395.84z"/>
				<path class="st2" d="M449.11,395.93c0,1.2-0.27,2.42-0.82,3.69s-1.28,2.47-2.21,3.61c-2.34,2.86-4.9,4.47-7.67,4.8
					c-2.77,0.34-5.59-0.66-8.46-3l-12.55-10.25l-3.51,4.3l-4.88-3.99l3.51-4.3l-5.96-4.87l4.99-6.1l5.96,4.87l5.71-6.98l4.88,3.99
					l-5.71,6.98l12.4,10.13c1.27,1.04,2.49,1.52,3.66,1.45c1.17-0.07,2.24-0.7,3.2-1.87c1.12-1.37,1.69-2.8,1.72-4.29L449.11,395.93
					z"/>
				<path class="st2" d="M460.05,355.14l-13.62,22.64c2.36,0.88,4.67,0.86,6.92-0.07c2.25-0.93,4.12-2.63,5.62-5.12
					c1.91-3.17,2.43-6.41,1.58-9.72l6.34-1.12c0.77,2.23,0.95,4.57,0.55,7.03c-0.4,2.46-1.35,4.93-2.84,7.41
					c-1.91,3.17-4.22,5.58-6.93,7.24c-2.71,1.66-5.59,2.46-8.63,2.42c-3.04-0.04-5.99-0.92-8.83-2.63
					c-2.81-1.69-4.95-3.85-6.44-6.49c-1.48-2.63-2.17-5.46-2.07-8.49c0.11-3.03,1.01-5.96,2.73-8.81c1.69-2.81,3.82-4.95,6.4-6.42
					c2.58-1.47,5.36-2.14,8.36-2.03c3,0.11,5.97,1.06,8.93,2.83C458.58,354.11,459.23,354.55,460.05,355.14z M438.45,369.33
					c0.38,2.26,1.53,4.2,3.46,5.8l9.85-16.37c-2.26-0.97-4.49-1.1-6.67-0.41c-2.19,0.7-3.94,2.14-5.26,4.34
					C438.53,364.86,438.07,367.07,438.45,369.33z"/>
				<path class="st2" d="M459.6,312.83c3.22-1.54,7.11-1.47,11.68,0.23l18.09,6.7l-2.74,7.39l-17.15-6.35
					c-2.76-1.02-5.08-1.14-6.96-0.36c-1.88,0.78-3.27,2.38-4.16,4.78c-1.01,2.72-0.99,5.17,0.07,7.35c1.05,2.18,3.11,3.84,6.19,4.98
					l15.96,5.91l-2.74,7.39l-31.57-11.69l2.61-7.04l4.08,1.51c-1-1.76-1.54-3.71-1.6-5.84c-0.06-2.13,0.34-4.36,1.2-6.68
					C454.04,317.14,456.38,314.38,459.6,312.83z"/>
			</g>
		</g>
	</g>
	<g>
		<ellipse class="st2" cx="250.16" cy="250.02" rx="170.84" ry="170.53"/>
		<g class="st3">
			<path d="M267.81,401.24c-84.61,0-153.19-68.46-153.19-152.91S183.2,95.42,267.81,95.42c74.02,0,135.79,52.41,150.06,122.08
				c-15.2-78.63-84.51-138.02-167.73-138.02c-94.36,0-170.84,76.34-170.84,170.53s76.48,170.53,170.84,170.53
				S420.98,344.19,420.98,250c0-0.38-0.02-0.74-0.02-1.12C420.68,333.09,352.23,401.24,267.81,401.24z"/>
			<path class="st0" d="M420.9,244.59c0.02,0.69,0.04,1.37,0.06,2.06C420.94,245.97,420.92,245.28,420.9,244.59z"/>
			<path d="M417.89,217.54c0.31,1.52,0.55,3.08,0.82,4.63C418.46,220.6,418.18,219.06,417.89,217.54z"/>
		</g>
		<path class="st4" d="M182.44,268.38c0,0,24.53,13.69,67.72,13.69c43.59,0,67.72-13.69,67.72-13.69"/>
		<g>
			<defs>
				<circle id="SVGID_1_" cx="249.54" cy="249.99" r="170.54"/>
			</defs>
			<clipPath id="SVGID_00000096041113610860024290000001343162840166472367_">
				<use xlink:href="#SVGID_1_"  style="overflow:visible;"/>
			</clipPath>
			
				<polyline style="clip-path:url(#SVGID_00000096041113610860024290000001343162840166472367_);fill:none;stroke:#001E34;stroke-width:15.2478;stroke-linecap:square;stroke-linejoin:round;stroke-miterlimit:10;" points="
				317.87,406.63 317.87,268.38 249.94,145 182.44,267.92 182.44,406.63 			"/>
			
				<line style="clip-path:url(#SVGID_00000096041113610860024290000001343162840166472367_);fill:none;stroke:#001E34;stroke-width:3.812;stroke-linecap:round;stroke-miterlimit:10;" x1="226.34" y1="281.12" x2="226.34" y2="418.53"/>
			
				<line style="clip-path:url(#SVGID_00000096041113610860024290000001343162840166472367_);fill:none;stroke:#001E34;stroke-width:3.812;stroke-linecap:round;stroke-miterlimit:10;" x1="273.9" y1="281.12" x2="273.9" y2="418.53"/>
		</g>
		<g>
			<path class="st7" d="M209.23,217.54c0,0,14.77,8.25,40.77,8.25c26.23,0,40.77-8.25,40.77-8.25"/>
			<path class="st8" d="M182.44,267.92L249.94,145l67.95,123.36"/>
		</g>
	</g>
</g>
<path class="st0" d="M876.47,229.1c0.01,0.34,0.02,0.69,0.03,1.03C876.49,229.79,876.48,229.44,876.47,229.1z"/>
</svg>
