<svg id="PayPal" xmlns="http://www.w3.org/2000/svg" width="102.345" height="24.991" viewBox="0 0 102.345 24.991">
  <path id="Pfad_1318" data-name="Pfad 1318" d="M44.75,6.749H38.858a.819.819,0,0,0-.809.691L35.666,22.549a.491.491,0,0,0,.486.567h2.813a.819.819,0,0,0,.809-.692l.643-4.075a.818.818,0,0,1,.808-.692H43.09c3.881,0,6.121-1.878,6.706-5.6a4.538,4.538,0,0,0-.751-3.8A5.466,5.466,0,0,0,44.75,6.749Zm.68,5.518c-.322,2.114-1.938,2.114-3.5,2.114h-.889l.624-3.948a.491.491,0,0,1,.485-.414h.408c1.064,0,2.068,0,2.586.607A1.964,1.964,0,0,1,45.43,12.267Z" transform="translate(-6.313 -1.943)" fill="#253b80"/>
  <path id="Pfad_1319" data-name="Pfad 1319" d="M64.509,13.032H61.688a.492.492,0,0,0-.485.414l-.125.789-.2-.286c-.611-.887-1.973-1.183-3.332-1.183a6.488,6.488,0,0,0-6.3,5.674A5.326,5.326,0,0,0,52.3,22.775a4.415,4.415,0,0,0,3.554,1.435A5.4,5.4,0,0,0,59.759,22.6l-.126.784a.491.491,0,0,0,.484.569h2.542a.819.819,0,0,0,.809-.692L64.992,13.6A.489.489,0,0,0,64.509,13.032Zm-3.933,5.491a3.145,3.145,0,0,1-3.183,2.694,2.186,2.186,0,0,1-2.337-2.743,3.158,3.158,0,0,1,3.162-2.716,2.38,2.38,0,0,1,1.882.768A2.442,2.442,0,0,1,60.576,18.524Z" transform="translate(-9.049 -2.776)" fill="#253b80"/>
  <path id="Pfad_1320" data-name="Pfad 1320" d="M81.983,13.075H79.148a.822.822,0,0,0-.678.359l-3.91,5.76L72.9,13.659a.821.821,0,0,0-.786-.584H69.33a.491.491,0,0,0-.466.65l3.123,9.165-2.936,4.145a.491.491,0,0,0,.4.775h2.832a.817.817,0,0,0,.673-.352l9.43-13.612A.491.491,0,0,0,81.983,13.075Z" transform="translate(-12.169 -2.819)" fill="#253b80"/>
  <path id="Pfad_1321" data-name="Pfad 1321" d="M93.531,6.749H87.638a.818.818,0,0,0-.808.691L84.447,22.549a.49.49,0,0,0,.484.567h3.024a.573.573,0,0,0,.565-.484l.676-4.283A.818.818,0,0,1,90,17.657h1.864c3.882,0,6.121-1.878,6.707-5.6a4.535,4.535,0,0,0-.752-3.8A5.461,5.461,0,0,0,93.531,6.749Zm.68,5.518c-.321,2.114-1.937,2.114-3.5,2.114h-.888l.625-3.948a.489.489,0,0,1,.484-.414h.408c1.063,0,2.068,0,2.586.607A1.964,1.964,0,0,1,94.211,12.267Z" transform="translate(-14.948 -1.943)" fill="#179bd7"/>
  <path id="Pfad_1322" data-name="Pfad 1322" d="M113.29,13.032h-2.82a.489.489,0,0,0-.484.414l-.125.789-.2-.286c-.611-.887-1.972-1.183-3.332-1.183a6.487,6.487,0,0,0-6.3,5.674,5.328,5.328,0,0,0,1.05,4.334,4.417,4.417,0,0,0,3.554,1.435,5.4,5.4,0,0,0,3.905-1.615l-.126.784a.491.491,0,0,0,.486.569h2.541a.818.818,0,0,0,.808-.692l1.526-9.657A.492.492,0,0,0,113.29,13.032Zm-3.933,5.491a3.143,3.143,0,0,1-3.183,2.694,2.186,2.186,0,0,1-2.337-2.743A3.16,3.16,0,0,1,107,15.759a2.38,2.38,0,0,1,1.882.768A2.43,2.43,0,0,1,109.357,18.524Z" transform="translate(-17.968 -2.776)" fill="#179bd7"/>
  <path id="Pfad_1323" data-name="Pfad 1323" d="M118.905,7.163l-2.418,15.385a.49.49,0,0,0,.484.567H119.4a.817.817,0,0,0,.809-.692L122.6,7.316a.491.491,0,0,0-.484-.568h-2.722A.492.492,0,0,0,118.905,7.163Z" transform="translate(-20.257 -1.942)" fill="#179bd7"/>
  <path id="Pfad_1324" data-name="Pfad 1324" d="M6.407,24.251l.451-2.743-1-.022H1.061L4.392,1.245a.265.265,0,0,1,.093-.159.279.279,0,0,1,.177-.063h8.081c2.683,0,4.534.535,5.5,1.591A3.581,3.581,0,0,1,19.126,4.2a5.481,5.481,0,0,1,.006,2.183l-.01.064V7l.453.246a3.167,3.167,0,0,1,.918.67,3.063,3.063,0,0,1,.744,1.6,6.493,6.493,0,0,1-.106,2.322,7.963,7.963,0,0,1-.992,2.628,5.5,5.5,0,0,1-1.572,1.651,6.514,6.514,0,0,1-2.118.916,11,11,0,0,1-2.647.293h-.629a1.957,1.957,0,0,0-1.229.433,1.807,1.807,0,0,0-.641,1.1l-.047.247-.8,4.834-.036.178a.15.15,0,0,1-.05.1.137.137,0,0,1-.083.029Z" transform="translate(-0.147 -0.142)" fill="#253b80"/>
  <path id="Pfad_1325" data-name="Pfad 1325" d="M20.713,7.667h0q-.036.231-.083.474c-1.066,5.472-4.712,7.362-9.368,7.362H8.892a1.151,1.151,0,0,0-1.138.975h0l-1.214,7.7L6.2,26.359a.607.607,0,0,0,.6.7H11a1.012,1.012,0,0,0,1-.853l.041-.214.792-5.024.051-.276a1.011,1.011,0,0,1,1-.855h.629c4.074,0,7.264-1.654,8.2-6.441.389-2,.188-3.669-.843-4.844A4.021,4.021,0,0,0,20.713,7.667Z" transform="translate(-0.857 -2.07)" fill="#179bd7"/>
  <path id="Pfad_1326" data-name="Pfad 1326" d="M19.85,7.09q-.244-.071-.5-.129t-.533-.1a13.168,13.168,0,0,0-2.09-.152H10.39a1.01,1.01,0,0,0-1,.855L8.044,16.1,8,16.345a1.151,1.151,0,0,1,1.138-.975h2.371c4.657,0,8.3-1.891,9.368-7.362.032-.162.059-.32.083-.474a5.681,5.681,0,0,0-.876-.37C20.011,7.139,19.931,7.114,19.85,7.09Z" transform="translate(-1.108 -1.285)" fill="#222d65"/>
  <path id="Pfad_1327" data-name="Pfad 1327" d="M8.283,6.344a.969.969,0,0,1,.562-.722,1.047,1.047,0,0,1,.437-.095h6.334a13.757,13.757,0,0,1,2.09.146q.274.042.533.1t.5.124l.24.071a5.912,5.912,0,0,1,.876.353,4.787,4.787,0,0,0-1.1-4.443C17.556.562,15.381,0,12.6,0H4.516A1.141,1.141,0,0,0,3.375.934L.009,21.339a.674.674,0,0,0,.685.768H5.683l1.253-7.6Z" transform="translate(0)" fill="#253b80"/>
</svg>
