<svg xmlns="http://www.w3.org/2000/svg" width="36" height="36" viewBox="0 0 36 36">
  <g id="Gruppe_2524" data-name="Gruppe 2524" transform="translate(-994 496) rotate(-90)">
    <path id="Ellipse_9110" data-name="Ellipse 9110" d="M18,3A15,15,0,0,0,7.393,28.607,15,15,0,1,0,28.607,7.393,14.9,14.9,0,0,0,18,3m0-3A18,18,0,1,1,0,18,18,18,0,0,1,18,0Z" transform="translate(460 994)" fill="#b23cdf"/>
    <path id="Pfad_907" data-name="Pfad 907" d="M-1040.043-7750.915a1.5,1.5,0,0,1-1.061-.439l-3.984-3.983a1.5,1.5,0,0,1,0-2.121,1.5,1.5,0,0,1,2.121,0l2.923,2.923,2.923-2.923a1.5,1.5,0,0,1,2.121,0,1.5,1.5,0,0,1,0,2.121l-3.984,3.983A1.5,1.5,0,0,1-1040.043-7750.915Z" transform="translate(1518.026 8766.898)" fill="#b23cdf"/>
  </g>
</svg>
