<svg xmlns="http://www.w3.org/2000/svg" width="22.863" height="30.484" viewBox="0 0 22.863 30.484">
  <path id="Icon_awesome-child" data-name="Icon awesome-child" d="M7.145,4.287a4.287,4.287,0,1,1,4.287,4.287A4.287,4.287,0,0,1,7.145,4.287Zm15.16.082a1.905,1.905,0,0,0-2.694,0L14.453,9.526H8.41L3.252,4.369A1.905,1.905,0,0,0,.558,7.063L6.192,12.7V28.579A1.905,1.905,0,0,0,8.1,30.484H9.05a1.905,1.905,0,0,0,1.905-1.905V21.911h.953v6.668a1.905,1.905,0,0,0,1.905,1.905h.953a1.905,1.905,0,0,0,1.905-1.905V12.7l5.634-5.634A1.905,1.905,0,0,0,22.305,4.369Z" fill="#fff"/>
</svg>
