<svg height="13.065" viewBox="0 0 13.039 13.065" width="13.039" xmlns="http://www.w3.org/2000/svg"><path d="m16.207 12.782v1.967a1.311 1.311 0 0 1 -1.429 1.311 12.974 12.974 0 0 1 -5.658-2.013 12.784 12.784 0 0 1 -3.934-3.934 12.974 12.974 0 0 1 -2.013-5.684 1.311 1.311 0 0 1 1.305-1.429h1.967a1.311 1.311 0 0 1 1.311 1.128 8.418 8.418 0 0 0 .459 1.842 1.311 1.311 0 0 1 -.3 1.383l-.833.833a10.49 10.49 0 0 0 3.934 3.934l.833-.833a1.311 1.311 0 0 1 1.383-.3 8.418 8.418 0 0 0 1.842.459 1.311 1.311 0 0 1 1.128 1.331z" fill="#55d045" transform="translate(-3.168 -3)"/></svg>