<svg xmlns="http://www.w3.org/2000/svg" width="40" height="40" viewBox="0 0 40 40">
  <g id="Gruppe_3129" data-name="Gruppe 3129" transform="translate(-384 -663)">
    <rect id="Rechteck_2240" data-name="Rechteck 2240" width="40" height="40" transform="translate(384 663)" fill="none"/>
    <g id="icon_pricetag_white" transform="translate(386.521 666.521)">
      <path id="Differenzmenge_72" data-name="Differenzmenge 72" d="M6673.05-3303.664a5.511,5.511,0,0,1-3.723-1.485l-10.762-11.026a5.045,5.045,0,0,1-1.487-3.594,5.046,5.046,0,0,1,1.487-3.594l13.123-13.123a2.541,2.541,0,0,1,1.362-.438h15.222a2.051,2.051,0,0,1,1.461.6,2.05,2.05,0,0,1,.6,1.461v15.224a1.591,1.591,0,0,1-.621,1.306l-.043.022-13.157,13.157-.015.015-.013.017A4.471,4.471,0,0,1,6673.05-3303.664Zm.925-29.133-12.423,12.423a1.043,1.043,0,0,0-.284.737,1.042,1.042,0,0,0,.284.737l10.76,10.76a1.042,1.042,0,0,0,.737.285,1.041,1.041,0,0,0,.737-.285l12.423-12.423V-3332.8h-12.234Z" transform="translate(-6656.778 3337.221)" fill="#fff"/>
      <circle id="Ellipse_9229" data-name="Ellipse 9229" cx="2.625" cy="2.625" r="2.625" transform="translate(20.734 7.611)" fill="#fff"/>
    </g>
  </g>
</svg>
