<svg xmlns="http://www.w3.org/2000/svg" width="40" height="40" viewBox="0 0 40 40">
  <g id="Gruppe_3130" data-name="Gruppe 3130" transform="translate(-384 -663)">
    <rect id="Rechteck_2240" data-name="Rechteck 2240" width="40" height="40" transform="translate(384 663)" fill="none"/>
    <path id="Differenzmenge_70" data-name="Differenzmenge 70" d="M7139.462-2560.262a.838.838,0,0,1-.6-.255l-5.583-5.583a.862.862,0,0,1-.255-.612.865.865,0,0,1,.255-.614l5.583-5.582a.838.838,0,0,1,.6-.255.864.864,0,0,1,.876.867v3.6h6.95a2.448,2.448,0,0,0,2.167-1.281,2.453,2.453,0,0,0-.061-2.52l-1.925-3.078a.591.591,0,0,1,.187-.81l2.365-1.478a.59.59,0,0,1,.311-.088.579.579,0,0,1,.5.277l1.922,3.074a6.372,6.372,0,0,1,.168,6.544,6.369,6.369,0,0,1-5.639,3.326h-6.943v3.6A.865.865,0,0,1,7139.462-2560.262Zm-10.879-4.468h-3.62a6.37,6.37,0,0,1-5.639-3.326,6.368,6.368,0,0,1,.169-6.544l3.68-5.892-3.055-1.909a.857.857,0,0,1-.4-.876.852.852,0,0,1,.659-.7l7.7-1.778a.9.9,0,0,1,.2-.021.867.867,0,0,1,.844.672l1.776,7.7a.836.836,0,0,1-.16.726.887.887,0,0,1-.69.337.838.838,0,0,1-.454-.135l-3.057-1.909-3.682,5.894a2.458,2.458,0,0,0-.064,2.521,2.453,2.453,0,0,0,2.169,1.281h3.627a.589.589,0,0,1,.589.587v2.792A.589.589,0,0,1,7128.583-2564.73Zm17.758-15.527a.809.809,0,0,1-.2-.023l-7.7-1.776a.848.848,0,0,1-.657-.7.852.852,0,0,1,.393-.878l3.057-1.911-3.015-4.824a2.474,2.474,0,0,0-2.112-1.164,2.463,2.463,0,0,0-2.1,1.166l-1.253,2.006a.585.585,0,0,1-.5.277.576.576,0,0,1-.311-.09l-2.367-1.478a.587.587,0,0,1-.261-.367.583.583,0,0,1,.074-.443l1.253-2.008a6.412,6.412,0,0,1,5.469-3.03,6.414,6.414,0,0,1,5.472,3.03l3.014,4.824,3.051-1.907a.854.854,0,0,1,.457-.135.882.882,0,0,1,.686.338.839.839,0,0,1,.162.727l-1.776,7.7A.862.862,0,0,1,7146.341-2580.257Z" transform="translate(-6732.122 3261.881)" fill="#001e34"/>
  </g>
</svg>
