<svg xmlns="http://www.w3.org/2000/svg" width="17.076" height="16.141" viewBox="0 0 17.076 16.141">
  <g id="Icon_feather-shopping-cart" data-name="Icon feather-shopping-cart" transform="translate(-0.5 -0.5)">
    <path id="Pfad_1214" data-name="Pfad 1214" d="M13.371,30.685A.685.685,0,1,1,12.685,30,.685.685,0,0,1,13.371,30.685Z" transform="translate(-5.703 -15.48)" fill="#001e34" stroke="#001e34" stroke-linecap="round" stroke-linejoin="round" stroke-width="1.5"/>
    <path id="Pfad_1215" data-name="Pfad 1215" d="M29.871,30.685A.685.685,0,1,1,29.185,30,.685.685,0,0,1,29.871,30.685Z" transform="translate(-14.665 -15.48)" fill="#001e34" stroke="#001e34" stroke-linecap="round" stroke-linejoin="round" stroke-width="1.5"/>
    <path id="Pfad_1216" data-name="Pfad 1216" d="M1.5,1.5H4.241l1.837,9.176a1.371,1.371,0,0,0,1.371,1.1h6.661a1.371,1.371,0,0,0,1.371-1.1l1.1-5.749H4.926" fill="none" stroke="#001e34" stroke-linecap="round" stroke-linejoin="round" stroke-width="2"/>
  </g>
</svg>
