<?xml version="1.0" encoding="utf-8"?>
<!-- Generator: Adobe Illustrator 26.5.0, SVG Export Plug-In . SVG Version: 6.00 Build 0)  -->
<svg version="1.1" id="Ebene_1" xmlns="http://www.w3.org/2000/svg" xmlns:xlink="http://www.w3.org/1999/xlink" x="0px" y="0px"
	 viewBox="0 0 12.9 12.9" style="enable-background:new 0 0 12.9 12.9;" xml:space="preserve">
<style type="text/css">
	.st0{fill:#FFFFFF;}
</style>
<g>
	<path class="st0" d="M6.2,12.9c-0.5,0-1.1-0.2-1.5-0.6L0.6,8.1c-0.8-0.8-0.8-2.1,0-2.9l5-5C5.7,0.1,6,0,6.2,0H12
		c0.5,0,0.9,0.4,0.9,0.9v5.8c0,0.2-0.1,0.5-0.3,0.6l-5,5C7.3,12.7,6.7,12.9,6.2,12.9z M6.6,1.8L1.9,6.5c-0.1,0.1-0.1,0.3,0,0.4L6,11
		c0.1,0.1,0.3,0.1,0.4,0c0,0,0,0,0,0l4.7-4.7V1.8H6.6z"/>
	<circle class="st0" cx="8.9" cy="3.9" r="1"/>
</g>
</svg>
