<svg xmlns="http://www.w3.org/2000/svg" width="40" height="40" viewBox="0 0 40 40">
  <g id="Gruppe_3128" data-name="Gruppe 3128" transform="translate(-384 -663)">
    <rect id="Rechteck_2239" data-name="Rechteck 2239" width="40" height="40" transform="translate(384 663)" fill="none"/>
    <g id="Icon_feather-camera" data-name="Icon feather-camera" transform="translate(386 665)">
      <path id="Pfad_1245" data-name="Pfad 1245" d="M34.5,28.5a3,3,0,0,1-3,3H4.5a3,3,0,0,1-3-3V12a3,3,0,0,1,3-3h6l3-4.5h9l3,4.5h6a3,3,0,0,1,3,3Z" fill="none" stroke="#001e34" stroke-linecap="round" stroke-linejoin="round" stroke-width="4"/>
      <path id="Pfad_1246" data-name="Pfad 1246" d="M24,19.5a6,6,0,1,1-6-6,6,6,0,0,1,6,6Z" fill="none" stroke="#001e34" stroke-linecap="round" stroke-linejoin="round" stroke-width="4"/>
    </g>
  </g>
</svg>
