<svg height="67" viewBox="0 0 48 67" width="48" xmlns="http://www.w3.org/2000/svg"><path d="m24 0a24 24 0 0 1 24 24c0 13.255-24 43-24 43s-24-29.745-24-43a24 24 0 0 1 24-24z" fill="#55d045"/><path d="m12.2 7.31-8.023 6.608v7.132a.7.7 0 0 0 .7.7l4.876-.013a.7.7 0 0 0 .693-.7v-4.165a.7.7 0 0 1 .7-.7h2.785a.7.7 0 0 1 .7.7v4.162a.7.7 0 0 0 .7.7l4.874.013a.7.7 0 0 0 .7-.7v-7.134l-8.021-6.6a.53.53 0 0 0 -.684-.003zm12.672 4.49-3.638-3v-6.024a.522.522 0 0 0 -.522-.522h-2.436a.522.522 0 0 0 -.522.522v3.16l-3.9-3.205a2.089 2.089 0 0 0 -2.654 0l-11.012 9.069a.522.522 0 0 0 -.07.735l1.11 1.349a.522.522 0 0 0 .736.071l10.236-8.429a.53.53 0 0 1 .666 0l10.234 8.431a.522.522 0 0 0 .735-.07l1.11-1.349a.522.522 0 0 0 -.074-.737z" fill="#fff" transform="translate(11.001 11.059)"/></svg>