<svg xmlns="http://www.w3.org/2000/svg" width="20.174" height="20.174" viewBox="0 0 20.174 20.174">
  <path id="Icon_ionic-ios-checkmark-circle" data-name="Icon ionic-ios-checkmark-circle" d="M13.462,3.375A10.087,10.087,0,1,0,23.549,13.462,10.085,10.085,0,0,0,13.462,3.375Zm5.165,7.3-6.484,6.513h0a.876.876,0,0,1-.563.267.849.849,0,0,1-.567-.276L8.292,14.461a.193.193,0,0,1,0-.276l.863-.863a.188.188,0,0,1,.272,0l2.153,2.153L17.5,9.514a.191.191,0,0,1,.136-.058h0a.176.176,0,0,1,.136.058l.849.878A.191.191,0,0,1,18.627,10.673Z" transform="translate(-3.375 -3.375)" fill="#001e34"/>
</svg>
