<svg xmlns="http://www.w3.org/2000/svg" width="40" height="40" viewBox="0 0 40 40">
  <g id="Gruppe_3136" data-name="Gruppe 3136" transform="translate(-384 -663)">
    <rect id="Rechteck_2240" data-name="Rechteck 2240" width="40" height="40" transform="translate(384 663)" fill="none"/>
    <g id="icon_pricetag_white" transform="translate(386.521 666.521)">
      <path id="Differenzmenge_73" data-name="Differenzmenge 73" d="M6748.05-3303.665a5.5,5.5,0,0,1-3.722-1.484l-10.764-11.025a5.048,5.048,0,0,1-1.486-3.594,5.047,5.047,0,0,1,1.486-3.594l13.122-13.123a2.573,2.573,0,0,1,1.364-.436h15.223a2.043,2.043,0,0,1,1.46.6,2.045,2.045,0,0,1,.6,1.46v15.223a1.589,1.589,0,0,1-.622,1.306l-.042.022-13.158,13.158-.015.014-.014.019A4.469,4.469,0,0,1,6748.05-3303.665Zm.925-29.133-12.423,12.425a1.1,1.1,0,0,0,0,1.474l10.76,10.76a1.043,1.043,0,0,0,.737.285,1.036,1.036,0,0,0,.737-.285l12.423-12.423V-3332.8h-12.234Z" transform="translate(-6731.778 3337.221)" fill="#001e34"/>
      <circle id="Ellipse_9229" data-name="Ellipse 9229" cx="2.625" cy="2.625" r="2.625" transform="translate(20.734 7.611)" fill="#001e34"/>
    </g>
  </g>
</svg>
