<svg xmlns="http://www.w3.org/2000/svg" width="44" height="40" viewBox="0 0 44 40">
  <g id="Gruppe_3114" data-name="Gruppe 3114" transform="translate(-232 -161)">
    <rect id="Rechteck_2232" data-name="Rechteck 2232" width="44" height="40" transform="translate(232 161)" fill="none"/>
    <g id="Gruppe_3094" data-name="Gruppe 3094" transform="translate(-2.75 0.501)">
      <path id="Differenzmenge_69" data-name="Differenzmenge 69" d="M6926-2497.5a3,3,0,0,1-3-3,3,3,0,0,1,3-3,3,3,0,0,1,3,3A3,3,0,0,1,6926-2497.5Zm-16.5,0a3,3,0,0,1-3-3,3,3,0,0,1,3-3,3,3,0,0,1,3,3A3,3,0,0,1,6909.5-2497.5Zm15.659-8.5h-14.7a5.008,5.008,0,0,1-3.169-1.133,5.014,5.014,0,0,1-1.732-2.892l-2.5-12.506c-.01-.049-.021-.1-.029-.152l-1.164-5.817h-4.36a2,2,0,0,1-2-2,2,2,0,0,1,2-2h6a2.006,2.006,0,0,1,1.962,1.61l1.179,5.892h12.7a5.985,5.985,0,0,0-.342,2,5.982,5.982,0,0,0,.341,2h-11.9l2.04,10.194a1.006,1.006,0,0,0,.982.809h14.694a1,1,0,0,0,.979-.8l.334-1.755a6,6,0,0,0,3.778,1.548l-.184.965a.024.024,0,0,0,0,.016,5.015,5.015,0,0,1-1.732,2.892A5.017,5.017,0,0,1,6925.16-2506Z" transform="translate(-6660 2695.5)" fill="#001e34"/>
      <g id="Gruppe_3089" data-name="Gruppe 3089" transform="translate(-14.5 -4.5)">
        <path id="Linie_7223" data-name="Linie 7223" d="M11,2H0A2,2,0,0,1-2,0,2,2,0,0,1,0-2H11a2,2,0,0,1,2,2A2,2,0,0,1,11,2Z" transform="translate(279.5 177)" fill="#001e34"/>
        <path id="Linie_7224" data-name="Linie 7224" d="M0,14a2,2,0,0,1-2-2V0A2,2,0,0,1,0-2,2,2,0,0,1,2,0V12A2,2,0,0,1,0,14Z" transform="translate(285 171)" fill="#001e34"/>
      </g>
    </g>
  </g>
</svg>
