<svg xmlns="http://www.w3.org/2000/svg" width="22.608" height="17.936" viewBox="0 0 22.608 17.936">
  <g id="Icon_ionic-md-mail-unread" data-name="Icon ionic-md-mail-unread" transform="translate(-2.25 -4.5)">
    <path id="Pfad_1129" data-name="Pfad 1129" d="M32.112,7.618A3.118,3.118,0,1,1,28.993,4.5a3.118,3.118,0,0,1,3.118,3.118Z" transform="translate(-7.253 0)" fill="#001e34"/>
    <path id="Pfad_1130" data-name="Pfad 1130" d="M19.348,11.638,13.164,15.76,4.589,10.044V7.964l8.576,5.715L18.09,10.4a4.381,4.381,0,0,1-.058-4.77H4.331A2.086,2.086,0,0,0,2.25,7.706V20.7a2.086,2.086,0,0,0,2.081,2.081H22A2.086,2.086,0,0,0,24.084,20.7V11.672a4.386,4.386,0,0,1-4.736-.034Z" transform="translate(0 -0.345)" fill="#001e34"/>
  </g>
</svg>
