<svg xmlns="http://www.w3.org/2000/svg" width="13.039" height="13.065" viewBox="0 0 13.039 13.065">
  <path id="Icon_feather-phone" data-name="Icon feather-phone" d="M16.207,12.782v1.967a1.311,1.311,0,0,1-1.429,1.311A12.974,12.974,0,0,1,9.12,14.047a12.784,12.784,0,0,1-3.934-3.934A12.974,12.974,0,0,1,3.173,4.429,1.311,1.311,0,0,1,4.478,3H6.445A1.311,1.311,0,0,1,7.756,4.128,8.418,8.418,0,0,0,8.215,5.97a1.311,1.311,0,0,1-.3,1.383l-.833.833a10.49,10.49,0,0,0,3.934,3.934l.833-.833a1.311,1.311,0,0,1,1.383-.3,8.418,8.418,0,0,0,1.842.459,1.311,1.311,0,0,1,1.128,1.331Z" transform="translate(-3.168 -3)" fill="#55d045"/>
</svg>
