<svg xmlns="http://www.w3.org/2000/svg" width="40" height="40" viewBox="0 0 40 40">
  <g id="Gruppe_3223" data-name="Gruppe 3223" transform="translate(-693 -786)">
    <rect id="Rechteck_2259" data-name="Rechteck 2259" width="40" height="40" rx="20" transform="translate(693 786)" fill="#55d045"/>
    <g id="Icon_feather-truck" data-name="Icon feather-truck" transform="translate(702.301 793.564)">
      <path id="Pfad_1336" data-name="Pfad 1336" d="M1.5,4.5H14.726V15.963H1.5Z" fill="none" stroke="#fff" stroke-linecap="round" stroke-linejoin="round" stroke-width="2"/>
      <path id="Pfad_1337" data-name="Pfad 1337" d="M24,12h3.527l2.645,2.645v4.409H24Z" transform="translate(-9.274 -3.091)" fill="none" stroke="#fff" stroke-linecap="round" stroke-linejoin="round" stroke-width="2"/>
      <path id="Pfad_1338" data-name="Pfad 1338" d="M8.909,26.2A2.2,2.2,0,1,1,6.7,24a2.2,2.2,0,0,1,2.2,2.2Z" transform="translate(-1.237 -8.037)" fill="none" stroke="#fff" stroke-linecap="round" stroke-linejoin="round" stroke-width="2"/>
      <path id="Pfad_1339" data-name="Pfad 1339" d="M28.409,26.2A2.2,2.2,0,1,1,26.2,24a2.2,2.2,0,0,1,2.2,2.2Z" transform="translate(-9.274 -8.037)" fill="none" stroke="#fff" stroke-linecap="round" stroke-linejoin="round" stroke-width="2"/>
    </g>
  </g>
</svg>
