<svg xmlns="http://www.w3.org/2000/svg" width="40" height="40" viewBox="0 0 40 40">
  <g id="Gruppe_3225" data-name="Gruppe 3225" transform="translate(-557 -786)">
    <rect id="Rechteck_2258" data-name="Rechteck 2258" width="40" height="40" rx="20" transform="translate(557 786)" fill="#55d045"/>
    <g id="Icon_feather-file-text" data-name="Icon feather-file-text" transform="translate(563.674 793.843)">
      <path id="Pfad_1331" data-name="Pfad 1331" d="M15.157,3H7.831A1.831,1.831,0,0,0,6,4.831V19.483a1.831,1.831,0,0,0,1.831,1.831H18.82a1.831,1.831,0,0,0,1.831-1.831V8.494Z" transform="translate(0 0)" fill="none" stroke="#fff" stroke-linecap="round" stroke-linejoin="round" stroke-width="2"/>
      <path id="Pfad_1332" data-name="Pfad 1332" d="M21,3V8.494h5.494" transform="translate(-5.843 0)" fill="none" stroke="#fff" stroke-linecap="round" stroke-linejoin="round" stroke-width="2"/>
      <path id="Pfad_1333" data-name="Pfad 1333" d="M19.326,19.5H12" transform="translate(-2.337 -6.427)" fill="none" stroke="#fff" stroke-linecap="round" stroke-linejoin="round" stroke-width="2"/>
      <path id="Pfad_1334" data-name="Pfad 1334" d="M19.326,25.5H12" transform="translate(-2.337 -8.764)" fill="none" stroke="#fff" stroke-linecap="round" stroke-linejoin="round" stroke-width="2"/>
      <path id="Pfad_1335" data-name="Pfad 1335" d="M13.831,13.5H12" transform="translate(-2.337 -4.09)" fill="none" stroke="#fff" stroke-linecap="round" stroke-linejoin="round" stroke-width="2"/>
    </g>
  </g>
</svg>
