<svg xmlns="http://www.w3.org/2000/svg" width="40" height="40" viewBox="0 0 40 40">
  <g id="Gruppe_3229" data-name="Gruppe 3229" transform="translate(-725 -786)">
    <rect id="Rechteck_2256" data-name="Rechteck 2256" width="40" height="40" rx="20" transform="translate(725 786)" fill="#e3e3e3"/>
    <g id="Icon_feather-package" data-name="Icon feather-package" transform="translate(731.218 792.497)">
      <path id="Pfad_1342" data-name="Pfad 1342" d="M20.706,11.768,11.25,6.315" transform="translate(-2.022 -0.992)" fill="none" stroke="#fff" stroke-linecap="round" stroke-linejoin="round" stroke-width="2"/>
      <path id="Pfad_1343" data-name="Pfad 1343" d="M23.411,17.71V9.3a2.1,2.1,0,0,0-1.051-1.818l-7.354-4.2a2.1,2.1,0,0,0-2.1,0l-7.354,4.2A2.1,2.1,0,0,0,4.5,9.3v8.4a2.1,2.1,0,0,0,1.051,1.818l7.354,4.2a2.1,2.1,0,0,0,2.1,0l7.354-4.2A2.1,2.1,0,0,0,23.411,17.71Z" transform="translate(0 0)" fill="none" stroke="#fff" stroke-linecap="round" stroke-linejoin="round" stroke-width="2"/>
      <path id="Pfad_1344" data-name="Pfad 1344" d="M4.905,10.44l9.172,5.306,9.172-5.306" transform="translate(-0.121 -2.228)" fill="none" stroke="#fff" stroke-linecap="round" stroke-linejoin="round" stroke-width="2"/>
      <path id="Pfad_1345" data-name="Pfad 1345" d="M18,28.59V18" transform="translate(-4.044 -4.493)" fill="none" stroke="#fff" stroke-linecap="round" stroke-linejoin="round" stroke-width="2"/>
    </g>
  </g>
</svg>
