<svg xmlns="http://www.w3.org/2000/svg" width="17.09" height="12.09" viewBox="0 0 17.09 12.09">
  <g id="Gruppe_2251" data-name="Gruppe 2251" transform="translate(-781.5 -2178)">
    <path id="Pfad_912" data-name="Pfad 912" d="M-9624.739,15539.848a1.5,1.5,0,0,1-1.061-.439,1.5,1.5,0,0,1,0-2.121l3.484-3.484-3.484-3.484a1.5,1.5,0,0,1,0-2.121,1.5,1.5,0,0,1,2.121,0l4.545,4.545a1.5,1.5,0,0,1,0,2.121l-4.545,4.545A1.5,1.5,0,0,1-9624.739,15539.848Z" transform="translate(10417.284 -13349.758)" fill="#55d045"/>
    <path id="Linie_7176" data-name="Linie 7176" d="M14,1.5H0A1.5,1.5,0,0,1-1.5,0,1.5,1.5,0,0,1,0-1.5H14A1.5,1.5,0,0,1,15.5,0,1.5,1.5,0,0,1,14,1.5Z" transform="translate(783 2184)" fill="#55d045"/>
  </g>
</svg>
