<svg xmlns="http://www.w3.org/2000/svg" width="48" height="48" viewBox="0 0 48 48">
  <g id="Gruppe_2730" data-name="Gruppe 2730" transform="translate(1548 14635)">
    <rect id="Rechteck_2071" data-name="Rechteck 2071" width="48" height="48" transform="translate(-1548 -14635)" fill="none"/>
    <path id="Pfad_1136" data-name="Pfad 1136" d="M-9624.739,15539.809a1.5,1.5,0,0,1-1.061-.439,1.5,1.5,0,0,1,0-2.121l3.465-3.465-3.465-3.465a1.5,1.5,0,0,1,0-2.121,1.5,1.5,0,0,1,2.121,0l4.525,4.525a1.5,1.5,0,0,1,0,2.121l-4.525,4.525A1.5,1.5,0,0,1-9624.739,15539.809Z" transform="translate(-11146.744 922.648) rotate(180)" fill="#001e34"/>
  </g>
</svg>
