<svg xmlns="http://www.w3.org/2000/svg" width="15.5" height="15.5" viewBox="0 0 15.5 15.5">
  <g id="Gruppe_2344" data-name="Gruppe 2344" transform="translate(-1395.712 -355.712)">
    <path id="Linie_7190" data-name="Linie 7190" d="M0,13.75a1.745,1.745,0,0,1-1.237-.513,1.75,1.75,0,0,1,0-2.475l12-12a1.75,1.75,0,0,1,2.475,0,1.75,1.75,0,0,1,0,2.475l-12,12A1.745,1.745,0,0,1,0,13.75Z" transform="translate(1397.462 357.462)" fill="#001e34"/>
    <path id="Linie_7191" data-name="Linie 7191" d="M12,13.75a1.745,1.745,0,0,1-1.237-.513l-12-12a1.75,1.75,0,0,1,0-2.475,1.75,1.75,0,0,1,2.475,0l12,12A1.75,1.75,0,0,1,12,13.75Z" transform="translate(1397.462 357.462)" fill="#001e34"/>
  </g>
</svg>
