<?xml version="1.0" encoding="utf-8"?>
<!-- Generator: Adobe Illustrator 26.3.1, SVG Export Plug-In . SVG Version: 6.00 Build 0)  -->
<svg version="1.1" id="Ebene_1" xmlns="http://www.w3.org/2000/svg" xmlns:xlink="http://www.w3.org/1999/xlink" x="0px" y="0px"
	 viewBox="0 0 1920 50" style="enable-background:new 0 0 1920 50;" xml:space="preserve">
<style type="text/css">
	.st0{fill:#FFFFFF;}
</style>
<path id="Differenzmenge_58" class="st0" d="M1920,48H960.3c80.4,0,161.8-1,242.1-3c80-2,161-5.1,240.8-9.1c79.5-4,159.9-9,239.2-15
	c79-6,158.9-13,237.6-20.9 M954,48H0V0c78.7,7.9,158.6,14.9,237.6,20.9c79.3,6,159.8,11,239.2,15c79.8,4,160.8,7.1,240.8,9.1
	C795.9,46.9,875.4,48,954,48L954,48z M1920,50H0v-2h1920V50z"/>
</svg>
