<svg xmlns="http://www.w3.org/2000/svg" width="13.778" height="17" viewBox="0 0 13.778 17">
  <path id="Icon_feather-bookmark" data-name="Icon feather-bookmark" d="M18.778,20.25a1.249,1.249,0,0,1-.727-.233l-4.912-3.509L8.227,20.017A1.25,1.25,0,0,1,6.25,19V6.111A2.864,2.864,0,0,1,9.111,3.25h8.056a2.864,2.864,0,0,1,2.861,2.861V19a1.25,1.25,0,0,1-1.25,1.25Zm-5.639-6.528a1.248,1.248,0,0,1,.727.233l3.662,2.616V6.111a.362.362,0,0,0-.361-.361H9.111a.362.362,0,0,0-.361.361v10.46l3.662-2.616A1.248,1.248,0,0,1,13.139,13.722Z" transform="translate(-6.25 -3.25)" fill="#fff"/>
</svg>
