<svg xmlns="http://www.w3.org/2000/svg" width="17.021" height="21.999" viewBox="0 0 17.021 21.999">
  <path id="Vereinigungsmenge_17" data-name="Vereinigungsmenge 17" d="M-6282.2,14308.569l-5.29-4.048-5.29,4.048a2.017,2.017,0,0,1-1.207.409,2.039,2.039,0,0,1-.916-.223,2.058,2.058,0,0,1-1.1-1.832v-15.9a3.965,3.965,0,0,1,3.871-4.043h9.279a3.963,3.963,0,0,1,3.871,4.043v15.9a2.055,2.055,0,0,1-1.1,1.832,2.016,2.016,0,0,1-.916.223A2,2,0,0,1-6282.2,14308.569Z" transform="translate(6296.002 -14286.979)" fill="#fa6305"/>
</svg>
