<svg xmlns="http://www.w3.org/2000/svg" xmlns:xlink="http://www.w3.org/1999/xlink" width="3464" height="698" viewBox="0 0 3464 698">
  <defs>
    <clipPath id="clip-path">
      <rect id="Rechteck_1961" data-name="Rechteck 1961" width="3464" height="698" transform="translate(-272 72)" fill="#fff" stroke="#707070" stroke-width="1"/>
    </clipPath>
  </defs>
  <g id="Gruppe_maskieren_308" data-name="Gruppe maskieren 308" transform="translate(272 -72)" clip-path="url(#clip-path)">
    <g id="P1020331" transform="matrix(0.999, 0.035, -0.035, 0.999, 304.167, -800.162)" fill="#fff">
      <path d="M -560.4934692382812 1593.591674804688 C -558.3628540039062 1587.385131835938 -556.5494384765625 1578.681762695312 -554.9966430664062 1567.2568359375 C -552.99462890625 1552.52490234375 -551.4409790039062 1533.073120117188 -550.3786010742188 1509.442138671875 C -549.3679809570312 1486.95654296875 -548.7742919921875 1460.077880859375 -548.6142578125 1429.552490234375 C -548.4622802734375 1400.56884765625 -548.697265625 1367.5361328125 -549.3126220703125 1331.371826171875 C -551.4403076171875 1206.302856445312 -558.14697265625 1038.6328125 -569.2459716796875 833.0198364257812 C -573.60595703125 752.2498168945312 -578.66259765625 665.3568725585938 -584.2752685546875 574.7551879882812 C -588.765625 502.2745056152344 -593.6199340820312 427.2711791992188 -598.7033081054688 351.8285217285156 C -606.4545288085938 236.7978515625 -612.3991088867188 155.5653686523438 -613.6025390625 139.2295074462891 C -596.4922485351562 138.1190490722656 -507.9228515625 132.3981628417969 -376.0752868652344 124.3561782836914 C -240.824951171875 116.1068420410156 -31.08495140075684 103.6585083007812 200.0457153320312 91.20350646972656 C 459.82470703125 77.20484161376953 693.1220703125 66.05084228515625 893.4567260742188 58.05184173583984 C 1012.400024414062 53.30250930786133 1120.893432617188 49.6268424987793 1215.92333984375 47.12751007080078 C 1320.445068359375 44.37817764282227 1411.254028320312 42.98417663574219 1485.827392578125 42.98417663574219 C 1552.196411132812 42.98417663574219 1607.284057617188 44.09017562866211 1649.560424804688 46.27151107788086 C 1671.682739257812 47.412841796875 1690.733764648438 48.87184143066406 1706.183715820312 50.60750961303711 C 1722.010375976562 52.38584136962891 1734.460327148438 54.49750900268555 1743.187744140625 56.88484191894531 C 1753.505004882812 59.70684432983398 1763.306030273438 62.95951080322266 1772.3193359375 66.55217742919922 C 1781.1767578125 70.08317565917969 1789.541748046875 74.04950714111328 1797.181762695312 78.34184265136719 C 1804.676025390625 82.55217742919922 1811.702758789062 87.20450592041016 1818.066040039062 92.17050933837891 C 1824.299072265625 97.0341796875 1830.08935546875 102.3498458862305 1835.276733398438 107.9695129394531 C 1854.911010742188 129.2411804199219 1867.341674804688 156.1111755371094 1873.279052734375 190.1158447265625 C 1874.65576171875 197.99951171875 1875.705078125 206.4388427734375 1876.397705078125 215.1998443603516 C 1877.063354492188 223.6168365478516 1877.42333984375 232.628173828125 1877.467407226562 241.9838409423828 C 1877.549438476562 259.4158325195312 1876.57568359375 278.5091857910156 1874.49072265625 300.3548278808594 C 1870.577758789062 341.3495178222656 1863.246704101562 386.4641723632812 1855.485107421875 434.2278442382812 C 1848.592041015625 476.6478576660156 1841.463989257812 520.5121459960938 1835.782348632812 566.7591552734375 C 1832.7041015625 591.8175048828125 1830.367065429688 614.9691772460938 1828.638671875 637.536865234375 C 1826.708740234375 662.7362060546875 1825.557739257812 687.398193359375 1825.218017578125 710.8375244140625 C 1824.845092773438 736.5821533203125 1825.431762695312 761.9701538085938 1826.961669921875 786.2968139648438 C 1828.612426757812 812.5455322265625 1831.421752929688 838.536865234375 1835.31103515625 863.5491943359375 C 1837.355346679688 876.69384765625 1839.744995117188 889.8768310546875 1842.4140625 902.7318725585938 C 1845.163330078125 915.974853515625 1848.290771484375 929.2618408203125 1851.708740234375 942.2232055664062 C 1855.223022460938 955.550537109375 1859.1484375 968.925537109375 1863.375 981.9765014648438 C 1867.713989257812 995.3731689453125 1872.497436523438 1008.820190429688 1877.5927734375 1021.94384765625 C 1884.444091796875 1039.5908203125 1890.473999023438 1057.029541015625 1895.515014648438 1073.77587890625 C 1900.50732421875 1090.35986328125 1904.668334960938 1106.724853515625 1907.882690429688 1122.416870117188 C 1911.065063476562 1137.953491210938 1913.407348632812 1153.26123046875 1914.8447265625 1167.91455078125 C 1916.267700195312 1182.420532226562 1916.843383789062 1196.687866210938 1916.555419921875 1210.31982421875 C 1916.270385742188 1223.814208984375 1915.13134765625 1237.060546875 1913.170043945312 1249.690795898438 C 1911.228393554688 1262.195556640625 1908.4267578125 1274.44384765625 1904.8427734375 1286.09619140625 C 1901.293090820312 1297.63623046875 1896.877685546875 1308.912475585938 1891.71875 1319.612548828125 C 1886.607055664062 1330.21484375 1880.622680664062 1340.546508789062 1873.932373046875 1350.320556640625 C 1868.95068359375 1357.59814453125 1863.455688476562 1364.744873046875 1857.60009765625 1371.561157226562 C 1851.78076171875 1378.335815429688 1845.4423828125 1384.973876953125 1838.761352539062 1391.291137695312 C 1832.120361328125 1397.570556640625 1824.955322265625 1403.708129882812 1817.46533203125 1409.533569335938 C 1810.019775390625 1415.324462890625 1802.045043945312 1420.968505859375 1793.763427734375 1426.308837890625 C 1785.530395507812 1431.617553710938 1776.764038085938 1436.773803710938 1767.708374023438 1441.634887695312 C 1758.7060546875 1446.466796875 1749.1669921875 1451.141479492188 1739.356079101562 1455.52880859375 C 1719.907104492188 1464.226196289062 1698.587768554688 1472.153564453125 1675.990356445312 1479.0908203125 C 1653.665405273438 1485.944458007812 1629.49072265625 1492.016479492188 1604.138671875 1497.138549804688 C 1579.093994140625 1502.198120117188 1552.226440429688 1506.466552734375 1524.282104492188 1509.8251953125 C 1496.675048828125 1513.143188476562 1467.276733398438 1515.662475585938 1436.902709960938 1517.312866210938 C 1406.9169921875 1518.942138671875 1375.173217773438 1519.76806640625 1342.56201171875 1519.768188476562 C 1342.534057617188 1519.768188476562 1342.510986328125 1519.768188476562 1342.483032226562 1519.768188476562 C 1312.740356445312 1519.766845703125 1281.50244140625 1519.078125 1249.63671875 1517.721801757812 C 1218.103393554688 1516.379516601562 1185.112670898438 1514.34716796875 1151.580322265625 1511.68115234375 C 1118.384033203125 1509.041870117188 1083.771362304688 1505.711547851562 1048.7041015625 1501.781860351562 C 1013.971374511719 1497.889892578125 977.868408203125 1493.306884765625 941.3980712890625 1488.16015625 C 896.8460693359375 1481.873168945312 851.6650390625 1476.330810546875 807.109375 1471.687133789062 C 763.8873901367188 1467.182861328125 720.0670776367188 1463.400146484375 676.8653564453125 1460.44482421875 C 635.0223999023438 1457.58251953125 592.6116943359375 1455.41748046875 550.8117065429688 1454.009887695312 C 510.396728515625 1452.649169921875 469.4447021484375 1451.959228515625 429.0940551757812 1451.959228515625 C 376.6333923339844 1451.959228515625 323.536376953125 1453.12646484375 271.2770385742188 1455.428466796875 C 221.6720428466797 1457.614135742188 171.5043792724609 1460.8798828125 122.1683807373047 1465.135864257812 C 75.55805206298828 1469.156494140625 28.45871543884277 1474.166870117188 -17.82161903381348 1480.02783203125 C -61.29595184326172 1485.533203125 -105.1892852783203 1491.933837890625 -148.282958984375 1499.051879882812 C -188.4769592285156 1505.690795898438 -229.0262908935547 1513.127563476562 -268.8046264648438 1521.155517578125 C -305.5702819824219 1528.5751953125 -342.6372985839844 1536.69384765625 -378.9759521484375 1545.285888671875 C -412.1569519042969 1553.131225585938 -445.6036071777344 1561.577514648438 -478.386962890625 1570.390502929688 C -505.7471008300781 1577.745361328125 -533.3356323242188 1585.54150390625 -560.4934692382812 1593.591674804688 Z" stroke="none"/>
      <path d="M -556.186767578125 1589.190185546875 C -240.4496307373047 1496.131713867188 90.96428680419922 1448.959228515625 429.0940551757812 1448.959228515625 C 598.955078125 1448.959228515625 771.4600219726562 1461.148803710938 941.8170776367188 1485.189819335938 C 1090.262329101562 1506.138549804688 1225.066040039062 1516.762817382812 1342.568725585938 1516.768188476562 C 1617.138671875 1516.7578125 1795.080688476562 1460.175903320312 1871.452758789062 1348.594116210938 C 1926.384765625 1268.336791992188 1927.509399414062 1158.801147460938 1874.796020507812 1023.029846191406 C 1791.591064453125 808.7225341796875 1825.376708984375 600.8085327148438 1852.524047851562 433.7465209960938 C 1883.5810546875 242.6235046386719 1906.020385742188 104.5341796875 1742.396362304688 59.77851104736328 C 1708.932373046875 50.62517547607422 1622.6103515625 45.98417663574219 1485.827392578125 45.98417663574219 C 887.7346801757812 45.98417663574219 -506.4410095214844 135.3106384277344 -610.3866577148438 142.0279998779297 C -602.42138671875 250.0276947021484 -516.3809814453125 1432.806762695312 -556.186767578125 1589.190185546875 M -565.768310546875 1598.290893554688 C -514.9649658203125 1507.144165039062 -616.8172607421875 136.4321746826172 -616.8172607421875 136.4321746826172 C -616.8172607421875 136.4321746826172 860.1554565429688 39.9842643737793 1485.827392578125 39.9842643737793 C 1614.849487304688 39.9842643737793 1707.7880859375 44.09188079833984 1743.979370117188 53.99117660522461 C 2060.141357421875 140.4698486328125 1703.108032226562 564.2431640625 1880.389404296875 1020.858154296875 C 2019.269165039062 1378.564086914062 1777.661499023438 1522.787109375 1342.48291015625 1522.76806640625 C 1222.151977539062 1522.7626953125 1086.941162109375 1511.729125976562 940.9786987304688 1491.130859375 C 759.4407348632812 1465.512329101562 588.2966918945312 1454.958984375 429.0939025878906 1454.958984375 C -2.63636302947998 1454.958984375 -345.9227905273438 1532.655517578125 -565.768310546875 1598.290893554688 Z" stroke="none" fill="#eae22a"/>
    </g>
  </g>
</svg>
