<svg xmlns="http://www.w3.org/2000/svg" width="57.682" height="44" viewBox="0 0 57.682 44">
  <path id="Pfad_1078" data-name="Pfad 1078" d="M17.336-68.075C9.1-60.768,4.12-51.439,4.12-41.178c0,10.106,6.53,15.859,13.837,15.859A12.41,12.41,0,0,0,30.24-37.6c0-6.686-4.664-11.194-10.572-11.194a7.647,7.647,0,0,0-3.11.466c.933-3.887,4.042-8.4,7.774-11.816A5.524,5.524,0,0,0,26.2-64.188a5.349,5.349,0,0,0-5.442-5.131A4.84,4.84,0,0,0,17.336-68.075Zm31.562,0c-8.24,7.307-13.06,16.636-13.06,26.9,0,10.106,6.375,15.859,13.682,15.859A12.309,12.309,0,0,0,61.8-37.6c0-6.686-4.664-11.194-10.417-11.194a7.647,7.647,0,0,0-3.11.466c.777-3.887,4.042-8.4,7.774-11.816a5.39,5.39,0,0,0,1.71-4.042,5.211,5.211,0,0,0-5.286-5.131A5.544,5.544,0,0,0,48.9-68.075Z" transform="translate(61.802 -25.319) rotate(180)" fill="#55d045"/>
</svg>
