<svg xmlns="http://www.w3.org/2000/svg" xmlns:xlink="http://www.w3.org/1999/xlink" width="3846" height="300" viewBox="0 0 3846 300">
  <defs>
    <clipPath id="clip-path">
      <rect id="Rechteck_2099" data-name="Rechteck 2099" width="3846" height="300" transform="translate(7561.001 -2380.002)" fill="#fff"/>
    </clipPath>
  </defs>
  <g id="Gruppe_maskieren_393" data-name="Gruppe maskieren 393" transform="translate(-7561.001 2380.002)" clip-path="url(#clip-path)">
    <ellipse id="Ellipse_9191" data-name="Ellipse 9191" cx="9482" cy="9484.904" rx="9482" ry="9484.904" transform="translate(437.001 -2379.002)" fill="#fff"/>
    <g id="Pfad_1155" data-name="Pfad 1155" transform="translate(437.001 -2364.002)" fill="none">
      <path d="M9482,0c5236.764,0,9482,4246.537,9482,9484.9s-4245.236,9484.9-9482,9484.9S0,14723.271,0,9484.9,4245.236,0,9482,0Z" stroke="none"/>
      <path d="M 9482 6 C 8202.7451171875 6 6961.759765625 256.619140625 5793.5166015625 750.896484375 C 4665.12109375 1228.314453125 3651.71875 1911.77734375 2781.45703125 2782.306640625 C 1911.1953125 3652.8349609375 1227.94140625 4666.546875 750.669921875 5795.2880859375 C 256.54296875 6963.892578125 6 8205.2568359375 6 9484.904296875 C 6 10764.5517578125 256.54296875 12005.916015625 750.669921875 13174.521484375 C 1227.94140625 14303.26171875 1911.1953125 15316.9736328125 2781.45703125 16187.501953125 C 3651.71875 17058.03125 4665.12109375 17741.494140625 5793.5166015625 18218.912109375 C 6961.759765625 18713.189453125 8202.7451171875 18963.80859375 9482 18963.80859375 C 10761.2548828125 18963.80859375 12002.240234375 18713.189453125 13170.4833984375 18218.912109375 C 14298.87890625 17741.494140625 15312.28125 17058.03125 16182.54296875 16187.501953125 C 17052.8046875 15316.9736328125 17736.05859375 14303.26171875 18213.330078125 13174.521484375 C 18707.45703125 12005.916015625 18958 10764.5517578125 18958 9484.904296875 C 18958 8205.2568359375 18707.45703125 6963.892578125 18213.330078125 5795.2880859375 C 17736.05859375 4666.546875 17052.8046875 3652.8349609375 16182.54296875 2782.306640625 C 15312.28125 1911.77734375 14298.87890625 1228.314453125 13170.4833984375 750.896484375 C 12002.240234375 256.619140625 10761.2548828125 6 9482 6 M 9482 0 C 14718.763671875 0 18964 4246.5380859375 18964 9484.904296875 C 18964 14723.271484375 14718.763671875 18969.80859375 9482 18969.80859375 C 4245.2353515625 18969.80859375 0 14723.271484375 0 9484.904296875 C 0 4246.5380859375 4245.2353515625 0 9482 0 Z" stroke="none" fill="#b23cdf"/>
    </g>
  </g>
</svg>
