<svg height="344.5" viewBox="0 0 245.5 344.5" width="245.5" xmlns="http://www.w3.org/2000/svg"><path d="m138 6c77 0 125.5-40.5 125.5-97 0-51.5-45-78-77.5-81 34.5-6 72.5-32 72.5-76.5 0-56-48.5-90-120.5-90-45 0-80 15-106.5 37.5-5 4.5-9 11-9 18.5a24.54 24.54 0 0 0 24.5 24.5 25.708 25.708 0 0 0 15-5c21-15.5 44-23.5 70.5-23.5 37.5 0 67.5 16 67.5 47 0 30.5-29.5 44-68.5 44h-15.5c-14 0-26 11.5-26 25.5a26.141 26.141 0 0 0 26 26h15.5c47.5 0 74 14 74 47 0 31-25.5 51-69.5 51a127.884 127.884 0 0 1 -76.5-25.5 25.5 25.5 0 0 0 -15.5-5.5 25.822 25.822 0 0 0 -26 26 26.582 26.582 0 0 0 9 19.5c26 22 63.5 37.5 111 37.5z" fill="#55d045" opacity=".08" transform="translate(-18 338.5)"/></svg>