<svg height="339.5" viewBox="0 0 244 339.5" width="244" xmlns="http://www.w3.org/2000/svg"><path d="m44.5-28.5c27 22 61.5 34.5 107.5 34.5 74.5 0 127-43.5 127-113 0-68-50.5-107.5-106.5-107.5-32 0-59.5 13-75.5 29v-96.5h137c14 0 26-11.5 26-25.5a26.141 26.141 0 0 0 -26-26h-164.5c-20 0-31 11-31 31v134.5a32.224 32.224 0 0 0 32 32 31.794 31.794 0 0 0 20.5-7c18.5-15 38.5-21 62-21 41 0 67 23.5 67 59.5 0 32.5-26.5 58.5-68.5 58.5q-42.75 0-73.5-24a27.279 27.279 0 0 0 -16.5-5.5 26.354 26.354 0 0 0 -26.5 26.5 27.526 27.526 0 0 0 9.5 20.5z" fill="#eae22a" opacity=".1" transform="translate(-35 333.5)"/></svg>