<svg height="387.901" viewBox="0 0 310.905 387.901" width="310.905" xmlns="http://www.w3.org/2000/svg"><g fill="none" transform="translate(-2982.537 13893.27)"><path d="m3000.018-13599.828c60.1 177.671 276.728 70.961 290.333-44.914s-15.574-198.687-130.468-241.267-219.96 108.509-159.865 286.181z"/><path d="m3117.98583984-13510.36816406c9.27709961 0 18.89819336-.99609375 28.59594727-2.95996094 9.42749023-1.90917969 18.99560547-4.74609375 28.43823242-8.43066406 9.25341797-3.61132813 18.4230957-8.05078125 27.25366211-13.1953125 8.74194336-5.09277344 17.16625977-10.88378907 25.03881836-17.21289063 7.88183594-6.33691406 15.21826172-13.21777344 21.80566406-20.453125 6.66699219-7.32324219 12.58007813-15.02539062 17.57519532-22.89160156 5.1015625-8.03417969 9.26879882-16.27929688 12.38623046-24.50585938 3.20605469-8.4609375 5.32763672-16.97558593 6.30615235-25.30761718 1.70776367-14.54492188 2.71044922-28.47753907 2.97973633-41.41015625.27880859-13.38867188-.21728516-26.19824219-1.47485352-38.07519532-1.29296875-12.21386718-3.43652344-23.87207031-6.37084961-34.65136718-3.00390625-11.03417969-6.94042969-21.52832032-11.69995117-31.18945313-4.86279297-9.87207031-10.7512207-19.21191406-17.50146484-27.76171875-6.8972168-8.73632812-14.92651368-16.94140625-23.86499024-24.38769531-9.13232422-7.60839844-19.51342773-14.67382813-30.85473633-21.00195313-11.56811523-6.45507812-24.50537109-12.34863281-38.45239258-17.51757812-12.44213867-4.61132813-25.06176757-6.94921875-37.50854492-6.94921875-9.01074218 0-18.00927734 1.23046875-26.74536133 3.65625-8.57836914 2.38183594-17.00659179 5.9453125-25.05004882 10.58984375-7.97924805 4.60644531-15.65844727 10.32324219-22.82470703 16.98925781-7.17407227 6.67285156-13.8959961 14.35644531-19.97924805 22.8359375-9.57055664 13.33984375-17.55981445 28.59863281-23.74609375 45.35058594-6.3918457 17.30957031-10.76855469 35.98632812-13.00854492 55.51171875-2.34741211 20.46289062-2.32836914 41.75.0571289 63.27050781 2.5234375 22.76464844 7.70922852 45.85742188 15.41357422 68.63476563 10.56689453 31.24121093 26.5625 54.91308593 47.54272461 70.35839843 9.48754883 6.984375 20.03686524 12.28222657 31.35498047 15.74414063 10.75463867 3.29003906 22.30200195 4.95800781 34.32202148 4.95996094zm-.01220703 5c-48.81738281-.00488282-94.90625-26.31542969-117.9555664-94.45996094-53.14477539-157.12109375 22.86254882-293.44140625 120.6196289-293.44140625 12.78564453 0 25.95727539 2.3359375 39.24609375 7.26074219 114.89404297 42.58007812 144.07373047 125.39160156 130.46777344 241.26660156-8.38745117 71.43164062-93.91625977 139.38085937-172.37792969 139.37402344z" fill="#001e34"/></g></svg>