<svg height="578" viewBox="0 0 405 578" width="405" xmlns="http://www.w3.org/2000/svg" xmlns:xlink="http://www.w3.org/1999/xlink"><clipPath id="a"><path d="m486-6152h405v578h-405z"/></clipPath><path d="m472.326 606.739h-405v-578h405zm-211.842-570.979a160.911 160.911 0 0 0 -34.639 3.977 227.722 227.722 0 0 0 -37.862 12.19c-24.7 10.265-45.839 26.676-62.817 48.778a191.736 191.736 0 0 0 -21.313 35.316 242.642 242.642 0 0 0 -14.732 40.986 303.81 303.81 0 0 0 -7.886 42.082 365.719 365.719 0 0 0 -2.4 44.959 421.4 421.4 0 0 0 3 46.866 462.456 462.456 0 0 0 8.311 47.8 481.977 481.977 0 0 0 32.191 94.54 446.172 446.172 0 0 0 52.351 86.655c16.259 20.948 34.333 36.863 53.72 47.3a119.135 119.135 0 0 0 56.97 14.708h.012a123.745 123.745 0 0 0 33.43-4.7 146.522 146.522 0 0 0 32.1-13.455 179.393 179.393 0 0 0 29.828-21.213 214.938 214.938 0 0 0 26.636-27.977c22.875-28.7 39.725-63.78 48.728-101.455a271.885 271.885 0 0 0 .644-123.936c-4.824-21.081-9.959-41.1-15.263-59.51-5.5-19.07-11.353-37.034-17.409-53.392-6.251-16.883-12.914-32.6-19.807-46.714a338.186 338.186 0 0 0 -22.455-39.477 223.512 223.512 0 0 0 -25.355-31.679 168.842 168.842 0 0 0 -13.844-12.74 144.94 144.94 0 0 0 -14.663-10.578 129.845 129.845 0 0 0 -15.514-8.352 122.254 122.254 0 0 0 -33.704-9.739 132.883 132.883 0 0 0 -18.254-1.244z" fill="#fff" transform="translate(-67.326 -28.738)"/><g clip-path="url(#a)" transform="translate(-486 6152)"><path d="m374.094 11.418c66.7 0 119.122 23.136 151.585 66.908 32.524 43.853 44.075 87.026 34.333 128.319-15.8 66.974-87.756 132.123-219.978 199.17a276.421 276.421 0 0 1 -124.434 29.693c-87.647 0-166.606-41.319-196.479-102.816-22.727-46.792-13.821-99.806 25.086-149.276 80.9-102.871 213.481-171.998 329.887-171.998zm-158.494 418.09a270.393 270.393 0 0 0 121.718-29.045c130.55-66.2 201.483-130.047 216.852-195.2 9.449-40.05-1.448-80.4-33.313-123.368-31.286-42.184-82.037-64.482-146.766-64.482-112.872.005-246.591 69.787-325.168 169.712-37.407 47.566-46.074 98.332-24.4 142.945 28.89 59.477 105.677 99.438 191.077 99.438z" fill="#55d045" stroke="#fff" stroke-width="25" transform="matrix(.2419219 -.97029573 .97029573 .2419219 402.776 -5640.637)"/><path d="m523.27 80.113c-94.006-126.752-348.094-58.382-476.705 105.158s106.307 312.085 292.113 217.868 278.599-196.275 184.592-323.026z" fill="none" stroke="#55d045" stroke-width="6" transform="matrix(.2419219 -.97029573 .97029573 .2419219 403.158 -5640.226)"/></g></svg>