<svg height="578.001" viewBox="0 0 405 578.001" width="405" xmlns="http://www.w3.org/2000/svg" xmlns:xlink="http://www.w3.org/1999/xlink"><clipPath id="a"><path d="m635-9259h405v578h-405z"/></clipPath><g transform="translate(-635 9259)"><path d="m454.507 602.3h-404v-577h404zm-192.235-570.681a172.808 172.808 0 0 0 -26.611 2.11 198.745 198.745 0 0 0 -27.6 6.423 235.665 235.665 0 0 0 -28.431 10.876 284.89 284.89 0 0 0 -29.11 15.464 198.463 198.463 0 0 0 -20.25 14.031 184.66 184.66 0 0 0 -17.489 15.736 179.434 179.434 0 0 0 -14.85 17.28 181.841 181.841 0 0 0 -12.331 18.661 198.514 198.514 0 0 0 -17.6 40.834 242.05 242.05 0 0 0 -9 44.438c-3.184 29.009-1.914 60.581 3.773 93.84a453.19 453.19 0 0 0 10.769 47.2c4.329 15.244 9.516 30.623 15.417 45.709 5.717 14.616 12.146 29.07 19.109 42.961 6.81 13.585 14.161 26.691 21.847 38.953a380.758 380.758 0 0 0 23.629 33.688 265.107 265.107 0 0 0 24.456 27.164 221.877 221.877 0 0 0 26.206 21.567 182.973 182.973 0 0 0 27.561 15.962 148.926 148.926 0 0 0 28.3 9.908 123.765 123.765 0 0 0 28.412 3.405h.015a109.3 109.3 0 0 0 52.494-13.277c17.243-9.314 32.836-23.427 46.344-41.949a218.81 218.81 0 0 0 19.506-32.713 308.77 308.77 0 0 0 16.34-41.064 437.957 437.957 0 0 0 12.622-49.809c3.579-18.342 6.4-38.176 8.384-58.951a560.833 560.833 0 0 0 1.782-87.381 420.184 420.184 0 0 0 -11.374-75.913 305.213 305.213 0 0 0 -23.053-63.156 220.09 220.09 0 0 0 -33.261-49.116c-15.562-17.12-33.313-30.329-52.761-39.26a150.428 150.428 0 0 0 -63.23-13.625z" fill="#fff" transform="translate(584.493 -9283.302)"/><g clip-path="url(#a)"><path d="m353.441-3h.01c61.431 0 111.873 22.041 149.923 65.5 54.19 61.9 70.372 129.585 45.566 190.591-34.69 85.314-141.5 143.09-285.707 154.553-17.333 1.378-34.174 2.076-50.057 2.076-102.138 0-174.139-29.453-202.739-82.933-23.378-43.71-16.177-99.654 19.757-153.482 56.839-85.142 200.294-176.305 323.247-176.305zm-140.265 406.725c15.725 0 32.407-.692 49.582-2.057 141.901-11.279 246.807-67.668 280.624-150.832 23.907-58.8 8.1-124.275-44.523-184.379-36.859-42.105-85.783-63.457-145.409-63.457-119.25 0-263.437 91.505-318.265 173.636-34.666 51.928-41.758 105.627-19.457 147.327 27.506 51.437 97.628 79.762 197.448 79.762z" fill="#eae22a" stroke="#fff" stroke-width="25" transform="matrix(.174 -.985 .985 .174 584.993 -8735.004)"/><path d="m501.117 64.481c-132.853-151.753-392.791-2.812-468.428 110.49s-28.395 250.251 230.311 229.688 370.97-188.425 238.117-340.178z" fill="none" stroke="#eae22a" stroke-width="6" transform="matrix(.174 -.985 .985 .174 584.993 -8735.004)"/></g></g></svg>