<svg height="578.001" viewBox="0 0 405 578.001" width="405" xmlns="http://www.w3.org/2000/svg" xmlns:xlink="http://www.w3.org/1999/xlink"><clipPath id="a"><path d="m0 0h405v578h-405z"/></clipPath><path d="m405 0h-405v578h405zm-211.843 570.979a160.913 160.913 0 0 1 -34.639-3.979 227.722 227.722 0 0 1 -37.862-12.19c-24.7-10.265-45.839-26.676-62.817-48.778a191.734 191.734 0 0 1 -21.313-35.316 242.643 242.643 0 0 1 -14.732-40.986 303.811 303.811 0 0 1 -7.886-42.082 365.718 365.718 0 0 1 -2.4-44.959 421.4 421.4 0 0 1 3-46.866 462.456 462.456 0 0 1 8.311-47.8 481.977 481.977 0 0 1 32.191-94.54 446.172 446.172 0 0 1 52.351-86.655c16.259-20.948 34.333-36.863 53.72-47.3a119.135 119.135 0 0 1 56.97-14.708h.012a123.745 123.745 0 0 1 33.43 4.7 146.522 146.522 0 0 1 32.1 13.455 179.393 179.393 0 0 1 29.828 21.213 214.938 214.938 0 0 1 26.636 27.977c22.875 28.7 39.725 63.78 48.728 101.455a273.376 273.376 0 0 1 7.467 60.38 271.63 271.63 0 0 1 -6.822 63.559c-4.824 21.081-9.959 41.1-15.263 59.51-5.5 19.07-11.353 37.034-17.409 53.392-6.251 16.883-12.914 32.6-19.807 46.714a338.187 338.187 0 0 1 -22.451 39.473 223.51 223.51 0 0 1 -25.355 31.679 168.847 168.847 0 0 1 -13.844 12.74 144.948 144.948 0 0 1 -14.663 10.581 129.849 129.849 0 0 1 -15.517 8.352 122.254 122.254 0 0 1 -33.7 9.735 132.887 132.887 0 0 1 -18.254 1.244z" fill="#fff" transform="matrix(-1 0 0 -1 405 578.001)"/><g clip-path="url(#a)"><path d="m367.294 424.09c66.7 0 119.122-23.136 151.585-66.908 32.524-43.853 44.075-87.026 34.333-128.319-15.8-66.974-87.756-132.123-219.978-199.17a276.421 276.421 0 0 0 -124.434-29.693c-87.643 0-166.6 41.319-196.475 102.816-22.73 46.792-13.825 99.806 25.082 149.276 80.9 102.871 213.482 171.998 329.887 171.998zm-158.494-418.09a270.393 270.393 0 0 1 121.722 29.045c130.55 66.2 201.483 130.047 216.852 195.2 9.449 40.05-1.448 80.4-33.313 123.368-31.286 42.184-82.037 64.482-146.766 64.482-112.876-.005-246.595-69.795-325.171-169.712-37.408-47.567-46.074-98.332-24.403-142.945 28.892-59.477 105.679-99.438 191.079-99.438z" fill="#55d045" stroke="#fff" stroke-width="25" transform="matrix(-.2419219 -.97029573 .97029573 -.2419219 64.007 610.125)"/><path d="m513.55 352.4c-94.006 126.747-348.094 58.377-476.705-105.163s106.307-312.085 292.113-217.868 278.599 196.275 184.592 323.031z" fill="none" stroke="#de332a" stroke-width="6" transform="matrix(-.2419219 -.97029573 .97029573 -.2419219 65.829 606.976)"/></g></svg>