<svg height="578" viewBox="0 0 405 578" width="405" xmlns="http://www.w3.org/2000/svg" xmlns:xlink="http://www.w3.org/1999/xlink"><clipPath id="a"><path d="m4 74h405v578h-405z"/></clipPath><path d="m449 603h-404v-577h404zm-210.876-569.975a168.929 168.929 0 0 0 -64.824 12.469 160.428 160.428 0 0 0 -56.7 39.773c-24.188 26.12-41.97 61.215-52.854 104.311-2.883 11.415-5.31 23.543-7.214 36.048-1.952 12.824-3.406 26.388-4.322 40.316-.939 14.278-1.337 29.326-1.185 44.725.157 15.78.9 32.358 2.2 49.273a480.278 480.278 0 0 0 8.116 59.241 349.591 349.591 0 0 0 13.899 49.719 259.8 259.8 0 0 0 18.837 40.694 201.626 201.626 0 0 0 22.923 32.169c15.824 18 34.236 31.717 54.726 40.779a147.953 147.953 0 0 0 30.105 9.61 153.8 153.8 0 0 0 30.8 3.092 164.519 164.519 0 0 0 31.531-3.094 175.416 175.416 0 0 0 30.449-8.92 181.46 181.46 0 0 0 53.965-33.13 173.048 173.048 0 0 0 21.662-23.12 161.55 161.55 0 0 0 16.886-26.761 151.2 151.2 0 0 0 11.187-29.857 146.944 146.944 0 0 0 4.564-32.407 535.97 535.97 0 0 1 8.635-80.7c4.441-24.634 9.851-46.738 15.083-68.115 5.078-20.749 9.875-40.346 12.756-58.632 3.2-20.32 3.706-36.871 1.589-52.087a116.131 116.131 0 0 0 -18.4-48.579 160.457 160.457 0 0 0 -19.452-23.923 248.9 248.9 0 0 0 -27.758-24.185 253.208 253.208 0 0 0 -31.728-20.486 244.2 244.2 0 0 0 -34.08-15.314 224.92 224.92 0 0 0 -35.473-9.591 200.5 200.5 0 0 0 -35.906-3.319z" fill="#fff" transform="translate(-45 -26)"/><g clip-path="url(#a)" transform="translate(-4 -74)"><path d="m381.211 418.877c-35.641 0-71.113-15.611-112.188-33.686-39.68-17.462-84.654-37.254-141.832-49.007-80.091-16.463-138.103-100.159-129.314-186.571 9.723-95.562 91.713-152.613 219.331-152.613 15.425 0 31.718.83 48.427 2.467 155.635 15.252 257.5 71.555 286.83 158.533 23.394 69.379-2.92 152.66-67.038 212.168-35.803 33.232-68.919 48.709-104.216 48.709zm-164.003-415.877c-184.081 0-209.849 112.684-213.361 147.22-8.487 83.439 47.387 164.225 124.553 180.087 57.8 11.881 103.087 31.81 143.041 49.392 40.454 17.8 75.392 33.178 109.771 33.178 33.691 0 65.509-14.967 100.134-47.1 62.391-57.905 88.076-138.708 65.434-205.853-28.532-84.615-128.585-139.478-281.73-154.485-16.515-1.618-32.611-2.439-47.842-2.439z" fill="#b23cdf" stroke="#fff" stroke-width="25" transform="matrix(-.174 -.985 .985 -.174 56.851 670.6)"/><path d="m483.386 367.973c-118.654 110.127-182.986.753-355.591-34.728s-209.022-364.753 137.547-330.792 336.697 255.397 218.044 365.52z" fill="none" stroke="#b23cdf" stroke-width="6" transform="matrix(-.174 -.985 .985 -.174 56.385 670.177)"/></g></svg>