<svg xmlns="http://www.w3.org/2000/svg" width="38" height="38" viewBox="0 0 38 38">
  <g id="Gruppe_1666" data-name="Gruppe 1666" transform="translate(-147 -127)">
    <rect id="Rechteck_1470" data-name="Rechteck 1470" width="38" height="38" transform="translate(147 127)" fill="rgba(255,255,255,0)"/>
    <path id="Icon_material-all-inclusive" data-name="Icon material-all-inclusive" d="M24.7,9.93a7.08,7.08,0,0,0-5.006,2.032l-3.758,3.333-2.018,1.779h.013l-3.572,3.174a4.5,4.5,0,1,1-3.187-7.662,4.514,4.514,0,0,1,3.24,1.368l1.5,1.328L13.917,13.5l-1.673-1.474a7.144,7.144,0,1,0-.066,10.159l3.758-3.32.013.013,2.005-1.806h-.013L21.513,13.9A4.5,4.5,0,1,1,24.7,21.563,4.537,4.537,0,0,1,21.46,20.2l-1.514-1.341-2.005,1.779,1.686,1.487A7.157,7.157,0,1,0,24.7,9.93Z" transform="translate(150.064 128.57)" fill="#001e34" stroke="#001e34" stroke-width="0.5"/>
  </g>
</svg>
