<svg xmlns="http://www.w3.org/2000/svg" width="38" height="38" viewBox="0 0 38 38">
  <g id="Gruppe_2528" data-name="Gruppe 2528" transform="translate(-209 -176)">
    <rect id="Rechteck_1969" data-name="Rechteck 1969" width="38" height="38" transform="translate(209 176)" fill="rgba(255,255,255,0)"/>
    <g id="Gruppe_1966" data-name="Gruppe 1966" transform="translate(210.25 184.512)">
      <path id="Rechteck_1169" data-name="Rechteck 1169" d="M4.841-1.25H16.478a6.1,6.1,0,0,1,6.091,6.091,3.185,3.185,0,0,1-3.181,3.181H1.931A3.185,3.185,0,0,1-1.25,4.841,6.1,6.1,0,0,1,4.841-1.25ZM19.388,5.539a.7.7,0,0,0,.7-.7,3.611,3.611,0,0,0-3.607-3.607H4.841A3.611,3.611,0,0,0,1.234,4.841a.7.7,0,0,0,.7.7Z" transform="translate(0 14.545)" fill="#001e34"/>
      <path id="Rechteck_1170" data-name="Rechteck 1170" d="M4.959-1.25A6.209,6.209,0,1,1-1.25,4.959,6.216,6.216,0,0,1,4.959-1.25Zm0,9.934A3.725,3.725,0,1,0,1.234,4.959,3.73,3.73,0,0,0,4.959,8.684Z" transform="translate(5.534 -0.262)" fill="#001e34"/>
      <path id="Rechteck_1711" data-name="Rechteck 1711" d="M4.841-1.25A6.091,6.091,0,1,1-1.25,4.841,6.1,6.1,0,0,1,4.841-1.25Zm0,9.7A3.607,3.607,0,1,0,1.234,4.841,3.611,3.611,0,0,0,4.841,8.448Z" transform="translate(19.881 -0.002)" fill="#001e34"/>
      <path id="Icon_material-group" data-name="Icon material-group" d="M28.773,21.3c.417,0,.827,0,1.312,0,.69,0,1.549.007,2.8.007a5.744,5.744,0,0,1,3.777,1.3,7.094,7.094,0,0,1,2.08,3.148,3.616,3.616,0,0,1-.3,3.427,3.328,3.328,0,0,1-2.532,1.432H35.9c-.325,0-1.119,0-2.359,0-2.133,0-4.846,0-4.846,0a1.242,1.242,0,0,1-1.24-1.234c-.019-3.029-.437-4.9-1.353-6.058a1.242,1.242,0,0,1,.958-2.012C27.685,21.3,28.214,21.3,28.773,21.3Zm7.086,6.831a.929.929,0,0,0,.558-.388,1.329,1.329,0,0,0-.014-1.153,4.672,4.672,0,0,0-1.328-2.072,3.284,3.284,0,0,0-2.191-.723c-1.257,0-2.119,0-2.812-.007l-.923,0a14.314,14.314,0,0,1,.756,4.348l3.631,0C34.746,28.135,35.527,28.134,35.859,28.132Z" transform="translate(-2.372 -8.003)" fill="#001e34"/>
    </g>
  </g>
</svg>
