<svg xmlns="http://www.w3.org/2000/svg" xmlns:xlink="http://www.w3.org/1999/xlink" width="3841" height="906" viewBox="0 0 3841 906">
  <defs>
    <clipPath id="clip-path">
      <rect id="Rechteck_2020" data-name="Rechteck 2020" width="3841" height="906" transform="translate(2155.5 -18364.5)" fill="#fff"/>
    </clipPath>
    <clipPath id="clip-path-2">
      <path id="P1020331" d="M1393.063,314.266c-124.59,859.45-546.9,153.566-970.609,480.7S-169.68-10.359,432.106-221.749,1517.653-545.183,1393.063,314.266Z" transform="matrix(0.438, 0.899, -0.899, 0.438, 1458.242, -503.147)" fill="#fff" stroke="#fa6305" stroke-width="6"/>
    </clipPath>
  </defs>
  <g id="Gruppe_maskieren_365" data-name="Gruppe maskieren 365" transform="translate(-2155.5 18364.5)" clip-path="url(#clip-path)">
    <g id="Gruppe_2571" data-name="Gruppe 2571">
      <path id="Differenzmenge_57" data-name="Differenzmenge 57" d="M3841.5,1630.907H.5v-906H1738.853a157.243,157.243,0,0,0,4.807,21.744,159.391,159.391,0,0,0,8.007,21.224,169.845,169.845,0,0,0,11.322,20.614,189.99,189.99,0,0,0,14.75,19.91,221.306,221.306,0,0,0,18.293,19.12,265.36,265.36,0,0,0,21.953,18.234c7.965,5.94,16.621,11.748,25.727,17.263,9.245,5.6,19.209,11.05,29.615,16.2,201.341,99.64,243.564,276.6,280.817,432.721l.007.026c10.024,42.011,19.493,81.693,31.626,118.459a471.644,471.644,0,0,0,20.488,52.422c3.927,8.394,8.088,16.433,12.368,23.9,4.475,7.8,9.235,15.241,14.151,22.12a225.631,225.631,0,0,0,16.2,20.171,203.918,203.918,0,0,0,18.534,18.046,196.921,196.921,0,0,0,21.134,15.748,204.836,204.836,0,0,0,24.009,13.276,228.5,228.5,0,0,0,27.159,10.629,270.939,270.939,0,0,0,30.578,7.807,336.146,336.146,0,0,0,34.274,4.812c12.115,1.09,24.982,1.642,38.244,1.642h.045a593.548,593.548,0,0,0,62.757-3.574c22.616-2.425,46.982-6.146,72.421-11.062,25.966-5.017,53.857-11.433,82.9-19.073,29.591-7.782,61.281-17.07,94.191-27.605,40.106-12.839,78.389-26.228,113.786-39.793,34.936-13.388,68.063-27.334,98.465-41.451,29.981-13.921,58.178-28.411,83.81-43.068,12.674-7.248,24.994-14.693,36.618-22.13,11.537-7.38,22.709-14.957,33.205-22.519,10.424-7.51,20.475-15.215,29.875-22.9,9.33-7.631,18.289-15.465,26.629-23.284,8.272-7.757,16.167-15.717,23.467-23.659,7.238-7.877,14.1-15.962,20.387-24.03,6.23-7.992,12.082-16.2,17.393-24.4,5.252-8.108,10.125-16.437,14.48-24.756,4.311-8.236,8.231-16.685,11.651-25.113,3.388-8.344,6.385-16.911,8.907-25.463a269.8,269.8,0,0,0,6.455-26.926,274.3,274.3,0,0,0,3.656-27.3c.754-9.062,1.073-18.369.948-27.662-.122-9.176-.68-18.6-1.66-28.021-.967-9.292-2.373-18.839-4.178-28.375-1.781-9.413-4-19.078-6.6-28.724-2.563-9.523-5.565-19.3-8.926-29.068-3.309-9.624-7.063-19.518-11.157-29.406a649.126,649.126,0,0,0-28.63-59.8c-10.633-19.684-22.886-40.235-36.422-61.084-13.012-20.044-27.632-41.012-43.453-62.323-15.12-20.367-31.851-41.737-49.728-63.518H3841.5v906Z" transform="translate(2155 -19089.406)" fill="#fff"/>
      <g id="Gruppe_2570" data-name="Gruppe 2570" transform="translate(3116 -18437)">
        <path id="Pfad_1022" data-name="Pfad 1022" d="M1431.506,333.771C1303.375,1217.647,869.068,491.7,433.311,828.128S-175.652-.081,443.237-217.478,1559.637-550.105,1431.506,333.771Z" transform="matrix(0.438, 0.899, -0.899, 0.438, 1466.693, -525.676)" fill="none" stroke="#3fcad6" stroke-width="6"/>
        <path id="Pfad_1023" data-name="Pfad 1023" d="M1431.506,333.771C1303.375,1217.647,869.068,491.7,433.311,828.128S-175.652-.081,443.237-217.478,1559.637-550.105,1431.506,333.771Z" transform="matrix(0.438, 0.899, -0.899, 0.438, 1466.693, -525.676)" fill="none" stroke="#3fcad6" stroke-width="6"/>
        <g id="Pfad_910" data-name="Pfad 910" transform="matrix(0.438, 0.899, -0.899, 0.438, 1466.693, -525.676)" fill="#eae22a">
          <path d="M 283.5090942382812 906.7078247070312 C 162.8460845947266 906.7078247070312 67.28327941894531 785.8742065429688 34.11328125 591.36181640625 C -19.25171852111816 278.4210205078125 103.9098815917969 -117.3609924316406 437.2716674804688 -234.4608001708984 C 703.0698852539062 -327.8281860351562 914.7586669921875 -390.0113830566406 1083.940063476562 -390.0113830566406 C 1211.780639648438 -390.0113830566406 1305.010498046875 -354.0951843261719 1368.956909179688 -280.2107849121094 C 1466.790283203125 -167.1719970703125 1493.077270507812 34.50780487060547 1449.31982421875 336.3533935546875 C 1400.39306640625 673.8612060546875 1307.160034179688 811.52880859375 1127.51611328125 811.52880859375 C 1069.372924804688 811.52880859375 1007.220092773438 797.66162109375 941.4180908203125 782.980224609375 C 868.493896484375 766.7094116210938 793.087890625 749.885009765625 715.2290649414062 749.885009765625 C 613.5418701171875 749.885009765625 524.9238891601562 780.1389770507812 444.311279296875 842.3757934570312 C 389.0202941894531 885.0634155273438 334.9186706542969 906.7078247070312 283.5090942382812 906.7078247070312 Z M 1083.940063476562 -354.0113830566406 C 919.8546752929688 -354.0113830566406 711.5250854492188 -292.6416015625 449.2026672363281 -200.4955902099609 C 134.4586791992188 -89.93519592285156 18.71188163757324 286.8878173828125 69.60128021240234 585.309814453125 C 99.62088012695312 761.3497924804688 181.5854797363281 870.7078247070312 283.5090942382812 870.7078247070312 C 326.7702941894531 870.7078247070312 373.4700927734375 851.5881958007812 422.3114929199219 813.8801879882812 C 509.4640808105469 746.5938110351562 605.2782592773438 713.885009765625 715.2290649414062 713.885009765625 C 797.0550537109375 713.885009765625 874.4295043945312 731.1486206054688 949.2564697265625 747.843994140625 C 1013.070251464844 762.0816040039062 1073.34130859375 775.52880859375 1127.51611328125 775.52880859375 C 1285.029663085938 775.52880859375 1367.9404296875 646.7947998046875 1413.692504882812 331.1885986328125 C 1455.861083984375 40.29960632324219 1432.323852539062 -151.9845886230469 1341.73583984375 -256.6513977050781 C 1285.035034179688 -322.1645812988281 1200.709228515625 -354.0113830566406 1083.940063476562 -354.0113830566406 Z" stroke="none"/>
          <path d="M 1083.940185546875 -375.0113525390625 C 916.8822021484375 -375.0113525390625 706.5928344726562 -313.167236328125 442.2427978515625 -220.3086547851562 C 116.6383056640625 -105.9334716796875 -3.43359375 281.9488525390625 48.89990234375 588.8402709960938 C 80.7572021484375 775.6557006835938 170.654052734375 891.707763671875 283.5091552734375 891.707763671875 C 331.5234375 891.707763671875 382.5411376953125 871.1152954101562 435.144775390625 830.5025634765625 C 518.4822387695312 766.1619873046875 610.0985107421875 734.8848876953125 715.2291259765625 734.8848876953125 C 794.7401733398438 734.8848876953125 870.9666137695312 751.8923950195312 944.6834716796875 768.33984375 C 1009.656372070312 782.8363037109375 1071.025756835938 796.52880859375 1127.516235351562 796.52880859375 C 1297.939086914062 796.52880859375 1386.870971679688 662.5834350585938 1434.47509765625 334.2015380859375 C 1477.570556640625 36.92111206054688 1452.429077148438 -160.8438720703125 1357.614990234375 -270.394287109375 C 1296.6875 -340.7909545898438 1207.167602539062 -375.0113525390625 1083.940185546875 -375.0113525390625 M 1127.516235351562 790.52880859375 C 1071.68701171875 790.52880859375 1010.630981445312 776.9061279296875 945.9901733398438 762.4838256835938 C 871.9559936523438 745.9656982421875 795.4014282226562 728.8848876953125 715.2291259765625 728.8848876953125 C 608.7213745117188 728.8848876953125 515.9055786132812 760.5711059570312 431.47802734375 825.75341796875 C 379.949462890625 865.5363159179688 330.16552734375 885.707763671875 283.5091552734375 885.707763671875 C 173.7774658203125 885.707763671875 86.1468505859375 771.5682373046875 54.8145751953125 587.83154296875 C 2.8936767578125 283.3602905273438 121.729736328125 -101.3624267578125 444.2315673828125 -214.6478271484375 C 708.0020141601562 -307.3026123046875 917.7313842773438 -369.0113525390625 1083.940185546875 -369.0113525390625 C 1205.322509765625 -369.0113525390625 1293.358032226562 -335.4692993164062 1353.077880859375 -266.4678344726562 C 1446.684692382812 -158.3126220703125 1471.36767578125 37.88632202148438 1428.537231445312 333.3406982421875 C 1381.46240234375 658.0723876953125 1294.250732421875 790.52880859375 1127.516235351562 790.52880859375 M 1083.940185546875 -405.0113525390625 C 1216.393920898438 -405.0113525390625 1313.333740234375 -367.3997192382812 1380.298950195312 -290.0269775390625 C 1481.151000976562 -173.5001220703125 1508.583862304688 32.09466552734375 1464.164672851562 338.5054931640625 C 1427.42041015625 591.9746704101562 1361.205200195312 826.52880859375 1127.516235351562 826.52880859375 C 1067.719970703125 826.52880859375 1004.783264160156 812.4867553710938 938.1514282226562 797.6201171875 C 866.01953125 781.5263671875 791.4337158203125 764.8848876953125 715.2291259765625 764.8848876953125 C 616.9849243164062 764.8848876953125 531.3653564453125 794.1160888671875 453.4780883789062 854.2488403320312 C 395.499755859375 899.0113525390625 338.313720703125 921.707763671875 283.5091552734375 921.707763671875 C 155.0380859375 921.707763671875 53.809326171875 796.0927734375 19.3267822265625 593.8834228515625 C -35.06982421875 274.8934326171875 91.1810302734375 -128.7880249023438 432.3004150390625 -248.61328125 C 699.5472412109375 -342.4893188476562 912.6358032226562 -405.0113525390625 1083.940185546875 -405.0113525390625 Z M 1127.516235351562 760.52880859375 C 1235.952270507812 760.52880859375 1343.874145507812 708.2553100585938 1398.84765625 329.0367431640625 C 1440.354370117188 42.71298217773438 1417.963012695312 -145.6561889648438 1330.393920898438 -246.8351440429688 C 1276.712036132812 -308.8603515625 1196.096435546875 -339.0113525390625 1083.940185546875 -339.0113525390625 C 921.9774169921875 -339.0113525390625 715.0474243164062 -277.9805297851562 454.1741333007812 -186.34326171875 C 147.187255859375 -78.5078125 34.5299072265625 290.4157104492188 84.3876953125 582.7883911132812 C 113.0947265625 751.13134765625 189.3936767578125 855.707763671875 283.5091552734375 855.707763671875 C 323.3753662109375 855.707763671875 366.990966796875 837.6402587890625 413.14453125 802.0072021484375 C 503.0230712890625 732.6165161132812 601.8357543945312 698.8848876953125 715.2291259765625 698.8848876953125 C 798.7057495117188 698.8848876953125 876.8992919921875 716.3309326171875 952.5184936523438 733.2027587890625 C 1015.5068359375 747.25634765625 1074.994140625 760.52880859375 1127.516235351562 760.52880859375 Z" stroke="none" fill="#fff"/>
        </g>
      </g>
    </g>
  </g>
</svg>
