<svg xmlns="http://www.w3.org/2000/svg" width="17.367" height="32.552" viewBox="0 0 17.367 32.552">
  <g id="Icon_ionic-ios-woman" data-name="Icon ionic-ios-woman" transform="translate(-8.983 -1.125)">
    <path id="Pfad_872" data-name="Pfad 872" d="M19.715,33.919a1.5,1.5,0,0,1-1.085-.448,1.74,1.74,0,0,1-.482-1.261v-8.1h-.943v8.1a1.705,1.705,0,0,1-.5,1.268,1.606,1.606,0,0,1-2.211,0,1.693,1.693,0,0,1-.5-1.268v-8.1H11.014l3.018-11.57H13.57l-1.655,6.131a1.542,1.542,0,0,1-1.451,1.207h0a1.443,1.443,0,0,1-1.153-.59,1.83,1.83,0,0,1-.244-1.621l1.967-7.06a3.707,3.707,0,0,1,3.3-2.665H21.01A3.869,3.869,0,0,1,24.3,10.583l.007.027,1.967,7.073a1.847,1.847,0,0,1-.264,1.628,1.452,1.452,0,0,1-1.146.583,1.542,1.542,0,0,1-1.445-1.227v-.014l-1.648-6.11h-.522l3.086,11.57H21.274v8.1a1.74,1.74,0,0,1-.482,1.261A1.485,1.485,0,0,1,19.715,33.919Z" transform="translate(0 -0.242)" fill="#fff"/>
    <path id="Pfad_873" data-name="Pfad 873" d="M17.883,7.256A3.027,3.027,0,0,1,14.906,4.19a2.978,2.978,0,1,1,5.954,0A3.027,3.027,0,0,1,17.883,7.256Z" transform="translate(-0.21 0)" fill="#fff"/>
  </g>
</svg>
