<svg xmlns="http://www.w3.org/2000/svg" width="10.632" height="13.086" viewBox="0 0 10.632 13.086">
  <path id="Icon_metro-bin" data-name="Icon metro-bin" d="M5.317,6.017V14.2a.82.82,0,0,0,.818.818H13.5a.82.82,0,0,0,.818-.818V6.017h-9ZM7.77,13.378H6.952V7.653H7.77Zm1.636,0H8.588V7.653h.818Zm1.636,0h-.818V7.653h.818Zm1.636,0h-.818V7.653h.818Zm1.84-9.814H11.859V2.541a.615.615,0,0,0-.613-.613H8.384a.615.615,0,0,0-.613.613V3.564H5.112a.615.615,0,0,0-.613.613V5.2H15.131V4.177A.615.615,0,0,0,14.518,3.564Zm-3.476,0H8.588V2.756h2.454v.808Z" transform="translate(-4.499 -1.928)" fill="#001e34"/>
</svg>
