<svg xmlns="http://www.w3.org/2000/svg" viewBox="0 0 1300 802"><defs><style>.cls-1{fill:#55d045;}.cls-2,.cls-4{fill:#c1e4ff;stroke:#c1e4ff;stroke-miterlimit:10;}.cls-2{stroke-width:6.07px;}.cls-3{fill:#4cd147;stroke:#4cd147;stroke-linejoin:round;stroke-width:5.27px;}.cls-4{stroke-width:6.07px;}</style></defs><g id="Ebene_2" data-name="Ebene 2"><path class="cls-1" d="M187.53,64.4c9.12-6.72,20.16-17.76,29.28-19.68C234.57,41.84,249,52.4,249,64.4c.48,12-16.32,24.48-26.88,32.16-32.64,26.4-64.8,55.68-91.2,85.44,0,7.2,6.24,14.4,13.44,21.12,29.28,26.88,54.72,58.56,77.76,90.24,8.64,11,24.48,25.92,24.48,41.28-.48,16.32-16.8,29.28-31.68,28.32-13-.48-23-15.36-30.72-26.4-20.16-28.8-32.16-43.2-51.84-66.24a459.12,459.12,0,0,0-36-39.36c-6.72,23,2.4,78.72-4.8,103.68-4.32,13-16.8,25-37,21.12C44,353.84,37.29,338,36.81,319.28c-1-39.84,3.84-80.16,5.76-139.2,4.32-37,0-106.56,14.4-137.76,11-17.28,32.16-23,45.6-5.76,5.76,27.36-7.2,77.76-9.12,105.6C125.61,128.72,155.85,83.6,187.53,64.4Z"/><path class="cls-1" d="M313.29,195c-3.84,37.92-20.64,118.56,35,106.08,19.2-2.88,32.16-47,34.56-73.44,1.92-21.12-1.44-60,2.4-75.84,3.84-14.4,27.36-19.2,36-13.92,13.92,8.16,14.88,48.48,14.4,71.52a243.07,243.07,0,0,1-9.12,60.48c-15.36,54.24-42.72,88.32-113.28,76.8-25.92-6.24-49.44-23.52-53.76-59-1.92-16.32-1.44-49.44-1-63.84,1.92-37,5.76-72.48,47.52-70.56C319.05,161.36,315.21,180.08,313.29,195Z"/><path class="cls-1" d="M545.61,201.68A182.05,182.05,0,0,1,585.93,158c12.48-9.12,31.2-22.08,49.92-9.6,5.76,3.36,13.44,21.12,14.88,36.48,2.88,33.12-9.12,87.84-9.6,122.88,0,8.64,1.92,20.16,0,25.44-6.24,16.32-38.88,24-49.92,6.72-1.44-23.52,1-49,4.32-72.48,2.88-23,5.28-36.48,2.4-58.08-14.88,1.92-24.48,20.16-34.08,33.6-24,31.68-20.64,31.2-35,55.2-8.16,14.4-24,56.16-37,58.56-34.56,7.2-28.8-24-25.44-54.24,3.36-33.6,8.16-62.88,9.6-97,1-27.36-.48-61.44,21.6-65.76,38.4-7.2,21.6,52.8,27.84,84C534.09,215.6,540.33,209.84,545.61,201.68Z"/><path class="cls-1" d="M804.33,134c19.2,7.68,37.92,19.68,39.84,36.48,1.44,12.48-9.13,22.08-13.92,25-9.6,7.68-31.68-9.12-41.28-13.44-26.4-7.2-41.76-2.88-42.72,12.48-1,13.44,24,25.92,28.32,29.28,19.68,15.36,49.92,35.52,49,71-1,26.4-16.32,46.56-35,59-13.44,9.12-39.84,13-57.12,9.12-40.8-9.12-47.52-15.36-43.2-39.84,1-4.32,6.72-9.6,11.52-11.52,25.92-11,44.64,26.4,73.44-13,2.88-20.64-29.76-37.44-43.2-47-16.32-12-36.48-27.84-37.92-48-1-12.48,1.44-33.6,8.16-42.24,17.28-21.12,41.28-29.28,67.2-32.16C769.77,128.72,794.73,130.16,804.33,134Z"/><path class="cls-1" d="M1066.4,146.48c2.88,13-2.88,26.88-13,32.16-14.88,7.68-54.24,4.32-62.88,12-9.12,7.68-12.48,61.92-13.92,73.44-1,9.6-5.76,46.56-7.2,56.16-3.36,16.32-6.24,69.6-30.24,73-10.56,1.44-25.92-2.88-29.28-9.6-2.88-7.68,7.68-49,8.64-56.64,1.44-8.64,7.2-45.12,7.68-53.76,2.88-18.24,3.36-40.32,5.28-68.16-10.56-12.48-44.16,2.4-58.08-4.32-10.08-5.28-13.44-20.16-11-28.32,1.44-9.12,9.6-18.72,19.2-22.56,10.08-2.4,43.2-1.92,50.88-7.2C940.64,136.88,943,108.08,945,97c4.32-27.84.48-59.52,38.4-61.44,24-1.44,21.12,11,16.8,27.84-3.36,25.44-12,38.4-6.72,71C1005,145.52,1061.6,123.92,1066.4,146.48Z"/><path class="cls-1" d="M455.49,711.08c-9.6-12.48-5.28-47.52-3.84-67.2,1.44-24,2.88-61.92,2.88-84.48-1.44-19.68,2.4-70.08-9.6-88.8-8.16-8.64-62.88,5.28-80.16-9.12-4.8-3.84-10.08-21.6-4.8-32.64,8.16-17.28,82.56-14.88,108.48-12.48,24,1.92,75.36-1.92,98.4-2.4,9.12-1,28.32,2.88,30.24,13.44,1.92,13-5.28,26.4-13.44,30.72-13.44,6.72-53.28,1.44-64.32,12-12.48,11-7.68,47-8.64,77.76-2.4,61.92,2.88,121.44-9.12,161.76C495.81,728.84,465.09,729.8,455.49,711.08Z"/><path class="cls-1" d="M674.84,558c-3.84,37.92-20.63,118.56,35,106.08,19.2-2.88,32.16-47,34.56-73.44,1.92-21.12-1.44-60,2.4-75.84,3.84-14.4,27.36-19.2,36-13.92,13.92,8.16,14.88,48.48,14.4,71.52a243.07,243.07,0,0,1-9.12,60.48c-15.36,54.24-42.72,88.32-113.28,76.8-25.91-6.24-49.43-23.52-53.75-59-1.92-16.32-1.44-49.44-1-63.84,1.92-37,5.76-72.48,47.52-70.56C680.61,524.36,676.76,543.08,674.84,558Zm-.47-79.68c-13.92-1.44-22.08-12.48-20.16-29.28,1.91-15.36,14.4-25.44,26.87-27.84C721.4,413.48,705.56,482.12,674.37,478.28Zm94.07-50.4c17.76,11.52,19.68,51.84-15.84,53.28C714.21,483.08,734.36,406.76,768.44,427.88Z"/><path class="cls-1" d="M1018,509.48c2.88,13-2.88,26.88-13,32.16-14.88,7.68-54.24,4.32-62.88,12-9.12,7.68-12.48,61.92-13.92,73.44-1,9.6-5.76,46.56-7.2,56.16-3.36,16.32-6.24,69.6-30.24,73-10.56,1.44-25.92-2.88-29.28-9.6-2.88-7.68,7.68-49,8.64-56.64,1.44-8.64,7.2-45.12,7.68-53.76,2.88-18.24,3.36-40.32,5.28-68.16-10.56-12.48-44.16,2.4-58.08-4.32-10.08-5.28-13.44-20.16-11-28.32,1.44-9.12,9.6-18.72,19.2-22.56,10.08-2.4,43.2-1.92,50.88-7.2,8.16-5.76,10.56-34.56,12.48-45.6,4.32-27.84.48-59.52,38.4-61.44,24-1.44,21.12,11,16.8,27.84-3.36,25.44-12,38.4-6.72,71C956.6,508.52,1013.24,486.92,1018,509.48Z"/><path class="cls-1" d="M1141.88,676c32.16,6.72,45.6-19.2,63.84-8.16,10.56,11,8.16,25.92,0,32.64-24.48,17.76-71.52,24-96,11-38.88-15.84-51.36-29.76-64.32-69.12-9.12-41.28-3.84-71.52,11.52-92.64,11.52-21.6,33.12-40.32,52.32-46.08,47-16.32,86.4-2.4,107,46.08,3.36,5.76,10.08,25,10.08,33.6,1,13-8.16,29.28-21.12,33.6-21.6,7.68-32.64,14.4-54.72,20.64-14.88,4.32-34.56,10.08-46.08,13.92C1108.28,667.4,1120.76,671.72,1141.88,676Zm-48-71c8.64,1.44,37.92-8.16,54.72-11.52,11-2.4,25-10.56,27.36-18.72-12.48-36.48-41.28-38.4-71.52-13.92C1092,570.92,1090,596.36,1093.88,605Z"/><path class="cls-2" d="M102.23,565.1c-12.1-2.64-23.76-2-34.32-7.48-9.68-5.28-21.34-16.06-24.42-27.06-3.08-11.44-.66-24.2,3.52-31.9,5.06-9.9,12.1-18,22.22-23.76,11.22-5.94,23.54-7.7,37.62-7.7,9.24-7,4.18-38.28,9.24-49.5,1.54-2.86,8.8-4.18,12.32-3.08,11.22,1.76,6.38,26,5.06,38.72-1.32,16.94-3.3,36.08-4.4,52.14-.66,22.22.88,46.64-1.54,63.8-1.32,9.24-7.48,13.86-17.82,11.66C104.65,578.52,105.09,569.72,102.23,565.1Zm3.3-71.28c-3.3-4.18-8.58-1.54-18.7-.66-16.28,1.54-27.06,23.1-16.5,37.18,6.38,8.36,22.44,15.62,32.78,13.2,2.2-4.84,2-18.92,2.64-25.74C106.41,510.76,107.07,498.44,105.53,493.82Z"/><path class="cls-2" d="M195.29,544.86c14.74,3.08,20.9-8.8,29.26-3.74,4.84,5.06,3.74,11.88,0,15-11.22,8.14-32.78,11-44,5.06-17.82-7.26-23.54-13.64-29.48-31.68-4.18-18.92-1.76-32.78,5.28-42.46,5.28-9.9,15.18-18.48,24-21.12,21.56-7.48,39.6-1.1,49.06,21.12,1.54,2.64,4.62,11.44,4.62,15.4.44,5.94-3.74,13.42-9.68,15.4-9.9,3.52-15,6.6-25.08,9.46-6.82,2-15.84,4.62-21.12,6.38C179.89,540.9,185.61,542.88,195.29,544.86Zm-22-32.56c4,.66,17.38-3.74,25.08-5.28,5.06-1.1,11.44-4.84,12.54-8.58-5.72-16.72-18.92-17.6-32.78-6.38C172.41,496.68,171.53,508.34,173.29,512.3Z"/><path class="cls-2" d="M275.59,481.94c5.5,1.76,13-5.28,18.48-7.48,5.94-2.2,15-5.72,22.88-4.62,4.62.44,9.9,3.3,10.78,7.48,1.32,8.8-6.82,13.86-11.22,15-4.62,1.1-14.08,3.52-17.82,4.84-9,2.64-24,12.76-24,16.5-.66,10.34-.44,35.2-3.08,44.44-2.2,7.48-6.38,7.92-14.74,7.48-3.3-.22-7.92-2.86-9-5.5-.88-2.64,0-7.7.66-12.32,1.54-18,2.2-47.74,4.18-65.56,2-16.28,1.54-24.2,13.42-24.64a11.29,11.29,0,0,1,8.8,3.3C277.35,468.3,276,474.68,275.59,481.94Z"/><polygon class="cls-1" points="954 417 964 352 910 372 902 423 954 417"/><path class="cls-3" d="M1269.25,154.86s-34.28,15.82-13.18,39.56c0,0-26.38-29-47.48-18.46,0,0,36.93-10.55,23.74-34.29C1232.33,141.67,1248.15,168,1269.25,154.86Z"/><path class="cls-4" d="M413.11,26.21S378.83,42,399.92,65.77c0,0-26.37-29-47.47-18.46,0,0,36.93-10.55,23.74-34.28C376.19,13,392,39.4,413.11,26.21Z"/><path class="cls-4" d="M604.79,752.89s-34.29,15.82-13.19,39.56c0,0-26.37-29-47.47-18.46,0,0,36.92-10.55,23.74-34.29C567.87,739.7,583.69,766.08,604.79,752.89Z"/><path class="cls-2" d="M1038.23,273c-1.1-8.8,7.26-13,14.3-16.06,13.86-7,24.64-11.66,38.5-8.58,7.92,2.86,15.4,13.42,17.16,24.86,2.42,14.08-.88,29.92-2.64,41.14-2.42,12.76-4.62,24.86-8.14,36.74-1.54,4.4-7.26,12.32-12.54,13-3.74.66-12.76-.88-16.5-2.42-13-5.06-22.88-9-32.56-19.36-4-3.52-8.36-8.14-9-13.2-2.42-11.66,3.3-19.36,8.14-24.2,3.08-3.08,10.78-7.7,16.94-9.68,10.78-3.3,29.7-2,33.22-6.38,5.5-7.48-2-18.92-7-19.58-16.5,2.64-25.74,12.54-33.88,11.88C1040,279.57,1038.89,276.93,1038.23,273Zm10.78,46.2c.22,12.76,16.5,17.38,27.06,18.92,6.82-1.76,7.48-17.16,7.48-24.86-2.86-2.42-11.22-1.32-15.4-1.1C1059.79,312.57,1052.31,314.77,1049,319.17Z"/><path class="cls-2" d="M1149.11,285.73c-1.76,17.38-9.46,54.34,16.06,48.62,8.8-1.32,14.74-21.56,15.84-33.66.88-9.68-.66-27.5,1.1-34.76,1.76-6.6,12.54-8.8,16.5-6.38,6.38,3.74,6.82,22.22,6.6,32.78a111.41,111.41,0,0,1-4.18,27.72c-7,24.86-19.58,40.48-51.92,35.2-11.88-2.86-22.66-10.78-24.64-27.06-.88-7.48-.66-22.66-.44-29.26.88-16.94,2.64-33.22,21.78-32.34C1151.75,270.33,1150,278.91,1149.11,285.73Z"/><path class="cls-2" d="M1272.75,257.79c8.8,3.52,17.38,9,18.26,16.72.66,5.72-4.18,10.12-6.38,11.44-4.4,3.52-14.52-4.18-18.92-6.16-12.1-3.3-19.14-1.32-19.58,5.72-.44,6.16,11,11.88,13,13.42,9,7,22.88,16.28,22.44,32.56-.44,12.1-7.48,21.34-16.06,27.06-6.16,4.18-18.26,5.94-26.18,4.18-18.7-4.18-21.78-7-19.8-18.26.44-2,3.08-4.4,5.28-5.28,11.88-5.06,20.46,12.1,33.66-5.94,1.32-9.46-13.64-17.16-19.8-21.56-7.48-5.5-16.72-12.76-17.38-22-.44-5.72.66-15.4,3.74-19.36,7.92-9.68,18.92-13.42,30.8-14.74C1256.91,255.37,1268.35,256,1272.75,257.79Z"/></g></svg>