<svg xmlns="http://www.w3.org/2000/svg" width="16.777" height="16" viewBox="0 0 16.777 16">
  <g id="Gruppe_2069" data-name="Gruppe 2069" transform="translate(-1097.5 -691.5)">
    <path id="Pfad_880" data-name="Pfad 880" d="M8,0A8,8,0,1,1,0,8,8,8,0,0,1,8,0Z" transform="translate(1097.5 691.5)" fill="none"/>
    <g id="Gruppe_2100" data-name="Gruppe 2100">
      <path id="Differenzmenge_44" data-name="Differenzmenge 44" d="M-12668.5-2040.456a8.008,8.008,0,0,1-8-8,8.01,8.01,0,0,1,8-8,7.934,7.934,0,0,1,4.732,1.551l-1.367,1.485a5.964,5.964,0,0,0-3.365-1.034,6.007,6.007,0,0,0-6,6,6.009,6.009,0,0,0,5.987,6l.041.045.042-.045a6.02,6.02,0,0,0,5.93-6c0-.144,0-.289-.015-.429l1.688-1.835a7.977,7.977,0,0,1,.325,2.264A8.007,8.007,0,0,1-12668.5-2040.456Z" transform="translate(13774 2747.955)" fill="#55d045"/>
      <path id="Pfad_876" data-name="Pfad 876" d="M18496.945,2560.359l-.738-.712-3.7-3.571,1.391-1.438,2.959,2.859,7.316-7.95,1.473,1.354Z" transform="translate(-17391.371 -1857.076)" fill="#55d045"/>
    </g>
  </g>
</svg>
