<svg xmlns="http://www.w3.org/2000/svg" width="13.845" height="13.846" viewBox="0 0 13.845 13.846">
  <path id="Icon_material-person-outline" data-name="Icon material-person-outline" d="M12.823,7.62a1.791,1.791,0,1,1-1.791,1.791A1.791,1.791,0,0,1,12.823,7.62m0,7.676c2.533,0,5.2,1.245,5.2,1.791v.938H7.62v-.938c0-.546,2.669-1.791,5.2-1.791m0-9.3a3.411,3.411,0,1,0,3.411,3.411A3.41,3.41,0,0,0,12.823,6Zm0,7.676C10.546,13.676,6,14.818,6,17.087v2.559H19.646V17.087C19.646,14.818,15.1,13.676,12.823,13.676Z" transform="translate(-5.9 -5.9)" fill="#001e34" stroke="#001e34" stroke-linecap="round" stroke-linejoin="round" stroke-width="0.2"/>
</svg>
