<svg id="Ebene_1" data-name="Ebene 1" xmlns="http://www.w3.org/2000/svg" xmlns:xlink="http://www.w3.org/1999/xlink" viewBox="0 0 500 500"><defs><style>.cls-1,.cls-10,.cls-5,.cls-7,.cls-8,.cls-9{fill:none;}.cls-2{fill:#55d045;}.cls-3{fill:#001e34;}.cls-4{opacity:0.3;}.cls-5,.cls-7,.cls-8{stroke:#fff;}.cls-10,.cls-5,.cls-8,.cls-9{stroke-miterlimit:10;}.cls-5{stroke-width:6.34px;}.cls-6{clip-path:url(#clip-path);}.cls-7{stroke-linecap:square;stroke-linejoin:round;}.cls-10,.cls-7,.cls-9{stroke-width:15.27px;}.cls-10,.cls-8{stroke-linecap:round;}.cls-8{stroke-width:3.82px;}.cls-10,.cls-9{stroke:#55d045;}</style><clipPath id="clip-path"><ellipse class="cls-1" cx="249.72" cy="249.99" rx="170.69" ry="170.99"/></clipPath></defs><path id="SVGID_2_" class="cls-1" d="M250,0C111.93,0,0,111.93,0,250S111.93,500,250,500,500,388.07,500,250,388.07,0,250,0Z"/><circle class="cls-2" cx="116.36" cy="66.33" r="7.73"/><circle class="cls-2" cx="383.66" cy="66.33" r="7.73"/><circle class="cls-2" cx="26.54" cy="285.78" r="7.73"/><circle class="cls-2" cx="479.34" cy="285.78" r="7.73" transform="translate(183.28 758.84) rotate(-88.76)"/><path class="cls-3" d="M179.32,51.11,159,59.62l-.08,11.1L151.08,74l1.32-48.38,7.45-3.11,35.39,33.05-7.91,3.31Zm-5-4.89L159.23,31.63l-.19,21Z"/><path class="cls-3" d="M217.6,49.82a12.37,12.37,0,0,1-6.89,3.87c-7.19,1.61-12.17-1.29-13.79-8.55l-3.54-15.81L188,30.54l-1.38-6.15L192,23.18l-1.68-7.51L198,14l1.67,7.51,8.8-2,1.38,6.15-8.8,2,3.5,15.63c.71,3.2,2.7,4.56,5.65,3.9a7,7,0,0,0,4-2.31Z"/><path class="cls-3" d="M252.17,34.45l-26.35,1.81c1.28,4.84,5.59,7.71,11.43,7.31a12,12,0,0,0,8.87-4.28l4.55,4.56c-2.77,3.79-7.36,6-13.15,6.4-11.25.77-19.05-6-19.73-16S224,16.61,234,15.92c9.81-.67,17.45,5.69,18.17,16.2C252.18,32.75,252.19,33.69,252.17,34.45Zm-26.77-3.4,19.06-1.31a9.17,9.17,0,0,0-10.06-7.53A9.31,9.31,0,0,0,225.4,31.05Z"/><path class="cls-3" d="M262.53,2.92l7.87.52-3.1,46.69-7.86-.53Z"/><path class="cls-3" d="M281.76,17.87l7.79,1.2-5.11,33.27-7.79-1.19Zm.5-10.32A4.8,4.8,0,0,1,288,3.64c2.87.44,4.69,2.7,4.3,5.26a5.05,5.05,0,0,1-10-1.35Z"/><path class="cls-3" d="M327.57,48.87l-25.32-7.54c-.5,5,2.53,9.17,8.15,10.85a12.09,12.09,0,0,0,9.81-.89l2.66,5.85c-3.93,2.58-9,3-14.56,1.39-10.82-3.22-15.76-12.26-12.89-21.87s12-14.39,21.59-11.52c9.43,2.8,14.35,11.44,11.35,21.53C328.17,47.28,327.84,48.17,327.57,48.87ZM303.68,36.3,322,41.75a9.17,9.17,0,0,0-6.78-10.57A9.31,9.31,0,0,0,303.68,36.3Z"/><path class="cls-3" d="M361.11,43.13l-3.24,6.76a10.22,10.22,0,0,0-1.57-1c-5.4-2.58-10.34-1-13.3,5.16l-7.06,14.73-7.11-3.4,14.55-30.37,6.76,3.24L348,42.73C351.59,40.52,356.05,40.7,361.11,43.13Z"/><path class="cls-3" d="M33.34,327.9l-9.19-4-10.57,3.95-2.87-7.68,41.35-15.45,2.87,7.68-21.21,7.92L62.56,332.8l3.22,8.62L40.81,331l-16,27-3.35-9Z"/><path class="cls-3" d="M75.31,375.93,46.68,393.65l-4-6.39L46.37,385a13.76,13.76,0,0,1-9.72-6.74c-4.55-7.34-3.61-14.82,5-20.16L58,348l4.14,6.7-15.44,9.55c-5.2,3.22-6.14,7.21-3.52,11.45,2.88,4.66,7.74,6,13.47,2.49l14.48-9Z"/><path class="cls-3" d="M92.92,417.38,78.77,430.5l-5.36-5.78,13.41-12.43c4.39-4.08,4.5-8.22,1.07-11.92-3.82-4.11-8.89-4.57-13.83,0L61.57,412l-5.35-5.78L80.9,383.29l5.11,5.5-3.19,3c4-.21,8,1.68,11.35,5.29C99.66,403,100.36,410.48,92.92,417.38Z"/><path class="cls-3" d="M89,435.08l6-2.91A22.75,22.75,0,0,0,102.3,442c4,3,6.45,3.19,7.87,1.34,3.91-5.11-16.29-13-8.12-23.61,3.87-5.06,11-4.87,18.16.65,3.56,2.72,7,6.67,8.25,10l-6,2.92a18.53,18.53,0,0,0-6.13-7.87c-3.8-2.91-6.56-3-7.91-1.29-4.14,5.41,16.06,13.25,8.05,23.72-3.83,5-10.93,4.73-18.44-1C93.54,443.34,90.08,438.63,89,435.08Z"/><path class="cls-3" d="M137.83,469.6a12.33,12.33,0,0,1-7.69-1.79c-6.41-3.66-8.13-9.15-4.43-15.61l8-14.06-4.82-2.76,3.14-5.47,4.81,2.76,3.82-6.68,6.84,3.92-3.82,6.67,7.83,4.48-3.14,5.47-7.82-4.48-8,13.9c-1.63,2.85-1.08,5.19,1.54,6.7a7.16,7.16,0,0,0,4.52,1Z"/><path class="cls-3" d="M197.21,493.64,193.35,487a22.27,22.27,0,0,1-15.7,1c-9-2.57-14.12-9.09-12.21-15.76,1.52-5.27,5.48-8.14,13.5-10-2.46-4.44-2.93-7.59-2.05-10.68,1.7-5.94,7.71-8.62,15.17-6.48,6.85,2,10.31,6.82,8.66,12.58-1.25,4.36-4.7,6.79-11.81,8.49l6.65,11.35A28.68,28.68,0,0,0,200,471l5.55,3.76a30.29,30.29,0,0,1-6.59,8.6l3.87,6.62Zm-7.11-12.27L182,467.43c-5.69,1.32-8,3.08-8.9,6.11-1,3.51,1.7,6.91,6.91,8.41A14.79,14.79,0,0,0,190.1,481.37Zm-6.27-28c-.53,1.88-.14,3.5,2,7.4,5.67-1.26,7.75-2.57,8.41-4.87s-.59-4.56-3.75-5.47C187.12,449.43,184.58,450.74,183.83,453.34Z"/><path class="cls-3" d="M263.83,475.18l7.75-.12.29,17.59c-4.54,3.79-10.94,5.79-17.19,5.89-13.68.22-23.92-9.13-24.13-22.31s9.72-22.86,23.52-23.09c7.38-.12,13.6,2.24,17.84,6.9l-5.09,5.13a16.36,16.36,0,0,0-12.25-4.84c-9.4.15-15.91,6.62-15.76,15.76.14,9,6.87,15.41,16.2,15.26a18,18,0,0,0,9-2.42Z"/><path class="cls-3" d="M315.13,475.14l-25.86,5.43c1.94,4.62,6.6,6.86,12.33,5.66a12.07,12.07,0,0,0,8.2-5.46l5.13,3.89c-2.22,4.13-6.46,7-12.14,8.15-11,2.31-19.69-3.28-21.75-13.1s3.69-18.35,13.5-20.41c9.63-2,18.07,3.23,20.23,13.54C314.9,473.45,315,474.39,315.13,475.14Zm-27,.32,18.69-3.92a9.17,9.17,0,0,0-11-6.07A9.31,9.31,0,0,0,288.14,475.46Z"/><path class="cls-3" d="M324.86,483.48l.66-6.68a22.63,22.63,0,0,0,12.14-1.12c4.64-1.8,6.08-3.85,5.24-6-2.33-6-19.54,7.17-24.4-5.36-2.3-5.93,1.55-11.89,10-15.17,4.18-1.62,9.33-2.47,12.81-1.86l-.65,6.68a18.47,18.47,0,0,0-9.91,1.14c-4.47,1.73-6,4-5.22,6.08,2.46,6.35,19.68-6.82,24.44,5.47,2.28,5.88-1.65,11.8-10.47,15.22C334.28,483.89,328.46,484.39,324.86,483.48Z"/><path class="cls-3" d="M379.79,459.7a12.37,12.37,0,0,1-5.53,5.64c-6.46,3.57-12.05,2.18-15.64-4.33l-7.83-14.19-4.86,2.68-3-5.52,4.86-2.68L344,434.57l6.9-3.81,3.72,6.73,7.89-4.35,3,5.52-7.9,4.35,7.74,14c1.58,2.87,3.87,3.62,6.52,2.16a7.1,7.1,0,0,0,3.2-3.35Z"/><path class="cls-3" d="M400.05,422.88l12,15.71-5.92,4.5-2.49-3.26c.26,3.46-1.66,7-5.68,10-6.12,4.66-12.54,4.24-16.09-.43-3.4-4.46-3.06-10.26,5.07-16.45l6.92-5.27-.31-.4c-2.78-3.67-6.63-4.14-11.1-.74a16.62,16.62,0,0,0-6.1,8.84l-5.94-2.69c1.18-4.39,4.51-8.66,8.82-12C386.92,414.89,394.17,415.16,400.05,422.88Zm-.69,12.1L397,431.87l-6.47,4.93c-4.27,3.24-4.2,5.73-2.71,7.68,1.72,2.26,4.73,2.27,7.94-.18S400.4,438.54,399.36,435Z"/><path class="cls-3" d="M389,395.83l5.62-5.52,32.82,33.34-5.62,5.53Z"/><path class="cls-3" d="M449.11,395.93a12.36,12.36,0,0,1-3,7.29c-4.67,5.72-10.37,6.52-16.13,1.81L417.4,394.77l-3.51,4.3-4.89-4,3.52-4.3-6-4.87,5-6.1,5.95,4.87,5.71-7,4.88,4-5.7,7,12.4,10.13c2.54,2.08,4.94,1.93,6.86-.42a7.1,7.1,0,0,0,1.72-4.29Z"/><path class="cls-3" d="M460,355.14l-13.62,22.64c4.71,1.72,9.52-.17,12.54-5.19a12.08,12.08,0,0,0,1.58-9.72l6.34-1.12c1.52,4.45.7,9.48-2.29,14.45-5.81,9.67-15.8,12.2-24.39,7s-10.95-15.19-5.78-23.79c5.07-8.42,14.66-11,23.69-5.61C458.65,354.15,459.43,354.69,460,355.14Zm-18.13,20,9.84-16.37a9.17,9.17,0,0,0-11.93,3.93A9.31,9.31,0,0,0,441.91,375.13Z"/><path class="cls-3" d="M471.28,313.06l18.09,6.7-2.74,7.39-17.14-6.35c-5.62-2.08-9.37-.31-11.12,4.42-1.95,5.26-.07,10,6.26,12.34l16,5.91-2.74,7.39-31.57-11.69,2.61-7,4.07,1.51c-2-3.5-2.11-7.91-.4-12.52C455.36,313.55,461.76,309.53,471.28,313.06Z"/><ellipse class="cls-3" cx="249.98" cy="250.02" rx="170.99" ry="170.98"/><g class="cls-4"><path d="M267.64,401.64a153.32,153.32,0,1,1,150.2-184.23A171.1,171.1,0,1,0,421,250c0-.38,0-.74,0-1.12A153.28,153.28,0,0,1,267.64,401.64Z"/><text/><path d="M417.85,217.45c.31,1.53.56,3.09.83,4.64C418.43,220.52,418.14,219,417.85,217.45Z"/></g><path class="cls-5" d="M182.19,268.43s24.56,13.73,67.79,13.73c43.63,0,67.78-13.73,67.78-13.73"/><g class="cls-6"><polyline class="cls-7" points="317.74 407.04 317.74 268.43 249.75 144.72 182.19 267.97 182.19 407.04"/><line class="cls-8" x1="226.13" y1="281.2" x2="226.13" y2="420.97"/><line class="cls-8" x1="273.73" y1="281.2" x2="273.73" y2="419.36"/></g><path class="cls-9" d="M209,217.45s14.78,8.27,40.8,8.27c26.26,0,40.81-8.27,40.81-8.27"/><path class="cls-10" d="M182.19,268l67.56-123.25,68,123.69"/></svg>