<svg id="Ebene_1" data-name="Ebene 1" xmlns="http://www.w3.org/2000/svg" xmlns:xlink="http://www.w3.org/1999/xlink" viewBox="0 0 596.54 171"><defs><style>.cls-1,.cls-10,.cls-5,.cls-7,.cls-8,.cls-9{fill:none;}.cls-2{fill:#fff;}.cls-3{isolation:isolate;}.cls-4{opacity:0.1;}.cls-5,.cls-7,.cls-8{stroke:#001e34;}.cls-10,.cls-5,.cls-8,.cls-9{stroke-miterlimit:10;}.cls-5{stroke-width:3.18px;}.cls-6{clip-path:url(#clip-path);}.cls-7{stroke-linecap:square;stroke-linejoin:round;}.cls-10,.cls-7,.cls-9{stroke-width:7.64px;}.cls-10,.cls-8{stroke-linecap:round;}.cls-8{stroke-width:1.91px;}.cls-10,.cls-9{stroke:#55d045;}</style><clipPath id="clip-path" transform="translate(-0.16 -0.01)"><circle class="cls-1" cx="85.5" cy="85.5" r="85.5"/></clipPath></defs><ellipse class="cls-2" cx="85.66" cy="85.5" rx="85.65" ry="85.5"/><g class="cls-3"><path class="cls-2" d="M209.34,68.63H193.6l-3.1,7.27h-6l14.16-31.41h5.75L218.6,75.9h-6.12Zm-1.94-4.57-5.93-13.74-5.89,13.74Z" transform="translate(-0.16 -0.01)"/><path class="cls-2" d="M236.26,74.6a8.82,8.82,0,0,1-5.39,1.62c-5.26,0-8.27-2.78-8.27-8.08V56.61h-4V52.12h4V46.64h5.62v5.48h6.42v4.49h-6.42V68c0,2.34,1.17,3.6,3.32,3.6a5.08,5.08,0,0,0,3.15-1Z" transform="translate(-0.16 -0.01)"/><path class="cls-2" d="M262.56,65.72H243.73c.67,3.5,3.59,5.74,7.77,5.74a8.61,8.61,0,0,0,6.52-2.6l3,3.45c-2.16,2.56-5.53,3.91-9.66,3.91-8.05,0-13.26-5.16-13.26-12.3s5.26-12.25,12.4-12.25,12.14,4.89,12.14,12.39C262.65,64.5,262.6,65.18,262.56,65.72ZM243.68,62H257.3a6.53,6.53,0,0,0-6.79-5.83A6.63,6.63,0,0,0,243.68,62Z" transform="translate(-0.16 -0.01)"/><path class="cls-2" d="M268,42.61h5.62V75.9H268Z" transform="translate(-0.16 -0.01)"/><path class="cls-2" d="M280.27,44.62a3.42,3.42,0,0,1,3.6-3.36,3.34,3.34,0,0,1,3.59,3.23,3.6,3.6,0,0,1-7.19.13Zm.77,7.32h5.61v24H281Z" transform="translate(-0.16 -0.01)"/><path class="cls-2" d="M316.5,65.72H297.67c.67,3.5,3.59,5.74,7.77,5.74a8.61,8.61,0,0,0,6.52-2.6l3,3.45c-2.15,2.56-5.52,3.91-9.66,3.91-8.05,0-13.26-5.16-13.26-12.3s5.26-12.25,12.41-12.25,12.13,4.89,12.13,12.39C316.59,64.5,316.55,65.18,316.5,65.72ZM297.62,62h13.62a6.53,6.53,0,0,0-6.78-5.83A6.63,6.63,0,0,0,297.62,62Z" transform="translate(-0.16 -0.01)"/><path class="cls-2" d="M335.88,51.67V57a7.15,7.15,0,0,0-1.31-.13c-4.27,0-7,2.51-7,7.4V75.9H322v-24h5.35v3.5C329,52.93,331.88,51.67,335.88,51.67Z" transform="translate(-0.16 -0.01)"/><path class="cls-2" d="M199.76,104.76l-5,5.12v8h-5.84V86.5h5.84v16.11L210.32,86.5h6.57l-13.22,14,14,17.37h-6.84Z" transform="translate(-0.16 -0.01)"/><path class="cls-2" d="M243.59,94v24h-5.35v-3a9.81,9.81,0,0,1-7.73,3.37c-6.16,0-10.34-3.37-10.34-10.6V94h5.62v12.92c0,4.35,2.07,6.42,5.62,6.42,3.91,0,6.56-2.42,6.56-7.23V94Z" transform="translate(-0.16 -0.01)"/><path class="cls-2" d="M274.61,104.18v13.73H269v-13c0-4.27-2.11-6.33-5.71-6.33-4,0-6.7,2.42-6.7,7.22v12.12H251V94h5.35V97c1.84-2.2,4.77-3.36,8.27-3.36C270.34,93.68,274.61,97,274.61,104.18Z" transform="translate(-0.16 -0.01)"/><path class="cls-2" d="M279,115.53l2.16-4.26a16.18,16.18,0,0,0,8.36,2.38c3.55,0,5-1,5-2.65,0-4.58-14.84-.27-14.84-9.83,0-4.53,4.09-7.49,10.57-7.49a19.16,19.16,0,0,1,9,2.06L297.13,100a13.14,13.14,0,0,0-6.88-1.8c-3.42,0-5,1.12-5,2.69,0,4.85,14.83.54,14.83,9.92,0,4.49-4.13,7.41-10.88,7.41C285.17,118.23,281.17,117.06,279,115.53Z" transform="translate(-0.16 -0.01)"/><path class="cls-2" d="M319.34,116.61a8.85,8.85,0,0,1-5.4,1.62c-5.26,0-8.27-2.79-8.27-8.08V98.61h-4V94.13h4V88.65h5.62v5.48h6.43v4.48h-6.43V110c0,2.34,1.17,3.59,3.33,3.59a5.06,5.06,0,0,0,3.14-1Z" transform="translate(-0.16 -0.01)"/><path class="cls-2" d="M360.51,118.41l-3.95-3.82A16,16,0,0,1,346,118.36c-6.65,0-11.46-3.46-11.46-8.39,0-3.91,2.16-6.64,7.28-9.52-2.56-2.55-3.5-4.62-3.5-6.91,0-4.39,3.59-7.4,9.12-7.4,5.08,0,8.41,2.65,8.41,6.91,0,3.23-1.89,5.56-6.43,8.12l6.79,6.46a20.65,20.65,0,0,0,1.75-5.29l4.54,1.48a21.4,21.4,0,0,1-2.83,7.18l3.95,3.77Zm-7.28-7-8.32-7.94c-3.64,2-4.9,3.68-4.9,5.92,0,2.61,2.52,4.4,6.39,4.4A10.56,10.56,0,0,0,353.23,111.4Zm-9.8-18c0,1.39.58,2.43,2.83,4.67,3.64-2,4.81-3.28,4.81-5s-1.3-3-3.64-3C344.91,90.13,343.43,91.52,343.43,93.45Z" transform="translate(-0.16 -0.01)"/><path class="cls-2" d="M402.54,101.85h5.53v12.52a20,20,0,0,1-12.32,4c-9.75,0-16.94-6.78-16.94-16.15s7.19-16.16,17-16.16c5.26,0,9.67,1.75,12.64,5.12l-3.69,3.58a11.7,11.7,0,0,0-8.68-3.58c-6.69,0-11.41,4.53-11.41,11s4.72,11,11.37,11a12.67,12.67,0,0,0,6.47-1.61Z" transform="translate(-0.16 -0.01)"/><path class="cls-2" d="M437.69,107.72H418.86c.67,3.5,3.6,5.75,7.78,5.75a8.59,8.59,0,0,0,6.51-2.6l3,3.45c-2.16,2.56-5.53,3.91-9.67,3.91-8,0-13.26-5.17-13.26-12.3s5.26-12.25,12.41-12.25,12.13,4.89,12.13,12.38C437.78,106.51,437.74,107.19,437.69,107.72ZM418.81,104h13.63a6.53,6.53,0,0,0-6.79-5.83A6.64,6.64,0,0,0,418.81,104Z" transform="translate(-0.16 -0.01)"/><path class="cls-2" d="M440.44,115.53l2.15-4.26a16.21,16.21,0,0,0,8.37,2.38c3.55,0,5-1,5-2.65,0-4.58-14.83-.27-14.83-9.83,0-4.53,4.09-7.49,10.56-7.49a19.16,19.16,0,0,1,9,2.06L458.55,100a13.11,13.11,0,0,0-6.88-1.8c-3.41,0-5,1.12-5,2.69,0,4.85,14.83.54,14.83,9.92,0,4.49-4.13,7.41-10.87,7.41C446.6,118.23,442.59,117.06,440.44,115.53Z" transform="translate(-0.16 -0.01)"/><path class="cls-2" d="M480.76,116.61a8.82,8.82,0,0,1-5.39,1.62c-5.26,0-8.28-2.79-8.28-8.08V98.61h-3.95V94.13h3.95V88.65h5.62v5.48h6.43v4.48h-6.43V110c0,2.34,1.17,3.59,3.33,3.59a5.09,5.09,0,0,0,3.15-1Z" transform="translate(-0.16 -0.01)"/><path class="cls-2" d="M505.48,103.87v14h-5.3V115c-1.35,2.07-4,3.24-7.55,3.24-5.49,0-8.95-3-8.95-7.19,0-4,2.7-7.13,10-7.13h6.2v-.36c0-3.27-2-5.2-6-5.2a11.91,11.91,0,0,0-7.28,2.37l-2.2-4.08a16.92,16.92,0,0,1,10.16-3C501.48,93.68,505.48,97,505.48,103.87Zm-5.62,6.55v-2.79h-5.79c-3.83,0-4.86,1.44-4.86,3.19,0,2,1.71,3.32,4.58,3.32S498.92,112.88,499.86,110.42Z" transform="translate(-0.16 -0.01)"/><path class="cls-2" d="M512.68,84.61h5.61v33.3h-5.61Z" transform="translate(-0.16 -0.01)"/><path class="cls-2" d="M541.26,116.61a8.8,8.8,0,0,1-5.39,1.62c-5.26,0-8.27-2.79-8.27-8.08V98.61h-4V94.13h4V88.65h5.62v5.48h6.43v4.48h-6.43V110c0,2.34,1.17,3.59,3.32,3.59a5.07,5.07,0,0,0,3.15-1Z" transform="translate(-0.16 -0.01)"/><path class="cls-2" d="M567.56,107.72H548.73c.67,3.5,3.59,5.75,7.77,5.75a8.61,8.61,0,0,0,6.52-2.6l3,3.45c-2.15,2.56-5.53,3.91-9.66,3.91-8,0-13.26-5.17-13.26-12.3s5.26-12.25,12.41-12.25,12.13,4.89,12.13,12.38C567.65,106.51,567.61,107.19,567.56,107.72ZM548.68,104H562.3a6.52,6.52,0,0,0-6.78-5.83A6.63,6.63,0,0,0,548.68,104Z" transform="translate(-0.16 -0.01)"/><path class="cls-2" d="M596.69,104.18v13.73h-5.62v-13c0-4.27-2.11-6.33-5.71-6.33-4,0-6.69,2.42-6.69,7.22v12.12h-5.62V94h5.35V97c1.84-2.2,4.76-3.36,8.27-3.36C592.42,93.68,596.69,97,596.69,104.18Z" transform="translate(-0.16 -0.01)"/></g><g class="cls-4"><path d="M94.66,161.33A76.67,76.67,0,1,1,169.9,69.21a85.53,85.53,0,1,0,1.56,16.3c0-.19,0-.37,0-.57A76.72,76.72,0,0,1,94.66,161.33Z" transform="translate(-0.16 -0.01)"/><text x="-0.16" y="-0.01"/><path d="M169.91,69.23c.15.76.27,1.55.41,2.32C170.19,70.77,170.05,70,169.91,69.23Z" transform="translate(-0.16 -0.01)"/></g><path class="cls-5" d="M51.86,94.72s12.3,6.87,34,6.87c21.85,0,34-6.87,34-6.87" transform="translate(-0.16 -0.01)"/><g class="cls-6"><polyline class="cls-7" points="119.6 164.02 119.6 94.71 85.55 32.85 51.71 94.48 51.71 164.02"/><line class="cls-8" x1="73.71" y1="101.1" x2="73.71" y2="169.99"/><line class="cls-8" x1="97.56" y1="101.1" x2="97.56" y2="169.99"/></g><path class="cls-9" d="M65.29,69.23s7.4,4.13,20.44,4.13,20.44-4.13,20.44-4.13" transform="translate(-0.16 -0.01)"/><path class="cls-10" d="M51.86,94.49,85.7,32.86l34.07,61.85" transform="translate(-0.16 -0.01)"/></svg>