<?xml version="1.0" encoding="utf-8"?>
<!-- Generator: Adobe Illustrator 27.0.1, SVG Export Plug-In . SVG Version: 6.00 Build 0)  -->
<svg version="1.1" id="Ebene_1" xmlns="http://www.w3.org/2000/svg" xmlns:xlink="http://www.w3.org/1999/xlink" x="0px" y="0px"
	 viewBox="0 0 474.1 40" style="enable-background:new 0 0 474.1 40;" xml:space="preserve">
<style type="text/css">
	.st0{fill:#003A7D;stroke:#FFFFFF;stroke-width:1.0256;}
	.st1{fill-rule:evenodd;clip-rule:evenodd;fill:#FFFFFF;}
	.st2{fill-rule:evenodd;clip-rule:evenodd;fill:#ED1C24;}
	.st3{fill:#003087;}
	.st4{fill:#009CDE;}
	.st5{fill:#005DA0;}
	.st6{fill:#AEB1BC;}
	.st7{fill:#EDEDED;}
	.st8{fill:#393A41;}
</style>
<g id="LOGO_GIROPAY_1">
	<path id="background_pill" class="st0" d="M275.6,0c-4.1,0-7.4,3.4-7.4,7.5v25c0,4.1,3.3,7.5,7.4,7.5H351c4.1,0,7.4-3.4,7.4-7.5
		v-25c0-4.1-3.3-7.5-7.4-7.5H275.6z"/>
	<path id="background_giro" class="st1" d="M271.7,7.9v24.2c0,2.4,1.9,4.3,4.4,4.3h39.8V3.6h-39.8C273.7,3.6,271.7,5.5,271.7,7.9"/>
	<path id="pay_y" class="st1" d="M341.2,29c0.7,0.2,1.4,0.2,2.1,0.2c3.1,0,3.9-2.5,4.8-5l3.6-9.4h-3.4l-2,6.6h0l-2.1-6.6h-3.7
		l4,10.3c-0.2,0.9-0.9,1.4-1.7,1.4c-0.5,0-0.9-0.1-1.3-0.2L341.2,29z"/>
	<path id="pay_a" class="st1" d="M333.5,21.8c0-0.9,0.9-1.3,2.1-1.3c0.5,0,1,0,1.5,0.1c0,1.1-0.8,2.3-2.1,2.3
		C334.1,22.9,333.5,22.5,333.5,21.8z M340.5,24.9c-0.2-0.8-0.2-1.5-0.2-2.3v-3.7c0-3-2.2-4.1-4.8-4.1c-1.5,0-2.8,0.2-4,0.7l0.1,2.3
		c1-0.5,2.1-0.7,3.2-0.7c1.3,0,2.3,0.4,2.3,1.7c-0.4-0.1-1.1-0.1-1.6-0.1c-1.9,0-5.2,0.4-5.2,3.3c0,2.1,1.8,3.1,3.8,3.1
		c1.4,0,2.4-0.5,3.2-1.8h0c0,0.5,0.1,1,0.1,1.5H340.5z"/>
	<path id="pay_p" class="st1" d="M325.6,20c0,1.6-0.8,2.7-2.1,2.7c-1.2,0-2.1-1.1-2.1-2.6c0-1.5,0.8-2.6,2.1-2.6
		C324.8,17.5,325.6,18.7,325.6,20z M317.9,29.2h3.5v-5.5h0c0.7,1.2,2,1.6,3.2,1.6c3,0,4.6-2.5,4.6-5.4c0-2.4-1.5-5.1-4.3-5.1
		c-1.6,0-3,0.6-3.7,2h0v-1.8h-3.2V29.2z"/>
	<path id="giro_o" class="st2" d="M307.1,22.8c-1.5,0-2.2-1.3-2.2-2.7c0-1.5,0.6-2.8,2.2-2.8c1.5,0,2.2,1.3,2.2,2.8
		C309.3,21.5,308.7,22.8,307.1,22.8z M307.1,25.1c3.2,0,5.6-1.9,5.6-5.1c0-3.3-2.4-5.1-5.6-5.1c-3.2,0-5.6,1.9-5.6,5.1
		C301.5,23.2,303.9,25.1,307.1,25.1z"/>
	<path id="giro_r" class="st2" d="M301.5,15c-0.3-0.1-0.8-0.1-1.1-0.1c-1.5,0-2.3,0.8-2.9,2.1h0v-1.8h-3.1v10h3.4v-4.2
		c0-2,0.9-3.1,2.5-3.1c0.4,0,0.8,0,1.1,0.1L301.5,15z"/>
	<path id="giro_i" class="st2" d="M289.2,14.2h3.1v-2.4h-3.1V14.2z M289.2,25.1h3.1v-9.4h-3.1V25.1z"/>
	<path id="giro_g" class="st2" d="M280.2,20c0-1.4,0.6-2.5,1.8-2.5c1.4,0,2,1.2,2,2.3c0,1.5-0.9,2.5-2,2.5
		C281,22.4,280.2,21.5,280.2,20z M287.1,15.1h-2.9v1.8h0c-0.7-1.2-1.8-2-3.1-2c-2.9,0-4.2,2.2-4.2,5.2c0,2.9,1.6,5,4.1,5
		c1.3,0,2.3-0.5,3.1-1.7h0v0.5c0,1.9-1,2.9-2.8,2.9c-1.3,0-2.2-0.3-3.1-0.8l-0.2,2.7c0.7,0.3,2,0.6,3.5,0.6c3.7,0,5.6-1.3,5.6-5.4
		V15.1z"/>
</g>
<g>
	<path class="st3" d="M17,6.7H9.1c-0.5,0-1,0.4-1.1,0.9L4.8,27.9c-0.1,0.4,0.2,0.7,0.6,0.7h3.8c0.5,0,1-0.4,1.1-0.9l0.8-5.5
		c0.1-0.5,0.5-0.9,1.1-0.9h2.5c5.2,0,8.2-2.5,9-7.5c0.3-2.1,0-3.9-1-5.1C21.7,7.4,19.6,6.7,17,6.7z M17.9,14.1
		c-0.4,2.8-2.6,2.8-4.7,2.8H12l0.8-5.3c0-0.3,0.3-0.5,0.6-0.5H14c1.4,0,2.7,0,3.5,0.8C17.9,12.4,18.1,13.1,17.9,14.1z"/>
	<path class="st3" d="M40.6,14h-3.8c-0.3,0-0.6,0.2-0.6,0.5l-0.2,1l-0.3-0.4c-0.8-1.2-2.6-1.6-4.5-1.6c-4.2,0-7.7,3.1-8.4,7.6
		c-0.4,2.2,0.1,4.4,1.4,5.8c1.1,1.3,2.8,1.9,4.8,1.9c3.4,0,5.3-2.1,5.3-2.1l-0.2,1c-0.1,0.4,0.2,0.8,0.6,0.8h3.5
		c0.5,0,1-0.4,1.1-0.9l2-13C41.4,14.4,41,14,40.6,14z M35.4,21.3c-0.4,2.1-2,3.7-4.3,3.7c-1.1,0-1.9-0.3-2.5-1
		c-0.6-0.7-0.8-1.6-0.6-2.6c0.3-2.1,2.1-3.7,4.3-3.7c1.1,0,1.9,0.4,2.5,1C35.3,19.4,35.5,20.3,35.4,21.3z"/>
	<path class="st3" d="M60.8,14H57c-0.4,0-0.7,0.2-0.9,0.5l-5.3,7.7l-2.2-7.4c-0.1-0.5-0.6-0.8-1-0.8h-3.8c-0.4,0-0.8,0.4-0.6,0.9
		l4.2,12.3l-4,5.5c-0.3,0.4,0,1,0.5,1h3.8c0.4,0,0.7-0.2,0.9-0.5l12.7-18.3C61.6,14.6,61.3,14,60.8,14z"/>
	<path class="st4" d="M73.4,6.7h-7.9c-0.5,0-1,0.4-1.1,0.9l-3.1,20.2c-0.1,0.4,0.2,0.7,0.6,0.7h4.1c0.4,0,0.7-0.3,0.7-0.6l0.9-5.8
		c0.1-0.5,0.5-0.9,1.1-0.9h2.5c5.2,0,8.2-2.5,9-7.5c0.3-2.1,0-3.9-1-5.1C77.9,7.4,76,6.7,73.4,6.7z M74.3,14.1
		c-0.4,2.8-2.6,2.8-4.7,2.8h-1.2l0.8-5.3c0-0.3,0.3-0.5,0.6-0.5h0.5c1.4,0,2.7,0,3.5,0.8C74.3,12.4,74.4,13.1,74.3,14.1z"/>
	<path class="st4" d="M96.9,14h-3.8c-0.3,0-0.6,0.2-0.6,0.5l-0.2,1L92,15.1c-0.8-1.2-2.6-1.6-4.5-1.6c-4.2,0-7.7,3.1-8.4,7.6
		c-0.4,2.2,0.1,4.4,1.4,5.8c1.1,1.3,2.8,1.9,4.8,1.9c3.4,0,5.3-2.1,5.3-2.1l-0.2,1c-0.1,0.4,0.2,0.8,0.6,0.8h3.5
		c0.5,0,1-0.4,1.1-0.9l2-13C97.6,14.4,97.3,14,96.9,14z M91.6,21.3c-0.4,2.1-2,3.7-4.3,3.7c-1.1,0-1.9-0.3-2.5-1
		c-0.6-0.7-0.8-1.6-0.6-2.6c0.3-2.1,2.1-3.7,4.3-3.7c1.1,0,1.9,0.4,2.5,1C91.6,19.4,91.8,20.3,91.6,21.3z"/>
	<path class="st4" d="M101.4,7.2l-3.2,20.6c-0.1,0.4,0.2,0.7,0.6,0.7h3.2c0.5,0,1-0.4,1.1-0.9l3.2-20.2c0.1-0.4-0.2-0.7-0.6-0.7
		h-3.7C101.7,6.7,101.5,6.9,101.4,7.2z"/>
</g>
<g>
	<path class="st5" d="M424,22.3c-1.8,0-3.5-0.4-4.9-1.2l0.5-3c1.4,0.7,2.8,1.2,4.4,1.2c1.7,0,2.5-0.6,2.5-1.7c0-2.5-7.2-1.4-7.2-6.7
		c0-2.7,1.7-4.8,5.7-4.8c1.5,0,3.2,0.3,4.4,0.8l-0.4,3c-1.3-0.4-2.6-0.7-3.8-0.7c-2,0-2.5,0.7-2.5,1.5c0,2.4,7.2,1.3,7.2,6.7
		C429.9,20.4,427.7,22.3,424,22.3z"/>
	<path class="st5" d="M443.5,18.9V22h-10.7V6.3h10.7v3.1h-7.2v3.1h5.8v2.8h-5.8V19L443.5,18.9L443.5,18.9z"/>
	<path class="st5" d="M452.3,16.9h-2.1V22h-3.5V6.3h5.6c4.4,0,6.2,1.7,6.2,5.4C458.5,15,456.7,16.9,452.3,16.9z M452.3,9.3h-2.1v4.8
		h2.1c1.7,0,2.5-0.4,2.5-2.4C454.8,9.8,454.1,9.3,452.3,9.3z"/>
	<path class="st5" d="M469.3,19h-5.7l-0.9,3.1h-3.7l5.4-15.8h4.2l5.5,15.8h-4L469.3,19z M466,10.6l-1.6,5.4h4l-1.5-5.4l-0.4-1.7
		h-0.1L466,10.6z"/>
	<path class="st5" d="M423.9,32.2l0,1.5h-4.6v-7.3h1.7v5.8H423.9z"/>
	<path class="st5" d="M428.3,33.2L428.3,33.2c-0.4,0.4-0.9,0.7-1.6,0.7c-1.1,0-1.8-0.6-1.8-2c0-1.1,0.8-1.8,2.1-1.8
		c0.4,0,0.8,0.1,1.1,0.2v-0.3c0-0.6-0.3-0.9-1.1-0.9c-0.6,0-1.1,0.1-1.6,0.3l-0.1-1.2c0.6-0.3,1.3-0.4,2-0.4c1.7,0,2.4,0.7,2.4,2.4
		v3.7h-1.2L428.3,33.2z M428.1,31.2c-0.1-0.1-0.4-0.1-0.8-0.1c-0.7,0-1,0.3-1,0.8c0,0.6,0.3,0.8,0.8,0.8s1-0.3,1-0.7V31.2z"/>
	<path class="st5" d="M432.9,33.9c-0.7,0-1.4-0.1-1.9-0.4l0.2-1.3c0.5,0.3,1.2,0.4,1.7,0.4c0.6,0,0.9-0.2,0.9-0.6
		c0-0.9-2.7-0.4-2.7-2.5c0-1.1,0.7-1.8,2.2-1.8c0.6,0,1.2,0.1,1.7,0.3l-0.1,1.2c-0.5-0.2-1.1-0.3-1.6-0.3c-0.5,0-0.8,0.2-0.8,0.5
		c0,0.9,2.7,0.4,2.7,2.4C435.1,33.1,434.5,33.9,432.9,33.9z"/>
	<path class="st5" d="M438.1,29v3c0,0.5,0.2,0.6,0.7,0.6c0.2,0,0.4,0,0.5-0.1l0.1,1.1c-0.2,0.1-0.6,0.2-1,0.2
		c-1.2,0-1.8-0.7-1.8-1.8v-3.1h-0.7v-1.1h0.7l0.3-1.3l1.2-0.1v1.5h1.3V29L438.1,29L438.1,29z"/>
	<path class="st5" d="M442.4,33.9c-0.7,0-1.4-0.1-1.9-0.4l0.2-1.3c0.5,0.3,1.2,0.4,1.7,0.4c0.6,0,0.9-0.2,0.9-0.6
		c0-0.9-2.7-0.4-2.7-2.5c0-1.1,0.7-1.8,2.2-1.8c0.6,0,1.2,0.1,1.7,0.3l-0.1,1.2c-0.5-0.2-1.1-0.3-1.6-0.3c-0.5,0-0.8,0.2-0.8,0.5
		c0,0.9,2.7,0.4,2.7,2.4C444.6,33.1,444,33.9,442.4,33.9z"/>
	<path class="st5" d="M449.7,29.3c-0.3-0.1-0.7-0.2-1-0.2c-1.1,0-1.5,0.5-1.5,1.7c0,1.3,0.5,1.8,1.4,1.8c0.4,0,0.8-0.1,1.1-0.2
		l0.1,1.2c-0.4,0.2-0.9,0.3-1.5,0.3c-1.7,0-2.7-1-2.7-3.1c0-2,0.8-3.1,2.7-3.1c0.5,0,1.1,0.1,1.4,0.3L449.7,29.3z"/>
	<path class="st5" d="M454.7,33.7V30c0-0.6-0.3-0.9-0.9-0.9c-0.4,0-0.8,0.2-1,0.5v4.2h-1.5v-7.6l1.5-0.1v1.4l0,0.8l0,0
		c0.4-0.4,1-0.5,1.5-0.5c1.3,0,2,0.8,2,2.3v3.8H454.7z"/>
	<path class="st5" d="M457.8,33.7v-5.9l1.2-0.1l0.1,1h0c0.4-0.7,0.9-1.1,1.6-1.1c0.3,0,0.5,0,0.6,0.1l-0.1,1.5
		c-0.2-0.1-0.4-0.1-0.6-0.1c-0.8,0-1.4,0.6-1.4,1.6v3H457.8z"/>
	<path class="st5" d="M463.7,27.2c-0.6,0-0.9-0.2-0.9-0.6c0-0.4,0.3-0.6,0.9-0.6c0.6,0,0.9,0.2,0.9,0.6
		C464.5,27,464.3,27.2,463.7,27.2z M462.9,33.7v-5.9l1.5-0.1v5.9L462.9,33.7L462.9,33.7z"/>
	<path class="st5" d="M466.6,33.7V29h-0.7v-1.1h0.7v-0.3c0-0.9,0.6-1.6,2-1.6c0.3,0,0.7,0,1,0.1l-0.1,1c-0.2,0-0.4-0.1-0.6-0.1
		c-0.6,0-0.8,0.2-0.8,0.6v0.2h1.3v1.1h-1.3v4.8L466.6,33.7L466.6,33.7z"/>
	<path class="st5" d="M472.5,29v3c0,0.5,0.2,0.6,0.7,0.6c0.2,0,0.4,0,0.5-0.1l0.1,1.1c-0.2,0.1-0.6,0.2-1,0.2
		c-1.2,0-1.8-0.7-1.8-1.8v-3.1h-0.7v-1.1h0.7l0.3-1.3l1.2-0.1v1.5h1.3V29L472.5,29L472.5,29z"/>
	<path class="st6" d="M407.1,13.7l-4.3-3.3l-4.3-3.3c-0.3-0.2-0.7-0.2-1,0.1l-3.8,5.1c-0.1,0.1-0.1,0.2-0.1,0.3
		c-0.1,0.3,0,0.5,0.3,0.7l2.6,1.9l3.5,2.6l2.6,1.9c0.2,0.2,0.5,0.2,0.8,0c0.1-0.1,0.2-0.1,0.2-0.2l3.8-5.1
		C407.4,14.3,407.4,13.9,407.1,13.7z M398.1,7.5l2.6,1.9l0,0l1.7,1.3l1.8,1.3l0,0l2.6,1.9c0.1,0.1,0.1,0.2,0,0.3l-0.6,0.9l-2.9-2.2
		l-3.2-2.4l-2.9-2.2l0.6-0.9C397.8,7.5,398,7.4,398.1,7.5z M403,19.4c0,0-0.1,0.1-0.1,0.1c-0.1,0-0.1,0-0.2,0l-2.6-2l-3.5-2.6
		l-2.6-2c-0.1,0-0.1-0.1-0.1-0.1c0,0,0-0.1,0-0.2l0.7-0.9c0,0,0.8-1,1.5-1.9L399,12l3.2,2.4l2.9,2.2c-0.7,0.9-1.5,1.9-1.5,1.9
		L403,19.4z"/>
	<g transform="matrix(0.144619, 0, 0, 0.144619, -7.250457, -3.988513)">
		<path class="st5" d="M2870.2,175.9l45.3-60.6l4.6-6.1c0,0,0.1-0.2,0.2-0.2c0.3-0.4,0.3-1-0.2-1.4l-12.8-9.3
			c-0.4-0.3-1-0.2-1.4,0.3c-0.1,0.1-0.2,0.2-0.2,0.2l-1.7,2.2l-56,74.9h-61.7l-23.1,76.1h154.3l-21.8-76.1L2870.2,175.9z
			 M2767.4,249l21.1-70.1h57.2l-5,6.6l-7.1,9.8l-0.8,1.5l-0.8,1.7l-0.8,1.9l-0.8,2l-0.8,2.2l-0.8,2.2l-0.7,2.2l-0.7,2.1l-0.6,2
			l-0.6,1.8l-0.5,1.7l-0.3,1.4l-0.3,1l-0.3,0.6c0,0-0.1,0.2-0.2,0.3c-0.2,0.2-1,1-1.7,0.4c-0.7-0.5-0.6-2.3-0.5-3.1
			c0.2-2.6,0.4-5.2,0.6-7.8c0.1-0.9-1-1.4-1.7-1c-3.1,1.8-5.1,4-6.8,6.5c0.2-0.6,0.3-1.2,0.5-1.7c0.7-2.7,1.7-5.4,2.2-8.2
			c0.3-1.6-0.2-3.4-2-3.7c-2.1-0.3-3.4,1.8-4.4,3.2c-3,4.4-4.9,9.8-8.6,13.5c-1.4,1.4-3,2.4-5.1,1.8c-2.4-0.7-3.3,2.1,0.9,2.5
			c4.1,0.3,7.2-4,9.1-7.1c1.4-2.2,2.5-4.5,3.9-6.8c0.6-1,1.3-2.1,2-3.1c0.3-0.4,0.9-1.6,1.5-1.7c0.7-0.2,0.5,0.3,0.5,0.8
			c-0.1,1.3-0.6,2.6-1,3.9c-0.3,1.4-0.8,2.8-1.1,4.1c-0.8,3-1.6,5.9-2.4,8.8c-0.3,1.3,1.4,1.9,2.2,0.9c3-4.2,4.4-7.8,8-10.5
			c-0.1,1-0.2,1.8-0.3,2.8c-0.1,1.5-0.4,3.1-0.3,4.6c0.2,2.5,2.1,4.2,4.4,3.1c1.2-0.6,2.1-1.5,2.1-1.5l0.2-0.1l0.5-0.3l0.9-0.6
			l1.2-0.9l1.4-1l1.5-1l1.8-1.2l1.8-1.3l1.8-1.3l1.8-1.3l1.7-1.3l1.7-1.2l1.6-1.2l1.3-1l1-1l0.9-0.8v-0.1l0,0l5.7-6.6l14.5-19.2
			h25.6l19.9,70.1L2767.4,249L2767.4,249z"/>
		<path class="st5" d="M2925.9,112.1l-1.7-1.3c-0.3-0.3-0.8-0.2-1,0.2l-21.5,28.7c-0.3,0.3-0.2,0.8,0.2,1l1.7,1.3
			c0.3,0.3,0.8,0.2,1-0.2l21.5-28.7C2926.3,112.8,2926.3,112.3,2925.9,112.1z"/>
		<polygon class="st5" points="2839.4,234.1 2882.2,234.1 2881.3,230.7 2839.4,230.7 2797.5,230.7 2796.5,234.1 		"/>
	</g>
</g>
<g>
	<path class="st7" d="M230.3,39.7h-98.9L138,0.1h98.9L230.3,39.7z"/>
	<path class="st8" d="M163.9,13.3c-4.4,0-7.8,3.3-7.8,7.2c0,3.5,2.8,6,6.5,6c4.4,0,7.8-3.4,7.8-7.3
		C170.5,15.6,167.7,13.3,163.9,13.3z M162.9,23.1c-1.7,0-2.9-1.1-2.9-2.8c0-1.9,1.5-3.7,3.6-3.7c1.7,0,2.9,1.2,2.9,2.9
		C166.5,21.4,165.1,23.1,162.9,23.1z"/>
	<path class="st8" d="M190.7,13.3c-4.4,0-7.8,3.3-7.8,7.2c0,3.5,2.8,6,6.5,6c4.4,0,7.8-3.4,7.8-7.3
		C197.2,15.6,194.5,13.3,190.7,13.3z M189.7,23.1c-1.7,0-2.9-1.1-2.9-2.8c0-1.9,1.5-3.7,3.6-3.7c1.7,0,2.9,1.2,2.9,2.9
		C193.3,21.4,191.8,23.1,189.7,23.1z"/>
	<path class="st8" d="M210.3,17.4c0-2.4-1.8-3.9-5.2-3.9h-4.7l-2.1,12.6h4l0.7-4h0.2l2.1,4h4.5l-2.9-4.4
		C209,21,210.3,19.4,210.3,17.4z M203.9,19.5h-0.6l0.4-2.7h0.5c1.2,0,1.9,0.4,1.9,1.2C206.2,19,205.3,19.5,203.9,19.5z"/>
	<path class="st8" d="M151.6,18.6c-1.5-0.8-1.8-1-1.8-1.4c0-0.5,0.6-0.8,1.4-0.8c1,0,2.4,0.1,3.8,1.5c0.3-1.1,0.9-2.1,1.7-2.9
		c-2-1.1-3.9-1.7-5.6-1.7c-3.4,0-5.3,1.8-5.3,4c0,1.9,1.4,2.9,3.1,3.7c1.5,0.8,1.9,1,1.9,1.5c0,0.5-0.6,0.8-1.5,0.8
		c-1.4,0-3.1-0.9-4.1-1.8l-0.6,3.5c1,0.7,2.5,1.5,4.8,1.5c3.5,0,5.4-1.8,5.4-4C154.7,20.6,153.5,19.6,151.6,18.6z"/>
	<path class="st8" d="M180.9,19.1h-4.7l0.4-2.2h5c0.7-1.3,1.7-2.5,2.9-3.3h-8.1c-1.8,0-3.3,1.2-3.6,2.9l-1.6,9.7h4l0.7-4h4.7
		l0.3-2.2C180.8,19.7,180.8,19.4,180.9,19.1z"/>
	<path class="st8" d="M210.4,13.6c1.1,0.8,1.7,2,1.9,3.3h3.3l-1.5,9.3h4l1.5-9.3h3.7l0.5-3.3H210.4z"/>
</g>
</svg>
