<?xml version="1.0" encoding="utf-8"?>
<!-- Generator: Adobe Illustrator 26.1.0, SVG Export Plug-In . SVG Version: 6.00 Build 0)  -->
<svg version="1.1" id="Ebene_1" xmlns="http://www.w3.org/2000/svg" xmlns:xlink="http://www.w3.org/1999/xlink" x="0px" y="0px"
	 viewBox="0 0 258.4 258.4" style="enable-background:new 0 0 258.4 258.4;" xml:space="preserve">
<style type="text/css">
	.st0{fill:#46933B;}
	.st1{clip-path:url(#SVGID_00000101068302569135131480000003673948601711293596_);}
	.st2{fill:#57D047;}
	.st3{fill:#FDFEFD;}
</style>
<path class="st0" d="M129.2,1.2c-70.7,0-128,57.3-128,128s57.3,128,128,128s128-57.3,128-128S199.9,1.2,129.2,1.2z M196.2,208.5
	c-1.3,1.2-2.6,3.6-4.6,2.4c-1.8-1-1-3.5-1-5.3c-0.1-12.8-0.1-25.7,0-38.5c0.1-4-1-8-3-11.5c-16.3-28.7-32.6-57.4-48.8-86.2
	c-2.1-3.8-4-7.8-9.3-7.6c-5.3,0.1-7.2,4-9.2,7.8c-15.5,28.6-31.1,57.1-46.6,85.6c-2.1,3.7-3.1,8-3,12.2c0.1,14.9,0,29.8,0,46.8
	c-22.2-17-35.5-37.2-40.6-62.3C18.5,94.7,55.8,40.6,113.6,30.5c55.2-9.7,108.9,29.3,117.1,86C235.9,153,223.8,183.9,196.2,208.5z
	 M129.4,163c-11.3,0.3-22.2-1.9-33-4.8c-4.1-1.1-6.4-2.3-3.4-7c3.6-5.6,5.3-13,10.1-17c5-4.3,11.9,1.2,18.1,1.5
	c10.3,0.4,20.4,0.3,30.3-2.8c3.7-1.1,6-0.8,7.9,3.1c2.6,5.3,5.5,10.5,8.6,15.4c2,3.3,1.8,4.7-2.2,5.9
	C153.9,160.9,141.9,163.3,129.4,163z"/>
<g>
	<defs>
		<circle id="SVGID_1_" cx="129.2" cy="129.2" r="128"/>
	</defs>
	<clipPath id="SVGID_00000116203568693129204740000002830443616076101506_">
		<use xlink:href="#SVGID_1_"  style="overflow:visible;"/>
	</clipPath>
	<g style="clip-path:url(#SVGID_00000116203568693129204740000002830443616076101506_);">
		<path class="st2" d="M147,258.3h-35.6c-2-2.6-5.2-1.9-7.8-2.5C34.9,240.9-9,175.9,3.3,106.9C13.5,49.1,64.9,3.4,121.8,1.5
			c63.9-2.1,117.3,36.4,132.5,95.8c1.3,5.2,2.7,10.3,4,15.5v35.7c-2.5,2.3-1.9,5.6-2.6,8.5c-12.7,51.2-44.5,83.7-95.2,98
			C156,256.2,151.2,256,147,258.3z M70.7,214.1c0-16.9,0.1-31.8,0-46.8c-0.1-4.3,0.9-8.5,3-12.2c15.6-28.5,31.2-57.1,46.7-85.7
			c2.1-3.8,4.1-7.7,9.3-7.8c5.2-0.1,7.1,3.9,9.3,7.6c16.2,28.7,32.5,57.5,48.8,86.2c2,3.5,3.1,7.5,3,11.5c-0.1,12.8-0.1,25.7,0,38.5
			c0,1.8-0.8,4.2,1,5.3c2.1,1.2,3.3-1.2,4.6-2.4c27.6-24.6,39.7-55.5,34.5-92c-8.2-56.7-61.9-95.7-117.1-86
			C55.8,40.6,18.5,94.7,30.1,151.8C35.2,177,48.5,197.2,70.7,214.1z M129.4,163c12.5,0.3,24.5-2.1,36.4-5.6c4-1.2,4.2-2.6,2.2-5.9
			c-3.2-5-6-10.2-8.6-15.5c-1.8-3.9-4.2-4.2-7.9-3.1c-9.9,3-20.1,3.2-30.3,2.8c-6.2-0.2-13.1-5.8-18.1-1.5c-4.7,4-6.5,11.4-10.1,17
			c-3,4.7-0.8,5.9,3.4,7C107.2,161.1,118.1,163.3,129.4,163z"/>
		<path class="st3" d="M147,258.3c4.1-2.4,9-2.1,13.4-3.4c50.7-14.2,82.6-46.7,95.2-98c0.7-2.9,0.1-6.2,2.6-8.5
			c0,35.2-0.1,70.4,0.1,105.6c0,3.6-0.8,4.4-4.4,4.4C218.4,258.3,182.7,258.3,147,258.3z"/>
	</g>
</g>
</svg>
