<svg xmlns="http://www.w3.org/2000/svg" xmlns:xlink="http://www.w3.org/1999/xlink" width="1166" height="1080" viewBox="0 0 1166 1080">
  <defs>
    <clipPath id="clip-path">
      <rect id="Rechteck_1970" data-name="Rechteck 1970" width="1166" height="1080" transform="translate(754)" fill="#fff" stroke="#707070" stroke-width="1"/>
    </clipPath>
  </defs>
  <g id="Gruppe_maskieren_315" data-name="Gruppe maskieren 315" transform="translate(-754)" clip-path="url(#clip-path)">
    <g id="P1020331" transform="translate(2939.618 950.497) rotate(153)" fill="none">
      <path d="M1933.923,944.1c357.724-256.471-97.634-815.323-378.786-892.225C1366.884.378,67.313,82.06,67.313,82.06s341.5,1406.008,296.318,1487.062c234.585-278.371,353.527-406.779,599.948-394.724S1576.2,1200.566,1933.923,944.1Z" stroke="none"/>
      <path d="M 373.1124267578125 1548.57763671875 C 590.3704223632812 1291.366088867188 709.0416259765625 1167.622924804688 932.584716796875 1167.622924804688 C 942.7322387695312 1167.622924804688 953.2589111328125 1167.88623046875 963.8724975585938 1168.405395507812 C 1021.455871582031 1171.222290039062 1078.291137695312 1173.7509765625 1140.458129882812 1173.7509765625 C 1339.15087890625 1173.7509765625 1637.214721679688 1149.438720703125 1930.42724609375 939.21923828125 C 2034.052490234375 864.9248046875 2076.459228515625 756.720947265625 2053.06298828125 626.3056640625 C 2009.16943359375 381.6334228515625 1741.716674804688 109.1250915527344 1553.55419921875 57.65787124633789 C 1512.751708984375 46.49703979492188 1414.484497070312 40.83815002441406 1261.482543945312 40.83815002441406 C 846.8247680664062 40.83815002441406 152.8513488769531 82.80376434326172 74.83137512207031 87.60575866699219 C 102.1236877441406 200.2823028564453 380.5189819335938 1355.228637695312 373.1124267578125 1548.57763671875 M 363.630859375 1569.121704101562 C 408.808349609375 1488.068115234375 67.31251525878906 82.06009674072266 67.31251525878906 82.06009674072266 C 67.31251525878906 82.06009674072266 818.6259155273438 34.83815383911133 1261.482421875 34.83815383911133 C 1401.043701171875 34.83815383911133 1510.027221679688 39.53153228759766 1555.13720703125 51.8703727722168 C 1836.288940429688 128.7728729248047 2291.64697265625 687.624267578125 1933.92333984375 944.0953979492188 C 1576.199340820312 1200.56640625 1210.0009765625 1186.453002929688 963.5794677734375 1174.398193359375 C 717.1563720703125 1162.341796875 598.2152709960938 1290.7509765625 363.630859375 1569.121704101562 Z" stroke="none" fill="#eae22a"/>
    </g>
  </g>
</svg>
