<svg xmlns="http://www.w3.org/2000/svg" width="40" height="40" viewBox="0 0 40 40">
  <g id="Gruppe_3135" data-name="Gruppe 3135" transform="translate(-384 -663)">
    <rect id="Rechteck_2240" data-name="Rechteck 2240" width="40" height="40" transform="translate(384 663)" fill="none"/>
    <path id="Differenzmenge_71" data-name="Differenzmenge 71" d="M7064.462-2560.263a.836.836,0,0,1-.6-.254l-5.585-5.583a.86.86,0,0,1-.254-.613.861.861,0,0,1,.254-.613l5.585-5.583a.835.835,0,0,1,.6-.254.864.864,0,0,1,.876.867v3.6h6.95a2.45,2.45,0,0,0,2.168-1.281,2.448,2.448,0,0,0-.062-2.52l-1.925-3.078a.591.591,0,0,1,.188-.81l2.364-1.477a.579.579,0,0,1,.311-.089.58.58,0,0,1,.5.275l1.921,3.076a6.368,6.368,0,0,1,.168,6.543,6.37,6.37,0,0,1-5.638,3.326h-6.943v3.6A.864.864,0,0,1,7064.462-2560.263Zm-10.879-4.468h-3.622a6.368,6.368,0,0,1-5.638-3.325,6.371,6.371,0,0,1,.168-6.545l3.68-5.893-3.055-1.909a.855.855,0,0,1-.395-.878.855.855,0,0,1,.658-.7l7.694-1.777a.935.935,0,0,1,.2-.021.859.859,0,0,1,.842.672l1.777,7.695a.843.843,0,0,1-.158.727.9.9,0,0,1-.691.336.846.846,0,0,1-.455-.133l-3.055-1.909-3.682,5.893a2.454,2.454,0,0,0-.064,2.521,2.449,2.449,0,0,0,2.168,1.281h3.628a.588.588,0,0,1,.588.586v2.792A.589.589,0,0,1,7053.583-2564.73Zm17.758-15.528a.942.942,0,0,1-.2-.021l-7.694-1.777a.855.855,0,0,1-.658-.7.855.855,0,0,1,.395-.878l3.055-1.908-3.014-4.825a2.477,2.477,0,0,0-2.113-1.164,2.462,2.462,0,0,0-2.1,1.166l-1.255,2.006a.58.58,0,0,1-.5.275.587.587,0,0,1-.311-.089l-2.369-1.478a.593.593,0,0,1-.187-.811l1.254-2.008a6.411,6.411,0,0,1,5.468-3.028,6.413,6.413,0,0,1,5.471,3.028l3.014,4.825,3.051-1.907a.846.846,0,0,1,.457-.135.884.884,0,0,1,.686.338.84.84,0,0,1,.162.727l-1.777,7.694A.86.86,0,0,1,7071.341-2580.258Z" transform="translate(-6657.122 3261.881)" fill="#fff"/>
  </g>
</svg>
