<svg xmlns="http://www.w3.org/2000/svg" width="40" height="40" viewBox="0 0 40 40">
  <g id="Gruppe_3135" data-name="Gruppe 3135" transform="translate(-384 -663)">
    <rect id="Rechteck_2240" data-name="Rechteck 2240" width="40" height="40" transform="translate(384 663)" fill="none"/>
    <path id="Icon_awesome-recycle" data-name="Icon awesome-recycle" d="M12.882,18.281a1.118,1.118,0,0,1-1.68,1.2L8.359,17.7l-3.55,5.682A2.238,2.238,0,0,0,6.7,26.8H10.33a.838.838,0,0,1,.838.838v2.792a.838.838,0,0,1-.838.838H6.709A6.7,6.7,0,0,1,1.027,21.018l3.547-5.681L1.731,13.561a1.118,1.118,0,0,1,.341-2.035L9.766,9.749a1.117,1.117,0,0,1,1.339.837l1.777,7.694ZM19.762,5.513l2.882,4.612L19.8,11.9a1.118,1.118,0,0,0,.341,2.035l7.694,1.776a1.117,1.117,0,0,0,1.339-.837l1.776-7.694a1.118,1.118,0,0,0-1.68-1.2l-2.84,1.775-2.88-4.612a6.7,6.7,0,0,0-11.364,0L10.933,5.154A.838.838,0,0,0,11.2,6.308l2.368,1.479a.838.838,0,0,0,1.154-.266l1.254-2.006A2.236,2.236,0,0,1,19.762,5.513Zm14.949,15.5L32.79,17.942a.838.838,0,0,0-1.154-.267l-2.363,1.477a.838.838,0,0,0-.266,1.154l1.924,3.079A2.237,2.237,0,0,1,29.035,26.8h-6.7V23.454a1.118,1.118,0,0,0-1.906-.79l-5.584,5.583a1.117,1.117,0,0,0,0,1.579l5.584,5.583a1.118,1.118,0,0,0,1.906-.79V31.27h6.692A6.7,6.7,0,0,0,34.71,21.018Z" transform="translate(386.131 666.131)" fill="#fff" stroke="#001e34" stroke-width="0.5"/>
  </g>
</svg>
