<svg xmlns="http://www.w3.org/2000/svg" width="26" height="19.5" viewBox="0 0 26 19.5">
  <path id="Icon_awesome-car" data-name="Icon awesome-car" d="M25.39,10.188H22.35L21.5,8.075A5.659,5.659,0,0,0,16.225,4.5H9.775A5.66,5.66,0,0,0,4.495,8.075L3.65,10.188H.61a.609.609,0,0,0-.591.757l.3,1.219a.609.609,0,0,0,.591.462H1.934A3.227,3.227,0,0,0,.813,15.063V17.5a3.224,3.224,0,0,0,.813,2.129v2.746A1.625,1.625,0,0,0,3.25,24H4.875A1.625,1.625,0,0,0,6.5,22.375V20.75h13v1.625A1.625,1.625,0,0,0,21.125,24H22.75a1.625,1.625,0,0,0,1.625-1.625V19.629a3.222,3.222,0,0,0,.813-2.129V15.063a3.229,3.229,0,0,0-1.121-2.438h1.019a.609.609,0,0,0,.591-.462l.3-1.219a.61.61,0,0,0-.592-.757ZM7.512,9.282A2.438,2.438,0,0,1,9.775,7.75h6.449a2.438,2.438,0,0,1,2.263,1.532l1.012,2.53H6.5l1.012-2.53ZM4.875,17.49A1.533,1.533,0,0,1,3.25,15.87a1.533,1.533,0,0,1,1.625-1.62,3.126,3.126,0,0,1,2.438,2.43C7.313,17.652,5.85,17.49,4.875,17.49Zm16.25,0c-.975,0-2.438.162-2.438-.81a3.126,3.126,0,0,1,2.438-2.43,1.533,1.533,0,0,1,1.625,1.62,1.533,1.533,0,0,1-1.625,1.62Z" transform="translate(0 -4.5)" fill="#fff"/>
</svg>
