<svg xmlns="http://www.w3.org/2000/svg" width="41" height="41" viewBox="0 0 41 41">
  <g id="Gruppe_2657" data-name="Gruppe 2657" transform="translate(-1549 -1405)">
    <rect id="Rechteck_1717" data-name="Rechteck 1717" width="41" height="41" transform="translate(1549 1405)" fill="rgba(255,255,255,0)"/>
    <path id="Icon_metro-infinite" data-name="Icon metro-infinite" d="M32.085,28.193A8.976,8.976,0,0,1,25.7,25.547L21.846,21.7,18,25.546a9.035,9.035,0,1,1,0-12.778l3.85,3.85,3.85-3.85a9.035,9.035,0,1,1,6.389,15.425Zm-3.85-5.185a5.445,5.445,0,1,0,0-7.7l-3.85,3.85,3.85,3.851Zm-16.629-9.3a5.445,5.445,0,1,0,3.85,9.3l3.85-3.85-3.85-3.85A5.409,5.409,0,0,0,11.606,13.712Z" transform="translate(1547.655 1406.343)" fill="#55d045"/>
  </g>
</svg>
