<svg width="188" height="182" viewBox="0 0 188 182" fill="none" xmlns="http://www.w3.org/2000/svg">
<mask id="mask0_533_5021" style="mask-type:luminance" maskUnits="userSpaceOnUse" x="0" y="0" width="188" height="188">
<path d="M188 1.52588e-05H1.52588e-05V188H188V1.52588e-05Z" fill="white"/>
</mask>
<g mask="url(#mask0_533_5021)">
<path d="M42.5127 95.4641L3.42302 118.042" stroke="white" stroke-width="4.5" stroke-miterlimit="10" stroke-linecap="round" stroke-linejoin="round"/>
<path d="M30.2715 177.673L81.1787 148.269" stroke="white" stroke-width="4.5" stroke-miterlimit="10" stroke-linecap="round" stroke-linejoin="round"/>
<path d="M6.53508 149.399L9.92312 138.384C10.3733 136.921 11.8762 136.053 13.3677 136.394L24.9826 139.054C26.4748 139.396 27.9774 138.528 28.4275 137.065L31.9323 125.671C32.3829 124.208 33.885 123.34 35.3773 123.682L46.9922 126.342C48.4841 126.684 49.9866 125.815 50.4371 124.352L53.9416 112.959C54.3917 111.495 55.8946 110.627 57.3861 110.969L68.3408 113.478" stroke="white" stroke-width="4.5" stroke-miterlimit="10" stroke-linecap="round" stroke-linejoin="round"/>
<path d="M67.6514 132.889C67.0455 133.219 66.3258 133.337 65.6061 133.172L53.992 130.51C52.4972 130.168 50.9957 131.034 50.5478 132.499L47.0411 143.894C46.5895 145.355 45.0877 146.225 43.5965 145.884L31.9824 143.222C30.4883 142.88 28.9865 143.75 28.5382 145.212L25.0319 156.605C24.5803 158.07 23.0781 158.937 21.5877 158.595L9.97356 155.933C9.67614 155.867 9.38239 155.849 9.09598 155.871" stroke="white" stroke-width="4.5" stroke-miterlimit="10" stroke-linecap="round" stroke-linejoin="round"/>
<path d="M72.8867 119.071C72.7472 119.288 72.6334 119.527 72.5563 119.787L69.6845 129.114" stroke="white" stroke-width="4.5" stroke-miterlimit="10" stroke-linecap="round" stroke-linejoin="round"/>
<path d="M19.6341 93.7171C18.3306 94.1541 17.1042 94.7048 15.9663 95.3805C1.09118 104.215 -2.86674 136.553 12.6763 162.752C23.1628 180.428 45.1206 184.798 62.7897 174.307C74.7306 167.217 81.6558 155.151 81.6484 142.619" stroke="white" stroke-width="4.5" stroke-miterlimit="10" stroke-linecap="round" stroke-linejoin="round"/>
<path d="M77.6426 126.544C77.3338 125.945 77.0037 125.354 76.6548 124.767C65.6943 106.29 47.4157 94.8701 32.372 92.8359" stroke="white" stroke-width="4.5" stroke-miterlimit="10" stroke-linecap="round" stroke-linejoin="round"/>
<path d="M103.374 22.7402C96.6986 13.4137 88.8778 7.13842 85.8779 8.18123C83.6046 8.97068 83.388 21.9324 86.5458 34.6367" stroke="white" stroke-width="4.5" stroke-miterlimit="10" stroke-linecap="round" stroke-linejoin="round"/>
<path d="M114.265 52.5779C114.457 46.3357 112.661 39.8475 109.867 33.8142" stroke="white" stroke-width="4.5" stroke-miterlimit="10" stroke-linecap="round" stroke-linejoin="round"/>
<path d="M167.728 155.276C169.582 156.895 172.009 157.869 174.664 157.869C180.506 157.869 185.246 153.132 185.246 147.286C185.246 141.44 180.506 136.704 174.664 136.704C172.549 136.704 170.581 137.321 168.929 138.393" stroke="white" stroke-width="4.5" stroke-miterlimit="10" stroke-linecap="round" stroke-linejoin="round"/>
<path d="M50.5418 24.0165C55.4291 18.241 95.4456 34.0367 104.442 51.2695C119.866 50.6827 133.232 62.2609 134.673 77.8172C135.293 84.5183 133.597 90.8975 130.251 96.1729C190.41 120.071 170.983 179.931 139.08 179.931C136.26 179.931 76.987 179.932 76.987 179.932C75.2058 179.932 73.7613 178.487 73.7613 176.706V172.445C73.7613 163.858 80.7232 156.896 89.3113 156.896H99.5797C98.7616 154.665 98.3151 152.255 98.3151 149.74C98.3151 145.394 99.651 141.36 101.931 138.024C95.6167 139.818 87.9891 141.749 81.8442 142.593C66.2608 144.736 63.2539 128.95 73.7613 127.317C89.0345 124.942 97.5815 116 101.66 110.114C86.629 110.761 71.2967 108.435 66.7476 95.7925C63.5263 86.8408 68.3163 69.9101 81.4708 59.6733C59.2673 51.6587 46.8824 28.3412 50.5418 24.0165Z" stroke="white" stroke-width="4.5" stroke-miterlimit="10" stroke-linecap="round" stroke-linejoin="round"/>
<path d="M91.1449 73.2117L92.249 75.9087" stroke="white" stroke-width="4.5" stroke-miterlimit="10" stroke-linecap="round" stroke-linejoin="round"/>
<path d="M53.4503 36.1197C58.3548 44.5382 68.1437 54.8591 81.4711 59.6733C82.2958 59.0308 83.1525 58.4146 84.0433 57.8282C85.5546 56.8335 86.0823 54.8713 85.2407 53.27C79.7002 42.7284 69.4042 35.2877 53.4503 36.1197Z" stroke="white" stroke-width="4.5" stroke-miterlimit="10" stroke-linecap="round" stroke-linejoin="round"/>
<path d="M104.717 104.766C104.717 104.766 97.0734 123.693 73.7618 127.317" stroke="white" stroke-width="4.5" stroke-miterlimit="10" stroke-linecap="round" stroke-linejoin="round"/>
<path d="M129.048 179.932H76.9875C75.2059 179.932 73.7618 178.487 73.7618 176.706V172.445C73.7618 163.857 80.7236 156.896 89.3114 156.896H99.5798C98.7621 154.664 98.3156 152.255 98.3156 149.74C98.3156 138.258 107.623 128.95 119.105 128.95C123.126 128.95 126.88 130.092 130.062 132.068" stroke="white" stroke-width="4.5" stroke-miterlimit="10" stroke-linecap="round" stroke-linejoin="round"/>
</g>
</svg>
