<svg width="142" height="142" viewBox="0 0 142 142" fill="none" xmlns="http://www.w3.org/2000/svg">
<g clip-path="url(#clip0_534_4580)">
<mask id="mask0_534_4580" style="mask-type:luminance" maskUnits="userSpaceOnUse" x="0" y="0" width="142" height="142">
<path d="M111.67 -2.68793e-05L0.000590953 29.9217L29.9223 141.591L141.592 111.669L111.67 -2.68793e-05Z" fill="white"/>
</mask>
<g mask="url(#mask0_534_4580)">
<path d="M37.5744 110.056C43.1099 110.17 49.3281 109.803 55.9922 108.946" stroke="white" stroke-width="4" stroke-miterlimit="10" stroke-linecap="round" stroke-linejoin="round"/>
<path d="M88.7021 101.572C85.8213 102.493 82.8567 103.365 79.8228 104.178C76.7303 105.006 73.6723 105.746 70.6647 106.396" stroke="white" stroke-width="4" stroke-miterlimit="10" stroke-linecap="round" stroke-linejoin="round"/>
<path d="M102.687 96.4548C108.875 93.8805 114.433 91.1032 119.171 88.2509" stroke="white" stroke-width="4" stroke-miterlimit="10" stroke-linecap="round" stroke-linejoin="round"/>
<path d="M115.293 100.988C109.675 103.872 103.253 106.619 96.2459 109.083" stroke="white" stroke-width="4" stroke-miterlimit="10" stroke-linecap="round" stroke-linejoin="round"/>
<path d="M67.8691 116.673C60.5308 118.041 53.5664 118.867 47.2407 119.164" stroke="white" stroke-width="4" stroke-miterlimit="10" stroke-linecap="round" stroke-linejoin="round"/>
<path d="M90.514 110.995C87.8419 111.84 85.0968 112.641 82.292 113.393C79.4307 114.159 76.598 114.851 73.8054 115.466" stroke="white" stroke-width="4" stroke-miterlimit="10" stroke-linecap="round" stroke-linejoin="round"/>
<path d="M45.7881 90.2319C40.3259 90.9077 34.8302 91.3705 29.3139 91.6166" stroke="white" stroke-width="4" stroke-miterlimit="10" stroke-linecap="round" stroke-linejoin="round"/>
<path d="M117.098 68.0996C112.206 70.6401 107.223 72.9827 102.164 75.1261" stroke="white" stroke-width="4" stroke-miterlimit="10" stroke-linecap="round" stroke-linejoin="round"/>
<path d="M99.1177 60.6004C103.346 58.7919 107.519 56.8413 111.628 54.7539" stroke="white" stroke-width="4" stroke-miterlimit="10" stroke-linecap="round" stroke-linejoin="round"/>
<path d="M27.2169 77.3321C31.8848 77.0866 36.5364 76.6841 41.1641 76.1313" stroke="white" stroke-width="4" stroke-miterlimit="10" stroke-linecap="round" stroke-linejoin="round"/>
<path d="M54.8294 98.6559C54.3366 102.4 54.699 106.143 56.2243 109.479C56.9043 110.971 58.133 112.206 59.6177 112.897C61.1049 113.588 63.0872 113.84 64.666 113.398C65.3133 115.03 66.7218 116.342 68.3944 116.871C70.0701 117.402 72.4943 116.722 73.9613 115.758C69.8149 108.126 68.6091 97.0301 71.26 88.0188" stroke="white" stroke-width="4" stroke-miterlimit="10" stroke-linecap="round" stroke-linejoin="round"/>
<path d="M64.666 113.398C63.2487 110.878 62.3916 106.369 62.7439 104.08" stroke="white" stroke-width="4" stroke-miterlimit="10" stroke-linecap="round" stroke-linejoin="round"/>
<path d="M98.5463 86.942C100.843 89.9383 102.401 93.3616 102.75 97.0129C102.905 98.6453 102.46 100.328 101.518 101.67C100.575 103.012 98.9875 104.221 97.3974 104.628C97.6543 106.364 97.0903 108.205 95.904 109.5C94.7203 110.797 92.2808 111.42 90.5264 111.32C90.3015 102.637 85.7978 92.4245 78.9984 85.9454" stroke="white" stroke-width="4" stroke-miterlimit="10" stroke-linecap="round" stroke-linejoin="round"/>
<path d="M97.3973 104.628C97.3643 101.737 95.8526 97.4028 94.4034 95.5972" stroke="white" stroke-width="4" stroke-miterlimit="10" stroke-linecap="round" stroke-linejoin="round"/>
<path d="M80.9629 83.2356C84.2868 85.2413 87.9979 86.6079 91.8386 87.1824C94.2906 87.5493 96.8604 87.5947 99.1833 86.7292C101.509 85.8629 103.549 83.9489 104.048 81.5195C104.51 79.2662 103.597 76.9066 102.154 75.1146C101.239 73.976 100.126 73.0258 98.9476 72.1517C97.9459 71.4056 97.5894 70.0752 98.0844 68.9303C98.6681 67.5841 99.1565 66.2049 99.3792 64.759C99.7329 62.4856 99.3436 59.9858 97.8168 58.2653C96.1699 56.411 93.4469 55.7754 90.9998 56.188C88.5554 56.5999 86.3526 57.9241 84.4125 59.4679C81.3737 61.8857 78.8425 64.9226 76.9673 68.3238" stroke="white" stroke-width="4" stroke-miterlimit="10" stroke-linecap="round" stroke-linejoin="round"/>
<path d="M68.2034 86.6522C66.328 90.0534 63.7968 93.0903 60.7588 95.5102C58.8185 97.054 56.6157 98.3783 54.1691 98.7908C51.7242 99.2027 48.9984 98.5656 47.3536 96.7107C45.8269 94.9902 45.4352 92.4911 45.7891 90.2176C46.0146 88.7733 46.5029 87.3941 47.0847 86.0484C47.5811 84.9008 47.2246 83.5704 46.2215 82.827C45.0448 81.9524 43.9323 81.0022 43.0143 79.862C41.5711 78.07 40.6607 75.7098 41.1227 73.4565C41.6197 71.0277 43.6622 69.1152 45.9856 68.2496C48.3106 67.3835 50.8804 67.4289 53.3327 67.7957C57.1737 68.3725 60.8842 69.7369 64.2089 71.7447" stroke="white" stroke-width="4" stroke-miterlimit="10" stroke-linecap="round" stroke-linejoin="round"/>
<path d="M69.7848 67.0397C65.2042 68.2671 62.486 72.9755 63.7134 77.5561L64.8684 81.8667C66.0958 86.4473 70.804 89.1658 75.3846 87.9385C79.9655 86.711 82.6837 82.0026 81.4563 77.422L80.3013 73.1114C79.0739 68.5307 74.3657 65.8123 69.7848 67.0397Z" stroke="white" stroke-width="4" stroke-miterlimit="10" stroke-linecap="round" stroke-linejoin="round"/>
<path d="M101.066 38.6969C92.3804 44.0723 80.0991 49.2325 66.0702 52.9915C51.8162 56.8109 38.403 58.4743 28.1287 58.0916" stroke="white" stroke-width="4" stroke-miterlimit="10" stroke-linecap="round" stroke-linejoin="round"/>
<path d="M31.3412 45.1087C39.8973 45.3872 51.0073 43.9903 62.8105 40.8277C74.3301 37.741 84.4368 33.5279 91.6752 29.1262" stroke="white" stroke-width="4" stroke-miterlimit="10" stroke-linecap="round" stroke-linejoin="round"/>
<path d="M62.1831 125.603C47.2301 122.237 34.7999 111.476 30.2683 95.3437C20.1933 59.475 35.1028 22.5346 55.4763 16.8118C60.8277 15.3087 66.9786 15.8407 73.3227 18.0923" stroke="white" stroke-width="4" stroke-miterlimit="10" stroke-linecap="round" stroke-linejoin="round"/>
<path d="M80.5017 21.3303C96.0781 29.8339 111.451 47.8145 117.888 70.7323C124.685 94.9277 110.02 118.059 85.8243 124.855C80.4854 126.355 75.1284 126.934 69.9481 126.666" stroke="white" stroke-width="4" stroke-miterlimit="10" stroke-linecap="round" stroke-linejoin="round"/>
<path d="M60.1051 30.8954L60.7559 33.324" stroke="white" stroke-width="4" stroke-miterlimit="10" stroke-linecap="round" stroke-linejoin="round"/>
<path d="M47.1221 33.1604L46.9225 35.6668" stroke="white" stroke-width="4" stroke-miterlimit="10" stroke-linecap="round" stroke-linejoin="round"/>
<path d="M72.4821 26.3653L73.9082 28.436" stroke="white" stroke-width="4" stroke-miterlimit="10" stroke-linecap="round" stroke-linejoin="round"/>
</g>
</g>
<defs>
<clipPath id="clip0_534_4580">
<rect width="115.609" height="115.609" fill="white" transform="matrix(-0.965926 0.258819 0.258819 0.965926 111.67 0)"/>
</clipPath>
</defs>
</svg>
