<svg width="137" height="137" viewBox="0 0 137 137" fill="none" xmlns="http://www.w3.org/2000/svg">
<g clip-path="url(#clip0_533_5113)">
<mask id="mask0_533_5113" style="mask-type:luminance" maskUnits="userSpaceOnUse" x="0" y="0" width="137" height="137">
<path d="M20.244 0.153997L136.616 19.7681L117.002 136.14L0.629883 116.526L20.244 0.153997Z" fill="white"/>
</mask>
<g mask="url(#mask0_533_5113)">
<path d="M104.808 49.3753C103.674 48.9901 102.702 48.7492 101.459 48.5396C99.7338 48.2489 97.9622 48.6211 96.1951 49.5668C93.1168 51.2148 89.3188 50.5747 86.951 48.0088C85.5911 46.536 84.0396 45.6037 82.3144 45.3129C80.5916 45.0225 78.8179 45.3944 77.0504 46.34C73.9746 47.9884 70.1743 47.3479 67.8088 44.7824C66.4489 43.3097 64.8951 42.3769 63.1722 42.0865C61.4471 41.7958 59.6757 42.1681 57.9081 43.1137C54.8301 44.7617 51.0321 44.1216 48.6643 41.5557C47.3044 40.0829 45.7528 39.1506 44.0277 38.8598C42.7845 38.6503 41.7877 38.5594 40.5899 38.5515M26.7794 88.6482C29.0526 90.7633 31.7703 91.752 35.0206 92.2998C36.7457 92.5906 38.5171 92.2183 40.2847 91.2727C43.3627 89.6247 47.1607 90.2648 49.5285 92.8307C50.8884 94.3035 52.44 95.2358 54.1651 95.5266C55.8879 95.817 57.6616 95.4451 59.4292 94.4995C62.5049 92.851 66.3052 93.4916 68.6707 96.0571C70.0306 97.5298 71.5845 98.4626 73.3073 98.7529C75.0324 99.0437 76.8038 98.6714 78.5714 97.7258C81.6494 96.0778 85.4474 96.7179 87.8154 99.2839C89.1749 100.757 90.7267 101.689 92.4518 101.98C95.702 102.528 98.5935 102.484 101.434 101.231M97.536 84.1129C92.8341 83.3204 89.6649 78.8664 90.4574 74.1645C91.25 69.4623 95.704 66.2934 100.406 67.0859C105.108 67.8783 108.277 72.3322 107.485 77.0344C106.692 81.7363 102.238 84.9054 97.536 84.1129ZM66.8048 78.9333C62.1029 78.1408 58.9335 73.6867 59.726 68.9848C60.5185 64.2826 64.9728 61.1137 69.6747 61.9062C74.3766 62.6987 77.5458 67.1525 76.7533 71.8547C75.9608 76.5566 71.5067 79.7258 66.8048 78.9333ZM36.0734 73.7536C31.3715 72.9611 28.2023 68.507 28.9948 63.8051C29.7873 59.103 34.2413 55.934 38.9433 56.7265C43.6454 57.519 46.8146 61.9729 46.0221 66.675C45.2296 71.3769 40.7755 74.5461 36.0734 73.7536Z" stroke="white" stroke-width="4" stroke-miterlimit="10" stroke-linecap="round" stroke-linejoin="round"/>
<path d="M106.748 85.4919C102.193 112.519 81.2434 127.775 59.1992 124.06C37.1547 120.344 22.3632 99.0644 26.9186 72.0369C31.474 45.0091 56.0026 8.51841 78.0471 12.2339C100.091 15.9494 111.304 58.4642 106.748 85.4919Z" stroke="white" stroke-width="4" stroke-miterlimit="10" stroke-linecap="round" stroke-linejoin="round"/>
<path d="M49.2979 26.8589L100.365 35.4661" stroke="white" stroke-width="4" stroke-miterlimit="10" stroke-linecap="round" stroke-linejoin="round"/>
<path d="M32.5791 104.778L91.0793 114.638" stroke="white" stroke-width="4" stroke-miterlimit="10" stroke-linecap="round" stroke-linejoin="round"/>
</g>
</g>
<defs>
<clipPath id="clip0_533_5113">
<rect width="118.013" height="118.013" fill="white" transform="translate(20.2441 0.153931) rotate(9.5671)"/>
</clipPath>
</defs>
</svg>
