<svg width="176" height="176" viewBox="0 0 176 176" fill="none" xmlns="http://www.w3.org/2000/svg">
<path d="M163.976 116.762C165.364 112.042 165.987 106.877 166.001 101.788" stroke="white" stroke-width="4" stroke-miterlimit="10" stroke-linecap="round" stroke-linejoin="round"/>
<path d="M107.602 47.2224C134.89 27.489 161.933 60.3626 165.584 93.9441" stroke="white" stroke-width="4" stroke-miterlimit="10" stroke-linecap="round" stroke-linejoin="round"/>
<path d="M146.477 77.8982C150.887 80.9923 157.568 81.2238 162.326 78.6974H162.329" stroke="white" stroke-width="4" stroke-miterlimit="10" stroke-linecap="round" stroke-linejoin="round"/>
<path d="M124.137 145.061H139.835C146.624 145.061 152.656 142.023 154.427 137.596C157.117 130.882 163.349 125.147 171.685 121.368C174.812 119.95 173.495 116.531 169.391 116.531C158.876 116.531 147.667 119.198 139.039 125.209" stroke="white" stroke-width="4" stroke-miterlimit="10" stroke-linejoin="round"/>
<path d="M29.178 120.775C22.7328 118.085 15.1336 116.531 6.99699 116.531H6.86264C3.01826 116.538 1.51289 119.921 4.70276 121.368C13.0391 125.147 19.2708 130.882 21.9611 137.596C23.7318 142.023 29.7636 145.061 36.5533 145.061H52.2511" stroke="white" stroke-width="4" stroke-miterlimit="10" stroke-linejoin="round"/>
<path d="M119.011 145.061H133.541C133.541 138.027 135.494 131.324 139.039 125.209C144.53 115.729 153.838 107.665 165.595 102.001C165.736 101.933 165.87 101.864 166.001 101.791V101.788C170.849 99.1051 168.627 93.1863 161.702 93.1863C152.27 93.1863 143.259 94.4781 134.995 96.8274" stroke="white" stroke-width="4" stroke-miterlimit="10" stroke-linejoin="round"/>
<path d="M89.1143 145.061H124.53C124.53 129.381 128.302 111.726 134.995 96.8274C138.146 89.8135 141.987 83.2577 146.845 77.4539C149.522 74.2847 146.442 69.5895 142.46 70.7504C134.258 73.1411 127.193 76.5962 121.14 80.8126" stroke="white" stroke-width="4" stroke-miterlimit="10" stroke-linecap="round" stroke-linejoin="round"/>
<path d="M47.9453 55.5933C55.548 41.325 67.2706 30.939 80.4124 30.939C85.7312 30.939 90.8122 32.6372 95.4903 35.6066C95.4903 35.6101 95.4937 35.6101 95.4937 35.6101C122.988 53.0697 136.495 114.953 98.3563 131.199" stroke="white" stroke-width="4" stroke-miterlimit="10" stroke-linecap="round" stroke-linejoin="round"/>
<path d="M64.5666 66.6959C69.6214 68.7256 75.2247 65.0004 75.2247 59.4688C75.2247 55.1697 71.742 51.687 67.4464 51.687C61.1672 51.687 57.5333 58.7268 61.0081 63.8402" stroke="white" stroke-width="4" stroke-miterlimit="10" stroke-linecap="round" stroke-linejoin="round"/>
<path d="M75.9326 78.2791C77.779 73.3496 82.5087 69.8428 88.0479 69.8428C95.2231 69.8428 101 75.7061 101 82.8813C101 90.5769 94.5104 96.316 87.3555 95.9164" stroke="white" stroke-width="4" stroke-miterlimit="10" stroke-linecap="round" stroke-linejoin="round"/>
<path d="M112.813 55.4692C110.355 59.2643 106.056 61.7821 101.16 61.7821C93.5214 61.7821 87.3301 55.6511 87.3301 48.0928C87.3301 42.5343 90.6784 37.7488 95.4922 35.6079" stroke="white" stroke-width="4" stroke-miterlimit="10" stroke-linecap="round" stroke-linejoin="round"/>
<path d="M92.6826 108.343C100.141 101.23 112.209 102.142 118.474 110.493" stroke="white" stroke-width="4" stroke-miterlimit="10" stroke-linecap="round" stroke-linejoin="round"/>
<path d="M77.0639 145.061H40.3494C35.8677 145.061 32.1715 141.582 31.8614 137.114C30.1425 112.512 20.2353 97.8333 4.65452 85.4941C0.358875 82.0941 3.25249 75.1632 8.68492 75.859C21.4134 77.4884 32.23 80.73 41.2657 85.2702" stroke="white" stroke-width="4" stroke-miterlimit="10" stroke-linecap="round" stroke-linejoin="round"/>
<path d="M77.156 145.061H53.6184C53.6184 136.693 52.7907 127.89 51.2119 119.082" stroke="white" stroke-width="4" stroke-miterlimit="10" stroke-linecap="round" stroke-linejoin="round"/>
<path d="M48.9936 108.661C47.007 100.616 44.411 92.7085 41.2659 85.2698H41.2625C40.7251 83.9918 40.167 82.7276 39.5952 81.4805C39.5952 81.4771 39.5952 81.4771 39.5952 81.4771C35.4201 72.376 30.4011 64.1019 24.6551 57.3016C21.1828 53.1916 25.1788 47.0947 30.3459 48.6035C50.0015 54.3277 66.0883 65.2115 78.0046 80.8984C78.0046 80.8984 78.0046 80.8984 78.0046 80.9018C91.8946 99.1761 98.903 122.74 99.593 145.061H87.807" stroke="white" stroke-width="4" stroke-miterlimit="10" stroke-linecap="round" stroke-linejoin="round"/>
</svg>
