<svg xmlns="http://www.w3.org/2000/svg" xmlns:xlink="http://www.w3.org/1999/xlink" width="48" height="47" viewBox="0 0 48 47">
  <defs>
    <clipPath id="clip-path">
      <rect id="Rechteck_2205" data-name="Rechteck 2205" width="48" height="47" transform="translate(-12048.2 9724.5)" fill="none" stroke="#707070" stroke-width="1"/>
    </clipPath>
  </defs>
  <g id="Gruppe_maskieren_420" data-name="Gruppe maskieren 420" transform="translate(12048.2 -9724.5)" clip-path="url(#clip-path)">
    <path id="Schneeflocke" d="M47.084,37.054,43.42,34.928a9.84,9.84,0,0,1,2.963-2.07,1.749,1.749,0,0,0,1.007-2.16,1.6,1.6,0,0,0-1.527-1.108,1.7,1.7,0,0,0-.622.124A13.212,13.212,0,0,0,40.5,33.243L29.611,26.91,40.5,20.577a13.113,13.113,0,0,0,4.739,3.529,1.7,1.7,0,0,0,.622.124,1.617,1.617,0,0,0,1.527-1.108,1.749,1.749,0,0,0-1.007-2.16,10.145,10.145,0,0,1-2.963-2.07l3.664-2.126a1.711,1.711,0,0,0-.86-3.189,1.774,1.774,0,0,0-.86.226l-3.642,2.126a10.173,10.173,0,0,1-.294-3.619,1.747,1.747,0,0,0-1.357-1.957,1.726,1.726,0,0,0-.339-.034,1.617,1.617,0,0,0-1.595,1.4,13.156,13.156,0,0,0,.69,5.9L27.971,23.958V12.739a13.264,13.264,0,0,0,5.395-2.364,1.619,1.619,0,0,0,.2-2.352,1.739,1.739,0,0,0-1.289-.577,1.77,1.77,0,0,0-1.074.373,9.814,9.814,0,0,1-3.234,1.538V5.083a1.754,1.754,0,0,0-3.506,0V9.324a10.11,10.11,0,0,1-3.234-1.538,1.731,1.731,0,0,0-2.364.2,1.617,1.617,0,0,0,.2,2.352,13.264,13.264,0,0,0,5.395,2.364V23.924L13.608,17.591a13.235,13.235,0,0,0,.679-5.9,1.6,1.6,0,0,0-1.583-1.4,1.719,1.719,0,0,0-1.7,1.99,10.137,10.137,0,0,1-.294,3.608L7.06,13.78a1.742,1.742,0,0,0-.86-.226,1.711,1.711,0,0,0-.86,3.189l3.664,2.126a9.99,9.99,0,0,1-2.963,2.07A1.749,1.749,0,0,0,5.036,23.1a1.6,1.6,0,0,0,1.527,1.108,1.7,1.7,0,0,0,.622-.124,13.212,13.212,0,0,0,4.739-3.529l10.891,6.333L11.923,33.22a13.113,13.113,0,0,0-4.739-3.529,1.7,1.7,0,0,0-.622-.124,1.617,1.617,0,0,0-1.527,1.108,1.754,1.754,0,0,0,1.007,2.16,9.99,9.99,0,0,1,2.963,2.07L5.341,37.032a1.711,1.711,0,0,0,.86,3.189,1.774,1.774,0,0,0,.86-.226l3.653-2.126a10.2,10.2,0,0,1,.294,3.619,1.719,1.719,0,0,0,1.7,1.99,1.617,1.617,0,0,0,1.595-1.4,13.156,13.156,0,0,0-.69-5.9l10.857-6.333V41.058a13.264,13.264,0,0,0-5.395,2.364,1.619,1.619,0,0,0-.2,2.352,1.739,1.739,0,0,0,1.289.577,1.77,1.77,0,0,0,1.074-.373,9.961,9.961,0,0,1,3.234-1.538V48.68a1.754,1.754,0,0,0,3.506,0V44.439a10.111,10.111,0,0,1,3.234,1.538,1.77,1.77,0,0,0,1.074.373,1.739,1.739,0,0,0,1.289-.577,1.617,1.617,0,0,0-.2-2.352,13.264,13.264,0,0,0-5.395-2.364V29.839l10.857,6.333a13.235,13.235,0,0,0-.679,5.9,1.6,1.6,0,0,0,1.583,1.4,1.719,1.719,0,0,0,1.7-1.99,10.182,10.182,0,0,1,.294-3.619l3.642,2.126a1.742,1.742,0,0,0,.86.226,1.7,1.7,0,0,0,.86-3.167Z" transform="translate(-12054.725 9726.396) rotate(-11)" fill="#fff"/>
  </g>
</svg>
