<svg xmlns="http://www.w3.org/2000/svg" width="94.962" height="95.61" viewBox="0 0 94.962 95.61">
  <path id="Differenzmenge_68" data-name="Differenzmenge 68" d="M45.583,102.909a2.688,2.688,0,0,1-2.125-1.045,2.51,2.51,0,0,1-.533-1.905L44.34,89.881l-1.282.145A21.528,21.528,0,0,0,35.515,92.4a2.79,2.79,0,0,1-1.356.36,2.484,2.484,0,0,1-.346-.024,2.654,2.654,0,0,1-1.819-1.144,2.393,2.393,0,0,1,.787-3.4A26.69,26.69,0,0,1,44.19,85l.84-.028L48.66,59.144,21.9,70.095l.179.821a27.007,27.007,0,0,1-.264,11.926l-.007.023a2.409,2.409,0,0,1-2.295,1.764,2.347,2.347,0,0,1-.325-.023,2.688,2.688,0,0,1-.5-.123,2.651,2.651,0,0,1-1.617-3.226l.021-.071,0-.024a22.465,22.465,0,0,0,.454-7.915l-.171-1.283L7.984,75.8a2.7,2.7,0,0,1-.975.182A2.584,2.584,0,0,1,6.033,71l9.4-3.823-.752-1.034a21.93,21.93,0,0,0-5.845-5.432,2.7,2.7,0,0,1-1.217-1.537,2.638,2.638,0,0,1,.15-1.938,2.391,2.391,0,0,1,2.135-1.324,2.291,2.291,0,0,1,.318.022,2.533,2.533,0,0,1,.9.322l.02.011a26.813,26.813,0,0,1,8.419,8.342l.444.724L46.833,54.4,24.065,36.5l-.626.573a25.669,25.669,0,0,1-6.871,4.42,23.383,23.383,0,0,1-3.548,1.284,2.809,2.809,0,0,1-.642.08,2.212,2.212,0,0,1-.312-.022,2.348,2.348,0,0,1-2-1.925,2.66,2.66,0,0,1,1.971-3.046,21.715,21.715,0,0,0,7.128-3.613l1.007-.787-7.987-6.269-.006-.005a2.5,2.5,0,0,1-.957-1.7,2.587,2.587,0,0,1,2.565-2.907,2.562,2.562,0,0,1,.355.025,2.661,2.661,0,0,1,1.246.521l7.976,6.217.517-1.178a22.341,22.341,0,0,0,1.743-7.711l0-.024v-.074A2.654,2.654,0,0,1,28.074,17.7c.05,0,.1,0,.151,0a2.668,2.668,0,0,1,.364.025A2.356,2.356,0,0,1,30.6,20.1v.037a26.806,26.806,0,0,1-3.01,11.542l-.4.739,22.7,17.9,3.631-25.832-.8-.259a26.66,26.66,0,0,1-10.086-6.215,2.347,2.347,0,0,1-.667-1.749v-.025a2.36,2.36,0,0,1,.848-1.711,2.669,2.669,0,0,1,1.7-.621,2.584,2.584,0,0,1,.357.025,2.645,2.645,0,0,1,1.542.794l.068.071.019.013a22.124,22.124,0,0,0,6.511,4.278l1.193.493L55.637,9.506a2.675,2.675,0,0,1,3.005-2.182A2.7,2.7,0,0,1,60.4,8.344a2.511,2.511,0,0,1,.533,1.906L59.5,20.394l1.281-.142a21.5,21.5,0,0,0,7.545-2.377,2.79,2.79,0,0,1,1.356-.36,2.486,2.486,0,0,1,.346.024,2.654,2.654,0,0,1,1.819,1.144,2.393,2.393,0,0,1-.787,3.4,26.725,26.725,0,0,1-11.408,3.194l-.841.028-3.63,25.833L81.945,40.183l-.179-.821a26.745,26.745,0,0,1,.264-11.927l.007-.022a2.409,2.409,0,0,1,2.295-1.764,2.346,2.346,0,0,1,.325.023,2.694,2.694,0,0,1,.5.121,2.654,2.654,0,0,1,1.62,3.243,22.011,22.011,0,0,0-.474,8l.17,1.286,9.369-3.839a2.7,2.7,0,0,1,.976-.181,2.619,2.619,0,0,1,.362.025,2.585,2.585,0,0,1,.614,4.952l-9.4,3.823.752,1.033a22.368,22.368,0,0,0,5.66,5.312l.017.023.178.1a2.662,2.662,0,0,1,1.057,3.469,2.39,2.39,0,0,1-2.134,1.325,2.3,2.3,0,0,1-.318-.022,2.534,2.534,0,0,1-.9-.322l-.02-.01a26.662,26.662,0,0,1-8.42-8.343l-.444-.723L56.988,55.875l22.768,17.9.626-.572a25.621,25.621,0,0,1,6.871-4.42A23.38,23.38,0,0,1,90.8,67.5a2.806,2.806,0,0,1,.641-.08,2.209,2.209,0,0,1,.312.022,2.348,2.348,0,0,1,2,1.925,2.662,2.662,0,0,1-1.971,3.047l-.04.01-.017.005a21.809,21.809,0,0,0-7.073,3.6l-1,.787,7.984,6.265a2.566,2.566,0,0,1,.963,1.737,2.438,2.438,0,0,1-.509,1.819l-.009.012a2.6,2.6,0,0,1-2.04,1,2.553,2.553,0,0,1-.356-.025,2.664,2.664,0,0,1-1.243-.519l-7.95-6.273-.517,1.192a22.27,22.27,0,0,0-1.746,7.816,2.657,2.657,0,0,1-2.448,2.669c-.052,0-.1,0-.157,0a2.618,2.618,0,0,1-.357-.025,2.356,2.356,0,0,1-2.015-2.38V90.07A26.791,26.791,0,0,1,76.262,78.53l.4-.739-22.7-17.9L50.324,85.72l.8.258a26.6,26.6,0,0,1,10.086,6.215,2.347,2.347,0,0,1,.667,1.749v.025a2.356,2.356,0,0,1-.848,1.71,2.666,2.666,0,0,1-1.7.622,2.584,2.584,0,0,1-.357-.025,2.725,2.725,0,0,1-1.542-.794l-.069-.071-.018-.013a22.139,22.139,0,0,0-6.511-4.279l-1.192-.492L48.218,100.7A2.665,2.665,0,0,1,45.583,102.909Z" transform="translate(-4.43 -7.298)" fill="#fff"/>
</svg>
