<svg xmlns="http://www.w3.org/2000/svg" width="186.51" height="171.693" viewBox="0 0 186.51 171.693">
  <path id="Differenzmenge_67" data-name="Differenzmenge 67" d="M135.639,199.625h0a4.958,4.958,0,0,1-2.208-.521,4.556,4.556,0,0,1-2.372-2.669l-5.927-18.243-2.178,1.384a40.593,40.593,0,0,0-10.76,10.208,4.98,4.98,0,0,1-2.514,1.906,4.712,4.712,0,0,1-1.456.229,4.9,4.9,0,0,1-2.424-.647,4.32,4.32,0,0,1-2.05-2.8,4.264,4.264,0,0,1,.629-3.369,45.231,45.231,0,0,1,4.5-5.434,48.06,48.06,0,0,1,11.991-9.23l1.485-.787-15.166-46.678L71,163.542l1.042,1.318a48.684,48.684,0,0,1,7.35,13.349,41.72,41.72,0,0,1,1.948,6.831l.007.048a4.56,4.56,0,0,1-.551,3.061,4.225,4.225,0,0,1-2.335,1.863,4.77,4.77,0,0,1-.919.2,4.591,4.591,0,0,1-.521.03,4.676,4.676,0,0,1-2.851-.978,4.8,4.8,0,0,1-1.84-3.037l-.025-.148-.014-.046a42.114,42.114,0,0,0-5.739-13.7l-1.432-2.156L52.371,184.428a4.916,4.916,0,0,1-2.063,1.323,4.646,4.646,0,0,1-1.437.227,4.7,4.7,0,0,1-3.51-7.827L58.134,163.9l-2.257-1.2a40.9,40.9,0,0,0-14.317-4.348,4.911,4.911,0,0,1-3.217-1.544,4.8,4.8,0,0,1-1.3-3.281,4.338,4.338,0,0,1,2.961-4.076,4.385,4.385,0,0,1,1.374-.205c.116,0,.237,0,.36.011l.038,0a42.867,42.867,0,0,1,7,1.229,48.464,48.464,0,0,1,13.912,5.864l1.432.912,36.31-40.58L47.2,105.2l-.623,1.579a47.776,47.776,0,0,1-7.9,13.013,43.181,43.181,0,0,1-4.89,5.047,4.609,4.609,0,0,1-1.509.856,4.327,4.327,0,0,1-1.338.213,4.264,4.264,0,0,1-3.448-1.762,4.842,4.842,0,0,1,.794-6.551,40.855,40.855,0,0,0,9.044-11.948l1.122-2.3L19.746,99.33l-.015,0a4.547,4.547,0,0,1-2.915-2.016,4.7,4.7,0,0,1,2.47-7.036,4.854,4.854,0,0,1,2.452-.141l18.651,3.943-.1-2.57a41.835,41.835,0,0,0-3.4-14.42l-.015-.046-.067-.133a4.8,4.8,0,0,1-.3-3.539,4.672,4.672,0,0,1,2.175-2.752,4.746,4.746,0,0,1,.857-.375,4.245,4.245,0,0,1,1.315-.209,4.134,4.134,0,0,1,1.659.344,4.431,4.431,0,0,1,2.2,2.142l.033.066a43.147,43.147,0,0,1,2.458,6.709,49.074,49.074,0,0,1,1.924,15.071l-.067,1.678,53.123,11.54L87.022,60.9l-1.664.237a43.163,43.163,0,0,1-6.047.413,51.033,51.033,0,0,1-9.08-.832,45.117,45.117,0,0,1-6.837-1.75,4.262,4.262,0,0,1-2.476-2.317l-.02-.047a4.273,4.273,0,0,1,.021-3.456,4.83,4.83,0,0,1,2.894-2.622,4.732,4.732,0,0,1,1.465-.233,4.964,4.964,0,0,1,1.689.3l.186.067.043.006a42.345,42.345,0,0,0,12.309,1.921c.729,0,1.458-.022,2.168-.066l2.576-.159L78.322,34.125a4.554,4.554,0,0,1,.35-3.552A4.9,4.9,0,0,1,81.5,28.167a4.824,4.824,0,0,1,1.491-.236,4.958,4.958,0,0,1,2.208.521,4.561,4.561,0,0,1,2.372,2.669l5.968,18.365,2.176-1.379a39.831,39.831,0,0,0,7.854-6.638,33.061,33.061,0,0,0,2.909-3.57,4.979,4.979,0,0,1,2.514-1.906,4.71,4.71,0,0,1,1.458-.23,4.892,4.892,0,0,1,2.425.648,4.319,4.319,0,0,1,2.047,2.8,4.268,4.268,0,0,1-.628,3.369,45.3,45.3,0,0,1-4.5,5.434A48.1,48.1,0,0,1,97.8,57.24l-1.485.787L111.478,104.7l36.2-40.563-1.041-1.318a48.64,48.64,0,0,1-7.35-13.349,41.46,41.46,0,0,1-1.948-6.831l-.007-.048a4.56,4.56,0,0,1,.55-3.06,4.23,4.23,0,0,1,2.335-1.864,4.863,4.863,0,0,1,.9-.2c.159-.016.321-.024.48-.024a4.742,4.742,0,0,1,2.893.977,4.926,4.926,0,0,1,1.859,3.057,41.348,41.348,0,0,0,5.773,13.865l1.433,2.164,12.7-14.245a4.918,4.918,0,0,1,2.062-1.323,4.645,4.645,0,0,1,1.436-.227,4.7,4.7,0,0,1,3.512,7.827L160.493,63.793l2.259,1.2a41.963,41.963,0,0,0,13.877,4.3l.052.027.41.027a4.84,4.84,0,0,1,4.493,4.824,4.339,4.339,0,0,1-2.961,4.075,4.388,4.388,0,0,1-1.375.205c-.116,0-.237,0-.361-.011l-.037,0a42.818,42.818,0,0,1-7-1.229,48.505,48.505,0,0,1-13.912-5.864l-1.432-.911L118.2,111.009,171.423,122.5l.624-1.579a47.8,47.8,0,0,1,7.9-13.014,43.42,43.42,0,0,1,4.89-5.046,4.6,4.6,0,0,1,1.51-.856,4.326,4.326,0,0,1,1.338-.213,4.264,4.264,0,0,1,3.447,1.761,4.843,4.843,0,0,1-.793,6.552l-.064.053-.025.024a40.9,40.9,0,0,0-8.959,11.877l-1.109,2.291,18.7,4.018a4.665,4.665,0,0,1,2.957,2.07,4.427,4.427,0,0,1,.618,3.371l-.006.029a4.7,4.7,0,0,1-3.136,3.5,4.836,4.836,0,0,1-2.444.142l-18.654-4.06.116,2.6a41.311,41.311,0,0,0,1.812,10.141,33.978,33.978,0,0,0,1.669,4.469,4.827,4.827,0,0,1-1.868,6.314,4.691,4.691,0,0,1-.857.376,4.246,4.246,0,0,1-1.315.209,4.134,4.134,0,0,1-1.659-.344,4.431,4.431,0,0,1-2.2-2.142l-.033-.067a43.256,43.256,0,0,1-2.458-6.708,49.074,49.074,0,0,1-1.924-15.071l.067-1.678-53.123-11.541,15.166,46.678,1.664-.237a43.17,43.17,0,0,1,6.047-.413,51.025,51.025,0,0,1,9.079.832,45.2,45.2,0,0,1,6.838,1.75,4.262,4.262,0,0,1,2.476,2.317l.02.047a4.273,4.273,0,0,1-.023,3.46,4.834,4.834,0,0,1-2.893,2.618,4.718,4.718,0,0,1-1.46.225,5.041,5.041,0,0,1-1.694-.293l-.186-.068-.044-.006a42.339,42.339,0,0,0-12.308-1.921c-.729,0-1.459.022-2.168.066l-2.576.159,5.927,18.244a4.553,4.553,0,0,1-.35,3.552,4.9,4.9,0,0,1-2.826,2.406A4.828,4.828,0,0,1,135.639,199.625Z" transform="translate(-16.052 -27.932)" fill="#fff"/>
</svg>
