<svg height="338.5" viewBox="0 0 247.5 338.5" width="247.5" xmlns="http://www.w3.org/2000/svg"><path d="m47.5 0h191a26.141 26.141 0 0 0 26-26c0-14-12-25.5-26-25.5h-125c89.5-67.5 146-122.5 146-184 0-66.5-56.5-103-121-103-38 0-76 12-106 36.5a26.455 26.455 0 0 0 -9.5 20 25.822 25.822 0 0 0 26 26 25.834 25.834 0 0 0 16-5.5 120.4 120.4 0 0 1 74.5-25c30.5 0 60.5 16 60.5 51 0 46.5-47.5 88.5-170.5 180.5a30.528 30.528 0 0 0 -12.5 24.5 30.621 30.621 0 0 0 30.5 30.5z" fill="#de332a" opacity=".08" transform="translate(-17 338.5)"/></svg>